<svg width="579" height="162" viewBox="0 0 579 162" fill="none" xmlns="http://www.w3.org/2000/svg">
<path d="M504.5 15L504.992 162H534.5L504.5 15Z" fill="white"/>
<path d="M0 20C0 8.95431 8.95431 0 20 0H485C496.046 0 505 8.95431 505 20V162H0V20Z" fill="white"/>
<path d="M534.489 162H578.394C553.301 162 531.485 133.698 520.352 92.0498L534.489 162Z" fill="white"/>
<path d="M512.508 162.001H534.508L520.371 91.9561C518.161 83.6756 516.371 74.8684 515.061 65.6514L512.508 53V162.001Z" fill="white"/>
<path d="M505 162L512.508 162.001V53.1475L505 16V162Z" fill="white"/>
<path d="M515.061 65.7812C516.371 74.9856 518.161 83.7807 520.371 92.0498L515.061 65.7812Z" fill="white"/>
</svg>
