<svg width="652" height="162" viewBox="0 0 652 162" fill="none" xmlns="http://www.w3.org/2000/svg">
<path d="M577.5 15L577.992 162H607.5L577.5 15Z" fill="white"/>
<path d="M73 20C73 8.9543 81.9543 0 93 0H558C569.046 0 578 8.95431 578 20V162H73V20Z" fill="white"/>
<path d="M43.9053 162H0C25.0937 162 46.9096 133.698 58.042 92.0498L43.9053 162Z" fill="white"/>
<path d="M65.8867 162.001H43.8867L58.0234 91.9561C60.2338 83.6756 62.0232 74.8684 63.333 65.6514L65.8867 53V162.001Z" fill="white"/>
<path d="M73.3945 162L65.8867 162.001V53.1475L73.3945 16V162Z" fill="white"/>
<path d="M63.333 65.7812C62.0232 74.9856 60.2337 83.7807 58.0234 92.0498L63.333 65.7812Z" fill="white"/>
<path d="M607.489 162H651.395C626.301 162 604.485 133.698 593.353 92.0498L607.489 162Z" fill="white"/>
<path d="M585.508 162.001H607.508L593.371 91.9561C591.161 83.6756 589.371 74.8684 588.062 65.6514L585.508 53V162.001Z" fill="white"/>
<path d="M578 162L585.508 162.001V53.1475L578 16V162Z" fill="white"/>
<path d="M588.062 65.7812C589.371 74.9856 591.161 83.7807 593.371 92.0498L588.062 65.7812Z" fill="white"/>
<path d="M73.5082 16V162H44L73.5082 16Z" fill="white"/>
</svg>
