<?xml version="1.0" encoding="UTF-8"?>
<svg version="1.1" xmlns="http://www.w3.org/2000/svg" width="328" height="294">
<path d="M0 0 C1.27141846 -0.00563965 2.54283691 -0.0112793 3.8527832 -0.01708984 C14.47071119 0.0644218 24.08155263 0.88934211 33.8125 5.3125 C35.45439479 5.72436513 37.10083303 6.1182937 38.75 6.5 C63.02829563 12.86258782 84.83282841 31.43572295 97.8125 52.3125 C98.39386719 53.19421875 98.97523438 54.0759375 99.57421875 54.984375 C103.04246572 60.39248891 104.78826507 64.96224342 105.8125 71.3125 C106.4725 71.3125 107.1325 71.3125 107.8125 71.3125 C108.44697422 73.53931972 109.06994424 75.76847759 109.6875 78 C110.20957031 79.86205078 110.20957031 79.86205078 110.7421875 81.76171875 C113.3387399 92.14673564 114.17455156 102.44626872 114.125 113.125 C114.12153564 114.34823975 114.11807129 115.57147949 114.11450195 116.83178711 C114.00434744 126.01477849 113.12900251 134.42555399 110.8125 143.3125 C110.54953125 144.40046875 110.2865625 145.4884375 110.015625 146.609375 C108.97940327 150.69081977 108.16428966 153.78481551 105.8125 157.3125 C105.4254732 158.69958146 105.07592763 160.09730406 104.75 161.5 C100.97123396 174.41548394 92.63759608 185.57748397 84.10351562 195.76269531 C83.20263916 196.84415593 82.31700028 197.93841299 81.44335938 199.04199219 C80.27676496 200.50151624 79.04913267 201.91182423 77.8125 203.3125 C77.1525 203.3125 76.4925 203.3125 75.8125 203.3125 C75.57015625 203.90546875 75.3278125 204.4984375 75.078125 205.109375 C69.07412844 215.56077642 49.7336172 222.72540134 38.8125 226.3125 C37.94367188 226.6734375 37.07484375 227.034375 36.1796875 227.40625 C33.56778946 228.40618456 31.58503722 228.4709307 28.8125 228.3125 C28.8125 228.9725 28.8125 229.6325 28.8125 230.3125 C13.48535417 233.77667819 -1.31099325 235.83300751 -17 235.875 C-18.04930695 235.88732666 -18.04930695 235.88732666 -19.11981201 235.89990234 C-29.45037423 235.98976236 -38.36506664 234.31916932 -48.1875 231.3125 C-49.894119 230.8683597 -51.60206477 230.42920897 -53.3125 230 C-59.71524155 228.04716383 -65.41919417 224.64741633 -71.1875 221.3125 C-72.04730469 220.81878906 -72.90710938 220.32507813 -73.79296875 219.81640625 C-75.63447433 218.71802151 -77.41957882 217.52577924 -79.1875 216.3125 C-79.1875 215.6525 -79.1875 214.9925 -79.1875 214.3125 C-79.744375 214.085625 -80.30125 213.85875 -80.875 213.625 C-83.84216712 211.94093217 -85.80546327 209.75685746 -88.1875 207.3125 C-89.04988281 206.44753906 -89.91226563 205.58257812 -90.80078125 204.69140625 C-109.05502151 185.64465194 -115.61300006 162.66031374 -115.5625 136.6875 C-115.5639502 135.92658051 -115.56540039 135.16566101 -115.56689453 134.38168335 C-115.56396368 120.39509525 -114.08133477 107.02165738 -111.1875 93.3125 C-110.5275 93.3125 -109.8675 93.3125 -109.1875 93.3125 C-109.12433594 92.7040625 -109.06117187 92.095625 -108.99609375 91.46875 C-107.89025867 83.55329894 -105.06113215 76.90794739 -101.74609375 69.71875 C-100.1656327 66.4255206 -100.1656327 66.4255206 -99.1875 63.3125 C-98.5275 63.3125 -97.8675 63.3125 -97.1875 63.3125 C-96.9709375 62.136875 -96.9709375 62.136875 -96.75 60.9375 C-96.1875 58.3125 -96.1875 58.3125 -95.1875 56.3125 C-94.5275 56.3125 -93.8675 56.3125 -93.1875 56.3125 C-92.95675781 55.466875 -92.72601563 54.62125 -92.48828125 53.75 C-90.97047494 49.73898032 -88.91168335 46.73459417 -86.375 43.3125 C-85.73594727 42.42691406 -85.73594727 42.42691406 -85.08398438 41.5234375 C-81.1860738 36.16897033 -77.1317002 30.74523122 -72.1875 26.3125 C-71.5275 26.3125 -70.8675 26.3125 -70.1875 26.3125 C-70.1875 25.6525 -70.1875 24.9925 -70.1875 24.3125 C-69.5275 24.3125 -68.8675 24.3125 -68.1875 24.3125 C-68.1875 23.6525 -68.1875 22.9925 -68.1875 22.3125 C-65.87203016 20.43692109 -63.41181843 18.83563653 -60.9375 17.17578125 C-59.31821194 16.07862159 -57.72156295 14.94393651 -56.1875 13.73046875 C-48.58482219 7.92116453 -39.26599019 5.8179087 -30.1875 3.3125 C-29.02863281 2.96832031 -27.86976563 2.62414062 -26.67578125 2.26953125 C-17.85310721 0.04559093 -9.05652828 0.02946287 0 0 Z M-39.1875 17.3125 C-39.1875 17.9725 -39.1875 18.6325 -39.1875 19.3125 C-39.78175781 19.43625 -40.37601562 19.56 -40.98828125 19.6875 C-57.41584125 23.77522877 -75.67032772 41.62112869 -84.8125 55.83984375 C-85.26625 56.65582031 -85.72 57.47179687 -86.1875 58.3125 C-86.67089844 59.15167969 -87.15429688 59.99085937 -87.65234375 60.85546875 C-90.55533669 66.06853565 -93.12199873 71.24404914 -95.23046875 76.828125 C-95.95218634 78.70164495 -96.75924037 80.54260807 -97.60546875 82.36328125 C-99.80761173 87.469281 -100.99636141 92.86309103 -102.3125 98.25 C-102.57675781 99.29607422 -102.84101562 100.34214844 -103.11328125 101.41992188 C-105.17001639 109.72516453 -106.34133788 117.65390498 -106.35546875 126.21484375 C-106.35879715 126.93684464 -106.36212555 127.65884552 -106.36555481 128.40272522 C-106.37057879 129.91780976 -106.37296455 131.43290519 -106.37280273 132.94799805 C-106.37499132 135.24091102 -106.39320097 137.53334351 -106.41210938 139.82617188 C-106.44041269 147.23912218 -106.23636435 154.13004989 -104.1875 161.3125 C-103.8496049 162.64468459 -103.51506802 163.97773857 -103.1875 165.3125 C-102.5275 165.3125 -101.8675 165.3125 -101.1875 165.3125 C-101.084375 166.529375 -100.98125 167.74625 -100.875 169 C-100.41017756 172.77170205 -99.33182656 175.13889669 -97.1875 178.3125 C-96.48927383 179.96619357 -95.81251395 181.62977014 -95.1875 183.3125 C-94.5275 183.3125 -93.8675 183.3125 -93.1875 183.3125 C-92.91421875 184.05628906 -92.6409375 184.80007812 -92.359375 185.56640625 C-89.13153047 193.13032192 -82.75013993 198.96529378 -77.0625 204.75 C-76.46469727 205.36544678 -75.86689453 205.98089355 -75.25097656 206.61499023 C-72.03452658 209.82652893 -69.54725132 211.81147835 -65.1875 213.3125 C-64.16524255 214.28973575 -63.16550137 215.29097501 -62.1875 216.3125 C-54.69343624 221.20844758 -46.82531539 224.13123349 -38.1875 226.3125 C-37.00800781 226.61285156 -35.82851562 226.91320312 -34.61328125 227.22265625 C-6.29171703 233.4807614 23.00065791 229.14693861 47.8125 214.3125 C53.63912697 210.52926444 59.30924723 206.55242745 64.8125 202.3125 C65.50859375 201.78398437 66.2046875 201.25546875 66.921875 200.7109375 C87.97658143 183.61451588 100.42550721 153.6708032 103.8125 127.3125 C104.08411134 122.37132985 104.09250027 117.44754498 104.0625 112.5 C104.07023438 111.23607422 104.07796875 109.97214844 104.0859375 108.66992188 C104.06372618 97.82524433 103.4811846 86.82408259 99.6484375 76.578125 C99.02984617 74.90156907 98.48310995 73.19811497 97.9765625 71.484375 C95.74628457 64.05011522 92.72705792 57.39013195 87.8125 51.3125 C86.8225 50.9825 85.8325 50.6525 84.8125 50.3125 C84.4403958 48.98946283 84.10619827 47.65512065 83.8125 46.3125 C83.1525 45.9825 82.4925 45.6525 81.8125 45.3125 C81.40773437 44.58417969 81.00296875 43.85585938 80.5859375 43.10546875 C78.34432511 39.57517611 75.63615756 37.27253751 72.4375 34.625 C71.87289062 34.13966797 71.30828125 33.65433594 70.7265625 33.15429688 C67.57181443 30.50708351 64.79556909 28.58797718 60.8125 27.3125 C60.8125 26.6525 60.8125 25.9925 60.8125 25.3125 C52.57715664 20.45881937 44.11267233 16.95327901 35.0234375 14.03515625 C33.53998214 13.55028127 32.06562443 13.03671026 30.6015625 12.49609375 C8.23458463 4.37334915 -17.57188101 9.55540553 -39.1875 17.3125 Z " fill="#343842" transform="translate(167.1875,19.6875)"/>
<path d="M0 0 C2.07601975 -0.0013507 4.15203918 -0.0032946 6.22805786 -0.00579834 C10.53927681 -0.00872134 14.85041199 -0.00453779 19.16162109 0.00488281 C24.69081067 0.01637673 30.21980817 0.00963791 35.74899101 -0.00226212 C40.01768457 -0.00947201 44.28633211 -0.00719854 48.55502701 -0.00200653 C50.59562325 -0.0006728 52.63622367 -0.00230807 54.67681503 -0.00696564 C57.51235925 -0.01202739 60.34758509 -0.00433018 63.18310547 0.00683594 C64.0245813 0.00278748 64.86605713 -0.00126099 65.73303223 -0.00543213 C69.63341198 0.02311706 71.56287029 0.05233019 74.8828125 2.265625 C73.98864482 8.47027632 70.56920091 12.34826943 66.8828125 17.265625 C66.27421387 18.10552979 66.27421387 18.10552979 65.65332031 18.96240234 C58.10333359 29.36998781 50.22107313 37.6690181 37.8828125 42.265625 C36.8721875 42.801875 35.8615625 43.338125 34.8203125 43.890625 C28.39354482 46.89889923 21.46524813 46.44868786 14.5078125 46.453125 C13.50492188 46.46537109 12.50203125 46.47761719 11.46875 46.49023438 C5.57760367 46.50180076 0.52716043 45.96970618 -5.1171875 44.265625 C-5.1171875 43.605625 -5.1171875 42.945625 -5.1171875 42.265625 C-6.0453125 42.100625 -6.9734375 41.935625 -7.9296875 41.765625 C-19.58544756 38.42195242 -30.80845387 26.64035324 -38.1171875 17.265625 C-38.9009375 16.275625 -39.6846875 15.285625 -40.4921875 14.265625 C-42.46248149 10.62815918 -42.66624935 8.34437019 -42.1171875 4.265625 C-38.66528507 1.96435671 -35.82331616 1.60046657 -31.81201172 1.15722656 C-31.06539717 1.07300571 -30.31878262 0.98878487 -29.54954338 0.90201187 C-19.71855604 -0.10264947 -9.87130339 -0.02289665 0 0 Z " fill="#30353F" transform="translate(149.1171875,176.734375)"/>
<path d="M0 0 C0.66 0 1.32 0 2 0 C0.91445429 2.35201571 -0.2853909 4.41789381 -1.75 6.5625 C-6.38742478 13.43211805 -10.11800629 20.76914907 -13.04296875 28.515625 C-13.76468634 30.38914495 -14.57174037 32.23010807 -15.41796875 34.05078125 C-17.62011173 39.156781 -18.80886141 44.55059103 -20.125 49.9375 C-20.52138672 51.50661133 -20.52138672 51.50661133 -20.92578125 53.10742188 C-22.98251639 61.41266453 -24.15383788 69.34140498 -24.16796875 77.90234375 C-24.17296135 78.98534508 -24.17296135 78.98534508 -24.17805481 80.09022522 C-24.18307879 81.60530976 -24.18546455 83.12040519 -24.18530273 84.63549805 C-24.18749132 86.92841102 -24.20570097 89.22084351 -24.22460938 91.51367188 C-24.25218043 98.94644349 -23.9380365 105.7764094 -22 113 C-22 114.32 -22 115.64 -22 117 C-21.34 117 -20.68 117 -20 117 C-19.81824219 117.75925781 -19.63648437 118.51851563 -19.44921875 119.30078125 C-19.07216797 120.79158203 -19.07216797 120.79158203 -18.6875 122.3125 C-18.32205078 123.79169922 -18.32205078 123.79169922 -17.94921875 125.30078125 C-17.2116646 128.01977976 -17.2116646 128.01977976 -15.39453125 129.60546875 C-14.93433594 130.06566406 -14.47414063 130.52585938 -14 131 C-14 132.32 -14 133.64 -14 135 C-13.34 135 -12.68 135 -12 135 C-10.34375 137.1953125 -10.34375 137.1953125 -8.5 140.125 C-7.58734375 141.55199219 -7.58734375 141.55199219 -6.65625 143.0078125 C-5 146 -5 146 -3.96875 149.2421875 C-3.20618935 152.29672989 -3.20618935 152.29672989 0 154 C-0.639375 154.2475 -1.27875 154.495 -1.9375 154.75 C-4.19303909 155.80283433 -4.19303909 155.80283433 -4.62890625 158.078125 C-4.75136719 158.71234375 -4.87382813 159.3465625 -5 160 C-21.66827687 146.80428081 -31.44999628 125.9409396 -34 105 C-34.32585465 99.45543009 -34.3857968 93.92792767 -34.375 88.375 C-34.3764502 87.61408051 -34.37790039 86.85316101 -34.37939453 86.06918335 C-34.37646368 72.08259525 -32.89383477 58.70915738 -30 45 C-29.34 45 -28.68 45 -28 45 C-27.93683594 44.36835937 -27.87367187 43.73671875 -27.80859375 43.0859375 C-26.3309407 32.29129311 -21.96431576 22.51442312 -14 15 C-11.67377398 12.38782593 -9.37705015 9.75236501 -7.0859375 7.109375 C-5 5 -5 5 -2 4 C-0.79117904 1.99983534 -0.79117904 1.99983534 0 0 Z " fill="#30363F" transform="translate(86,68)"/>
<path d="M0 0 C1.58995889 0.00374472 3.17992014 0.00658475 4.7698822 0.00857544 C8.89119191 0.01609737 13.01235351 0.03564271 17.13360596 0.0579834 C21.3644409 0.07869313 25.59530052 0.08763004 29.82617188 0.09765625 C38.08079603 0.11890336 46.33530131 0.15289495 54.58984375 0.1953125 C54.58984375 0.5253125 54.58984375 0.8553125 54.58984375 1.1953125 C39.73984375 1.5253125 24.88984375 1.8553125 9.58984375 2.1953125 C10.90984375 2.8553125 12.22984375 3.5153125 13.58984375 4.1953125 C13.25984375 4.8553125 12.92984375 5.5153125 12.58984375 6.1953125 C28.75984375 6.1953125 44.92984375 6.1953125 61.58984375 6.1953125 C62.08484375 7.1853125 62.08484375 7.1853125 62.58984375 8.1953125 C61.53161911 8.20561996 60.47339447 8.21592743 59.38310242 8.22654724 C49.42114892 8.3242093 39.45925889 8.42693657 29.49740887 8.53465176 C24.37565459 8.58986852 19.2538946 8.6432866 14.13208008 8.69262695 C9.19131762 8.7402888 4.25062511 8.79263238 -0.69005394 8.84825325 C-2.57712251 8.86866853 -4.46421025 8.88738298 -6.35131264 8.90438652 C-8.98989431 8.92844875 -11.62834369 8.95850094 -14.2668457 8.98999023 C-15.44288612 8.99862343 -15.44288612 8.99862343 -16.64268494 9.00743103 C-19.82131581 9.05068679 -22.37290284 9.1828947 -25.41015625 10.1953125 C-25.84277211 13.61358711 -25.65897789 14.86753285 -23.5390625 17.66015625 C-15.14802136 25.74467534 -7.41731138 31.2888065 3.58984375 35.1953125 C2.95046875 35.6696875 2.31109375 36.1440625 1.65234375 36.6328125 C-0.29308931 38.03269976 -0.29308931 38.03269976 -1.41015625 39.1953125 C0.23984375 39.5253125 1.88984375 39.8553125 3.58984375 40.1953125 C3.58984375 41.1853125 3.58984375 42.1753125 3.58984375 43.1953125 C6.22984375 43.8553125 8.86984375 44.5153125 11.58984375 45.1953125 C6.62413526 46.43673962 4.43437313 45.56792916 -0.41015625 44.1953125 C-0.41015625 43.5353125 -0.41015625 42.8753125 -0.41015625 42.1953125 C-1.33828125 42.0303125 -2.26640625 41.8653125 -3.22265625 41.6953125 C-14.87841631 38.35163992 -26.10142262 26.57004074 -33.41015625 17.1953125 C-34.19390625 16.2053125 -34.97765625 15.2153125 -35.78515625 14.1953125 C-37.75545024 10.55784668 -37.9592181 8.27405769 -37.41015625 4.1953125 C-33.88808031 1.84726187 -30.90633592 1.52543831 -26.81079102 1.08251953 C-26.05646821 0.99815706 -25.3021454 0.91379459 -24.52496433 0.82687569 C-16.34633656 -0.01787298 -8.21326845 -0.05820347 0 0 Z " fill="#383D45" transform="translate(144.41015625,176.8046875)"/>
<path d="M0 0 C7.96974421 0.83018169 13.7797793 2.86831792 20 8 C21.23546343 8.65326496 22.48734247 9.27598334 23.75 9.875 C26.92934549 11.42220057 29.9867382 13.08500729 33 14.9375 C33.763125 15.40027344 34.52625 15.86304687 35.3125 16.33984375 C37 18 37 18 37.4921875 20.4453125 C36.52604537 25.4600502 31.8976583 28.06364756 28 31 C25.64507739 32.54628084 23.26019915 33.96690904 20.8046875 35.34765625 C18.64126246 36.62220889 16.62110181 37.93304718 14.5703125 39.37109375 C3.18841902 47.27061674 3.18841902 47.27061674 -5 46 C-5.6875 44.1875 -5.6875 44.1875 -6 42 C-4.11933981 39.77825924 -2.02217042 38.25227732 0.44140625 36.73046875 C1.10333984 36.31909668 1.76527344 35.90772461 2.44726562 35.48388672 C3.14529297 35.0560791 3.84332031 34.62827148 4.5625 34.1875 C5.27470703 33.74680176 5.98691406 33.30610352 6.72070312 32.85205078 C12.11794183 29.51968327 17.54005754 26.22871598 23 23 C22.81040269 21.07372982 22.81040269 21.07372982 22 19 C20.1740522 17.53423133 20.1740522 17.53423133 17.875 16.4375 C17.0603125 16.01210937 16.245625 15.58671875 15.40625 15.1484375 C13.43214967 14.20625325 11.40837241 13.36883734 9.375 12.5625 C5.25324727 10.65428114 2.28765675 8.0877992 -1 5 C-0.67 3.35 -0.34 1.7 0 0 Z " fill="#2E333D" transform="translate(113,101)"/>
<path d="M0 0 C3.89423248 3.24519374 7.55243974 6.52865106 11.0625 10.1875 C14.18823579 13.37416631 16.86756777 15.34702711 21 17 C21 17.66 21 18.32 21 19 C21.66 19.2475 22.32 19.495 23 19.75 C26 21 26 21 29.5 22.875 C45.38121574 30.845237 63.05051822 32.49625446 80.5 32.1875 C82.01691347 32.17239259 83.53384186 32.15871513 85.05078125 32.14648438 C88.70084086 32.11403454 92.35031777 32.06260451 96 32 C96 32.33 96 32.66 96 33 C89.35958878 34.22399452 82.79778303 34.11227753 76.0625 34.0625 C74.90169922 34.05798828 73.74089844 34.05347656 72.54492188 34.04882812 C69.69656066 34.03710647 66.84830778 34.0206976 64 34 C64 34.99 64 35.98 64 37 C74.89 37.495 74.89 37.495 86 38 C86 38.33 86 38.66 86 39 C81.43259767 39.10056098 76.86587046 39.17224436 72.29760742 39.21972656 C70.75094347 39.23956584 69.20435161 39.2666464 67.65795898 39.30175781 C56.67626613 39.54444716 47.49382807 38.31148692 37 35 C35.2938219 34.55416895 33.58595178 34.1146452 31.875 33.6875 C25.47225845 31.73466383 19.76830583 28.33491633 14 25 C13.14019531 24.50628906 12.28039062 24.01257813 11.39453125 23.50390625 C9.55302567 22.40552151 7.76792118 21.21327924 6 20 C6 19.34 6 18.68 6 18 C5.1028125 17.566875 5.1028125 17.566875 4.1875 17.125 C2 16 2 16 -1 14 C-1.43132515 9.94554358 -1.30019361 8.45029042 1 5 C0.6878236 2.35367713 0.6878236 2.35367713 0 0 Z " fill="#3D414B" transform="translate(82,216)"/>
<path d="M0 0 C-0.99 0.33 -1.98 0.66 -3 1 C-3 1.66 -3 2.32 -3 3 C-3.99 3 -4.98 3 -6 3 C-6.165 3.680625 -6.33 4.36125 -6.5 5.0625 C-8.37542421 8.73520574 -10.8278991 10.62056664 -13.96875 13.2265625 C-15.80148046 14.82667717 -17.29687041 16.41796301 -18.8125 18.3125 C-21 21 -21 21 -24 23 C-24 23.99 -24 24.98 -24 26 C-25.46875 27.5078125 -25.46875 27.5078125 -27.5 29.125 C-31.52943157 32.46857088 -34.82440854 36.13719223 -38.140625 40.1796875 C-40.17600286 42.17230532 -41.26958138 42.47858536 -44 43 C-46.65190867 45.34883339 -48.90810891 47.89566532 -51.25 50.5546875 C-52.4565625 51.91980469 -52.4565625 51.91980469 -53.6875 53.3125 C-54.45449219 54.19550781 -55.22148438 55.07851562 -56.01171875 55.98828125 C-56.66785156 56.65214844 -57.32398437 57.31601563 -58 58 C-58.66 58 -59.32 58 -60 58 C-60.33 58.99 -60.66 59.98 -61 61 C-61.33 60.34 -61.66 59.68 -62 59 C-61.67 58.01 -61.34 57.02 -61 56 C-60.34 56 -59.68 56 -59 56 C-58.7834375 54.824375 -58.7834375 54.824375 -58.5625 53.625 C-58 51 -58 51 -57 49 C-56.34 49 -55.68 49 -55 49 C-54.76925781 48.154375 -54.53851563 47.30875 -54.30078125 46.4375 C-52.78297494 42.42648032 -50.72418335 39.42209417 -48.1875 36 C-47.76146484 35.40960938 -47.33542969 34.81921875 -46.89648438 34.2109375 C-42.9985738 28.85647033 -38.9442002 23.43273122 -34 19 C-33.34 19 -32.68 19 -32 19 C-32 18.34 -32 17.68 -32 17 C-31.34 17 -30.68 17 -30 17 C-30 16.34 -30 15.68 -30 15 C-28.12890625 13.484375 -28.12890625 13.484375 -25.5625 11.75 C-24.64726563 11.13125 -23.73203125 10.5125 -22.7890625 9.875 C-21.86867187 9.25625 -20.94828125 8.6375 -20 8 C-19.22398438 7.443125 -18.44796875 6.88625 -17.6484375 6.3125 C-5.10468521 -2.55234261 -5.10468521 -2.55234261 0 0 Z " fill="#494C57" transform="translate(129,27)"/>
<path d="M0 0 C0.495 2.475 0.495 2.475 1 5 C0.01 5.33 -0.98 5.66 -2 6 C-2 6.66 -2 7.32 -2 8 C-3.87109375 9.296875 -3.87109375 9.296875 -6.4375 10.75 C-7.34371094 11.28109375 -8.24992187 11.8121875 -9.18359375 12.359375 C-10.11300781 12.90078125 -11.04242188 13.4421875 -12 14 C-18.43880499 17.55838816 -18.43880499 17.55838816 -22.5625 23.375 C-22.706875 24.24125 -22.85125 25.1075 -23 26 C-22.34 26 -21.68 26 -21 26 C-21 26.66 -21 27.32 -21 28 C-20.41992188 28.18175781 -19.83984375 28.36351562 -19.2421875 28.55078125 C-14.60852707 30.0418106 -10.30237645 31.68333576 -6 34 C-6 34.66 -6 35.32 -6 36 C-5.1028125 36.433125 -5.1028125 36.433125 -4.1875 36.875 C-2 38 -2 38 1 40 C0.67 41.32 0.34 42.64 0 44 C-5.58294001 43.42739077 -10.0110541 41.40688077 -15 39 C-15.97839844 38.53078125 -16.95679688 38.0615625 -17.96484375 37.578125 C-20.99954698 36.09330173 -24.002171 34.55773523 -27 33 C-28.25876953 32.38125 -28.25876953 32.38125 -29.54296875 31.75 C-31.61692863 30.63409946 -33.32083543 29.65054244 -35 28 C-35.75 24.4375 -35.75 24.4375 -35 21 C-32.78136971 18.09282927 -31.48055071 17.16018357 -28 16 C-27.67 15.34 -27.34 14.68 -27 14 C-26.34 14 -25.68 14 -25 14 C-25 13.34 -25 12.68 -25 12 C-23.34765625 10.703125 -23.34765625 10.703125 -21.0625 9.25 C-18.54045112 7.64254028 -16.05720631 6.04193232 -13.64453125 4.2734375 C-8.83666505 0.78132126 -5.97118566 -0.76227902 0 0 Z " fill="#393E49" transform="translate(223,102)"/>
<path d="M0 0 C10.58984729 6.13096422 17.68328506 15.76583737 24 26 C24.58007812 26.88042969 25.16015625 27.76085937 25.7578125 28.66796875 C29.22944259 34.0766678 30.97543347 38.64768753 32 45 C32.66 45 33.32 45 34 45 C34.67286212 47.41509441 35.33846012 49.83180356 36 52.25 C36.19078125 52.93191406 36.3815625 53.61382812 36.578125 54.31640625 C37.49957044 57.70600912 38 60.45778976 38 64 C34.535 64.495 34.535 64.495 31 65 C31 73.91 31 82.82 31 92 C30.67 92 30.34 92 30 92 C29.98018066 91.43716309 29.96036133 90.87432617 29.93994141 90.29443359 C29.51454891 69.93841928 29.51454891 69.93841928 24.8359375 50.265625 C24.21734617 48.58906907 23.67060995 46.88561497 23.1640625 45.171875 C20.91304044 37.66846812 17.76320555 31.25317378 13 25 C12.34 24.67 11.68 24.34 11 24 C10.67 23.01 10.34 22.02 10 21 C9.01 20.34 8.02 19.68 7 19 C6.8125 16.625 6.8125 16.625 7 14 C7.44664301 9.91964953 7.44664301 9.91964953 4.6875 7.4375 C3.800625 6.633125 2.91375 5.82875 2 5 C1 4 0 3 -1 2 C-0.67 1.34 -0.34 0.68 0 0 Z " fill="#383C46" transform="translate(241,46)"/>
<path d="M0 0 C0.66 0.33 1.32 0.66 2 1 C-0.22222392 5.08889201 -1.29408826 6.7411657 -5.75 8.375 C-6.8225 8.58125 -7.895 8.7875 -9 9 C-8.505 10.98 -8.505 10.98 -8 13 C-7.34 12.01 -6.68 11.02 -6 10 C-4.68 10.66 -3.36 11.32 -2 12 C-2 11.34 -2 10.68 -2 10 C-1.01 10 -0.02 10 1 10 C1.0825 9.21625 1.165 8.4325 1.25 7.625 C2 5 2 5 4.0625 3.6875 C4.701875 3.460625 5.34125 3.23375 6 3 C6.99 5.475 6.99 5.475 8 8 C0.31096554 14.87105207 -6.96666835 20.24838396 -17 23 C-18.051875 23.34933594 -19.10375 23.69867188 -20.1875 24.05859375 C-24.68281489 25.16860491 -28.76705282 25.33090234 -33.375 25.3125 C-34.17421875 25.32861328 -34.9734375 25.34472656 -35.796875 25.36132812 C-41.68342187 25.3660907 -46.53824187 24.16163922 -52 22 C-51.67 21.01 -51.34 20.02 -51 19 C-53.64 19 -56.28 19 -59 19 C-56.7200031 16.39140044 -54.92185398 15.08480846 -51.43115234 14.76367188 C-48.33677655 14.83126373 -45.27345336 15.01247396 -42.1875 15.25 C-41.11306641 15.31574219 -40.03863281 15.38148438 -38.93164062 15.44921875 C-36.28592339 15.61384116 -33.64308492 15.79802931 -31 16 C-31 15.34 -31 14.68 -31 14 C-29.83984375 13.85304687 -29.83984375 13.85304687 -28.65625 13.703125 C-17.73898686 12.13579514 -7.93817195 7.93817195 0 0 Z " fill="#2B323D" transform="translate(199,198)"/>
<path d="M0 0 C0.33 0.66 0.66 1.32 1 2 C1.99 2 2.98 2 4 2 C6.42137989 20.25798546 6.88289419 40.35131742 1 58 C-0.65 57.67 -2.3 57.34 -4 57 C-4.33 57.66 -4.66 58.32 -5 59 C-6.51171875 57.8671875 -6.51171875 57.8671875 -8 56 C-8.14453125 53.3203125 -8.14453125 53.3203125 -7.8125 50.125 C-7.71582031 49.09632813 -7.61914062 48.06765625 -7.51953125 47.0078125 C-7.25047038 44.70691009 -6.90291909 42.44173679 -6.50585938 40.15844727 C-5.09871437 31.93027954 -4.75647783 24.02507897 -4.875 15.6875 C-4.88402344 14.45837891 -4.89304687 13.22925781 -4.90234375 11.96289062 C-4.92559547 8.97504456 -4.95826877 5.98763516 -5 3 C-3.35 2.67 -1.7 2.34 0 2 C0 1.34 0 0.68 0 0 Z " fill="#2C313D" transform="translate(276,108)"/>
<path d="M0 0 C7.96974421 0.83018169 13.7797793 2.86831792 20 8 C21.23546343 8.65326496 22.48734247 9.27598334 23.75 9.875 C26.92934549 11.42220057 29.9867382 13.08500729 33 14.9375 C33.763125 15.40027344 34.52625 15.86304687 35.3125 16.33984375 C37 18 37 18 37.46875 20.484375 C36.88653284 23.60894044 35.98880766 24.40145126 33.5 26.3125 C32.8503125 26.82425781 32.200625 27.33601563 31.53125 27.86328125 C31.0259375 28.23839844 30.520625 28.61351562 30 29 C30.103125 28.29875 30.20625 27.5975 30.3125 26.875 C29.75370242 21.73406228 25.95035248 18.80251988 22.1875 15.625 C21.1046875 14.820625 21.1046875 14.820625 20 14 C20 14.99 20 15.98 20 17 C11.67981123 14.50394337 5.32553529 10.93018934 -1 5 C-0.67 3.35 -0.34 1.7 0 0 Z " fill="#585D66" transform="translate(113,101)"/>
<path d="M0 0 C10.58303008 6.12701742 17.69881138 15.76224791 24 26 C24.61488281 26.96164063 25.22976563 27.92328125 25.86328125 28.9140625 C29.03724478 33.97781121 29.03724478 33.97781121 30 36 C29.67 36.66 29.34 37.32 29 38 C28.01 37.34 27.02 36.68 26 36 C23.35367713 36.3121764 23.35367713 36.3121764 21 37 C20.61328125 36.39671875 20.2265625 35.7934375 19.828125 35.171875 C17.14000203 31.04653777 14.55868815 27.42688489 11 24 C10.67 23.01 10.34 22.02 10 21 C9.01 20.34 8.02 19.68 7 19 C6.8125 16.625 6.8125 16.625 7 14 C7.44664301 9.91964953 7.44664301 9.91964953 4.6875 7.4375 C3.800625 6.633125 2.91375 5.82875 2 5 C1 4 0 3 -1 2 C-0.67 1.34 -0.34 0.68 0 0 Z " fill="#333841" transform="translate(241,46)"/>
<path d="M0 0 C16.29687257 3.50079916 32.48867548 3.05972674 49.05493164 2.66503906 C49.05493164 2.99503906 49.05493164 3.32503906 49.05493164 3.66503906 C42.41452042 4.88903358 35.85271467 4.77731659 29.11743164 4.72753906 C27.95663086 4.72302734 26.79583008 4.71851563 25.59985352 4.71386719 C22.7514923 4.70214554 19.90323942 4.68573666 17.05493164 4.66503906 C17.05493164 5.65503906 17.05493164 6.64503906 17.05493164 7.66503906 C27.94493164 8.16003906 27.94493164 8.16003906 39.05493164 8.66503906 C39.05493164 8.99503906 39.05493164 9.32503906 39.05493164 9.66503906 C34.48752931 9.76560004 29.9208021 9.83728342 25.35253906 9.88476562 C23.80587511 9.90460491 22.25928325 9.93168546 20.71289062 9.96679688 C9.73626744 10.20937418 0.5396241 8.99772165 -9.94506836 5.66503906 C-11.90132636 5.11592445 -13.85926527 4.57269605 -15.82006836 4.04003906 C-18.18725586 3.37597656 -18.18725586 3.37597656 -19.94506836 2.66503906 C-20.27506836 2.00503906 -20.60506836 1.34503906 -20.94506836 0.66503906 C-16.49006836 1.65503906 -16.49006836 1.65503906 -11.94506836 2.66503906 C-11.94506836 1.67503906 -11.94506836 0.68503906 -11.94506836 -0.33496094 C-7.63479354 -1.75093965 -4.29344059 -0.92590108 0 0 Z " fill="#565C64" transform="translate(128.945068359375,245.3349609375)"/>
<path d="M0 0 C-0.33 0.99 -0.66 1.98 -1 3 C-1.66 3 -2.32 3 -3 3 C-3 3.66 -3 4.32 -3 5 C-10.071262 8.535631 -21.16132365 7.1625532 -29 7 C-29.33 9.64 -29.66 12.28 -30 15 C-31.98 15.33 -33.96 15.66 -36 16 C-39.5058565 11.50812136 -40.55913813 8.70320894 -40 3 C-35.78910951 -1.21089049 -21.20872207 0.63175806 -15.5625 0.4375 C-13.80776367 0.37272461 -13.80776367 0.37272461 -12.01757812 0.30664062 C-3.57279266 0 -3.57279266 0 0 0 Z " fill="#2A2F39" transform="translate(147,178)"/>
<path d="M0 0 C1.01037827 0.00222061 2.02075653 0.00444122 3.06175232 0.00672913 C4.77341331 0.00684242 4.77341331 0.00684242 6.51965332 0.00695801 C7.76129745 0.01211929 9.00294159 0.01728058 10.2822113 0.02259827 C12.17785072 0.02472069 12.17785072 0.02472069 14.11178589 0.02688599 C17.47705394 0.0315487 20.84225495 0.04053972 24.20750427 0.05158997 C27.63930175 0.06180606 31.07110614 0.06638403 34.50291443 0.07142639 C41.2405633 0.08248071 47.9781803 0.09923742 54.71580505 0.12025452 C54.71580505 0.45025452 54.71580505 0.78025452 54.71580505 1.12025452 C53.06580505 1.12025452 51.41580505 1.12025452 49.71580505 1.12025452 C50.21080505 2.60525452 50.21080505 2.60525452 50.71580505 4.12025452 C49.71580505 5.12025452 49.71580505 5.12025452 47.73532104 5.24050903 C46.86706192 5.23828842 45.9988028 5.23606781 45.10423279 5.23377991 C44.12329147 5.23370438 43.14235016 5.23362885 42.13168335 5.23355103 C41.06502945 5.22838974 39.99837555 5.22322845 38.8993988 5.21791077 C37.27011192 5.21578835 37.27011192 5.21578835 35.60791016 5.21362305 C32.1230143 5.208005 28.63818164 5.19544944 25.15330505 5.18275452 C22.79718619 5.17774184 20.44106632 5.17317853 18.08494568 5.16908264 C12.29521041 5.15802971 6.50551224 5.14127403 0.71580505 5.12025452 C0.71580505 4.46025452 0.71580505 3.80025452 0.71580505 3.12025452 C-0.60419495 2.46025452 -1.92419495 1.80025452 -3.28419495 1.12025452 C-2.28419495 0.12025452 -2.28419495 0.12025452 0 0 Z " fill="#292D36" transform="translate(156.28419494628906,177.87974548339844)"/>
<path d="M0 0 C-0.33 1.32 -0.66 2.64 -1 4 C-1.66 4 -2.32 4 -3 4 C-3 4.99 -3 5.98 -3 7 C-5.78537529 10.17223296 -8.27173016 12.13586508 -12 14 C-12.33 14.99 -12.66 15.98 -13 17 C-14.4375 18.6875 -14.4375 18.6875 -16 20 C-16.66 20 -17.32 20 -18 20 C-18 20.66 -18 21.32 -18 22 C-18.66 22 -19.32 22 -20 22 C-20 22.66 -20 23.32 -20 24 C-20.66 24 -21.32 24 -22 24 C-22.33 24.99 -22.66 25.98 -23 27 C-24.32 26.34 -25.64 25.68 -27 25 C-27.27142948 21.99861635 -27.30059873 20.45343124 -25.609375 17.90234375 C-24.68898438 16.92974609 -24.68898438 16.92974609 -23.75 15.9375 C-23.11191406 15.25558594 -22.47382812 14.57367188 -21.81640625 13.87109375 C-21.21699219 13.25363281 -20.61757812 12.63617188 -20 12 C-19.236875 11.175 -18.47375 10.35 -17.6875 9.5 C-16 8 -16 8 -14 8 C-14 7.34 -14 6.68 -14 6 C-13.34 6 -12.68 6 -12 6 C-12 5.34 -12 4.68 -12 4 C-8.33686245 0.74387773 -4.82359047 -1.60786349 0 0 Z " fill="#282C37" transform="translate(111,38)"/>
<path d="M0 0 C0.66 1.32 1.32 2.64 2 4 C1.2265625 4.86625 1.2265625 4.86625 0.4375 5.75 C-1.23501102 7.8649851 -1.23501102 7.8649851 -0.8125 10.1875 C-0.14365117 12.1920235 -0.14365117 12.1920235 2 13 C0.50923566 16.2826932 -1.38620321 18.93077441 -3.625 21.75 C-4.25664062 22.54921875 -4.88828125 23.3484375 -5.5390625 24.171875 C-6.02117187 24.77515625 -6.50328125 25.3784375 -7 26 C-7.66 25.01 -8.32 24.02 -9 23 C-8.34 22.67 -7.68 22.34 -7 22 C-9.9042893 22.10792821 -9.9042893 22.10792821 -13 23 C-14.77148372 25.47933197 -14.77148372 25.47933197 -16 28 C-16.66 28 -17.32 28 -18 28 C-18.33 27.34 -18.66 26.68 -19 26 C-19.99 26 -20.98 26 -22 26 C-20.88121617 24.82737096 -19.75476949 23.66204862 -18.625 22.5 C-17.99851563 21.8503125 -17.37203125 21.200625 -16.7265625 20.53125 C-15 19 -15 19 -13 19 C-12.7628125 18.46503906 -12.525625 17.93007812 -12.28125 17.37890625 C-10.63526646 14.32279656 -8.60558672 11.69595532 -6.5 8.9375 C-4.2572291 5.99204276 -2.05368788 3.08053182 0 0 Z " fill="#333843" transform="translate(253,196)"/>
<path d="M0 0 C2.26185454 2.26185454 3.03921617 3.96983561 4 7 C3 10 3 10 1 13 C1.33 13.99 1.66 14.98 2 16 C0.890625 18.375 0.890625 18.375 -0.75 21 C-1.28109375 21.86625 -1.8121875 22.7325 -2.359375 23.625 C-3.77670819 25.67675853 -5.1682778 27.32276039 -7 29 C-8.32 27.68 -9.64 26.36 -11 25 C-10 23 -9 21 -8 19 C-8.103125 18.175 -8.20625 17.35 -8.3125 16.5 C-7.74624062 10.15789496 -3.4624112 5.1936168 0 0 Z " fill="#323641" transform="translate(262,181)"/>
<path d="M0 0 C0.66 0 1.32 0 2 0 C2.66 0.99 3.32 1.98 4 3 C4.99 2.34 5.98 1.68 7 1 C13.30487805 5.82926829 13.30487805 5.82926829 14 10 C14.98020375 11.0194119 15.97803008 12.02246356 17 13 C17 13.66 17 14.32 17 15 C18.32 15.66 19.64 16.32 21 17 C21 18.32 21 19.64 21 21 C20.34 21.66 19.68 22.32 19 23 C18.19949219 22.25556641 18.19949219 22.25556641 17.3828125 21.49609375 C12.46357501 17.01090663 7.44251441 13.0917522 1.87109375 9.4453125 C1.25363281 8.96835937 0.63617188 8.49140625 0 8 C0 7.34 0 6.68 0 6 C-0.66 5.67 -1.32 5.34 -2 5 C-1.34 3.35 -0.68 1.7 0 0 Z " fill="#353B45" transform="translate(228,39)"/>
<path d="M0 0 C0.66 0.33 1.32 0.66 2 1 C-0.22222392 5.08889201 -1.29408826 6.7411657 -5.75 8.375 C-6.8225 8.58125 -7.895 8.7875 -9 9 C-8.67 10.32 -8.34 11.64 -8 13 C-7.34 12.01 -6.68 11.02 -6 10 C-4.68 10.66 -3.36 11.32 -2 12 C-2 11.34 -2 10.68 -2 10 C-1.01 10 -0.02 10 1 10 C1.0825 9.21625 1.165 8.4325 1.25 7.625 C2 5 2 5 4.0625 3.6875 C5.0215625 3.3471875 5.0215625 3.3471875 6 3 C6.66 4.65 7.32 6.3 8 8 C4.25309977 11.34829382 0.44103979 14.54411848 -3.625 17.5 C-4.33914062 18.0259375 -5.05328125 18.551875 -5.7890625 19.09375 C-8 20 -8 20 -10.5859375 19.21875 C-11.38257813 18.8165625 -12.17921875 18.414375 -13 18 C-13.99 17.67 -14.98 17.34 -16 17 C-14.68 15.68 -13.36 14.36 -12 13 C-12.66 12.01 -13.32 11.02 -14 10 C-13.24074219 9.52949219 -12.48148438 9.05898437 -11.69921875 8.57421875 C-10.70535156 7.95160156 -9.71148437 7.32898438 -8.6875 6.6875 C-7.70136719 6.07261719 -6.71523437 5.45773438 -5.69921875 4.82421875 C-3.49827965 3.33675339 -1.76671012 1.9596614 0 0 Z " fill="#303742" transform="translate(199,198)"/>
<path d="M0 0 C-0.66 0 -1.32 0 -2 0 C-1.6596875 1.5159375 -1.6596875 1.5159375 -1.3125 3.0625 C-2 7 -2 7 -4.1328125 9.0234375 C-10.29104039 13.22612784 -14.58940798 14.85039581 -22 14 C-22.5703125 12.09765625 -22.5703125 12.09765625 -23 10 C-18.73065479 4.07035387 -11.72538982 3.1100158 -5 2 C-5.33 1.34 -5.66 0.68 -6 0 C-3 -1 -3 -1 0 0 Z " fill="#343741" transform="translate(130,133)"/>
<path d="M0 0 C5.09233843 0.39171834 8.50303401 2.26837947 12.80859375 4.7890625 C15.44263931 6.2445957 18.10805655 7.18432364 21 8 C21 8.66 21 9.32 21 10 C19.35 10 17.7 10 16 10 C16 10.99 16 11.98 16 13 C11.13103697 12.40380045 6.67209049 11.43023178 2 10 C2 8.68 2 7.36 2 6 C0.68 6 -0.64 6 -2 6 C-2.33 5.01 -2.66 4.02 -3 3 C-2.34 3 -1.68 3 -1 3 C-0.67 2.01 -0.34 1.02 0 0 Z " fill="#30343D" transform="translate(101,235)"/>
<path d="M0 0 C6.47438213 0.27550562 11.37809659 2.93453556 17 6 C17 6.66 17 7.32 17 8 C17.8971875 8.433125 17.8971875 8.433125 18.8125 8.875 C21 10 21 10 24 12 C23.67 13.32 23.34 14.64 23 16 C17.63148139 15.44938271 12.55936368 13.92341365 8 11 C7.25 8.375 7.25 8.375 7 6 C4.62374655 4.81608777 4.62374655 4.81608777 2 4 C0.1875 2.375 0.1875 2.375 -1 1 C-0.67 0.67 -0.34 0.34 0 0 Z " fill="#3E434C" transform="translate(200,130)"/>
<path d="M0 0 C0.763125 0.20625 1.52625 0.4125 2.3125 0.625 C1.6525 1.285 0.9925 1.945 0.3125 2.625 C0.3125 3.615 0.3125 4.605 0.3125 5.625 C-0.3475 5.625 -1.0075 5.625 -1.6875 5.625 C-2.04714844 6.51251953 -2.04714844 6.51251953 -2.4140625 7.41796875 C-3.94723785 10.07515915 -5.52255209 11.23716942 -8.0625 12.9375 C-8.83335937 13.46988281 -9.60421875 14.00226563 -10.3984375 14.55078125 C-12.6875 15.625 -12.6875 15.625 -14.8515625 15.41796875 C-16.6875 14.625 -16.6875 14.625 -18.6875 12.625 C-18.3575 11.965 -18.0275 11.305 -17.6875 10.625 C-17.0275 10.625 -16.3675 10.625 -15.6875 10.625 C-15.5946875 9.449375 -15.5946875 9.449375 -15.5 8.25 C-15.231875 7.38375 -14.96375 6.5175 -14.6875 5.625 C-12.125 4.3125 -12.125 4.3125 -9.6875 3.625 C-9.6875 4.615 -9.6875 5.605 -9.6875 6.625 C-9.0275 6.625 -8.3675 6.625 -7.6875 6.625 C-7.419375 5.84125 -7.15125 5.0575 -6.875 4.25 C-5.2732531 0.70929632 -3.95286172 -0.5515621 0 0 Z " fill="#2A303C" transform="translate(244.6875,217.375)"/>
<path d="M0 0 C2.33595238 0.31445513 4.66905466 0.6503582 7 1 C7.7425 1.0825 8.485 1.165 9.25 1.25 C11.97537187 2.41801652 12.73717695 4.41121275 14 7 C14 7.66 14 8.32 14 9 C15.32 9.33 16.64 9.66 18 10 C17.67 11.32 17.34 12.64 17 14 C16.01 13.67 15.02 13.34 14 13 C13.36191406 12.85304688 12.72382812 12.70609375 12.06640625 12.5546875 C9.86006147 11.96243616 7.98175832 11.1412209 5.9375 10.125 C4.93009766 9.63386719 4.93009766 9.63386719 3.90234375 9.1328125 C1.89476869 7.93733659 0.46497718 6.82194947 -1 5 C-0.6875 2.3125 -0.6875 2.3125 0 0 Z " fill="#35393F" transform="translate(113,101)"/>
<path d="M0 0 C1.89213369 2.38573379 3.02391783 4.07175348 4 7 C3.01 7.33 2.02 7.66 1 8 C1.66 8.66 2.32 9.32 3 10 C1.68 10 0.36 10 -1 10 C-1 9.34 -1 8.68 -1 8 C-3.52588702 10.36292656 -4.88820837 11.66462511 -6 15 C-6.99 15 -7.98 15 -9 15 C-9 15.66 -9 16.32 -9 17 C-10.32 16.67 -11.64 16.34 -13 16 C-13 16.66 -13 17.32 -13 18 C-13.99 18.33 -14.98 18.66 -16 19 C-16.33 17.35 -16.66 15.7 -17 14 C-16.06027344 13.63648438 -16.06027344 13.63648438 -15.1015625 13.265625 C-14.28429687 12.93046875 -13.46703125 12.5953125 -12.625 12.25 C-11.81289062 11.92515625 -11.00078125 11.6003125 -10.1640625 11.265625 C-7.61142372 9.772746 -7.09931161 8.69177234 -6 6 C-5.34 5.01 -4.68 4.02 -4 3 C-3.01 3 -2.02 3 -1 3 C-0.67 2.01 -0.34 1.02 0 0 Z " fill="#292D39" transform="translate(206,193)"/>
<path d="M0 0 C8.91 0 17.82 0 27 0 C26.67 0.99 26.34 1.98 26 3 C22.98473848 4.18262998 20.00443939 4.11630488 16.796875 4.09765625 C15.8171875 4.09443359 14.8375 4.09121094 13.828125 4.08789062 C12.81234375 4.07951172 11.7965625 4.07113281 10.75 4.0625 C9.203125 4.05573242 9.203125 4.05573242 7.625 4.04882812 C5.08327427 4.03706088 2.54166681 4.02062011 0 4 C-0.33 3.34 -0.66 2.68 -1 2 C-0.67 1.34 -0.34 0.68 0 0 Z " fill="#292F36" transform="translate(146,250)"/>
<path d="M0 0 C7.15325866 1.30059248 13.65157937 5.12582356 19 10 C19.34765625 12.76171875 19.34765625 12.76171875 19 15 C17.234375 15.70703125 17.234375 15.70703125 15 16 C13.078125 14.63671875 13.078125 14.63671875 11.25 12.6875 C10.63640625 12.05199219 10.0228125 11.41648437 9.390625 10.76171875 C8 9 8 9 8 7 C7.34 7 6.68 7 6 7 C6 6.34 6 5.68 6 5 C5.38125 4.731875 4.7625 4.46375 4.125 4.1875 C2 3 2 3 0 0 Z " fill="#303641" transform="translate(131,109)"/>
<path d="M0 0 C3.465 1.485 3.465 1.485 7 3 C7 3.66 7 4.32 7 5 C5.66666667 6.33333333 4.33333333 7.66666667 3 9 C3 9.66 3 10.32 3 11 C4.32 11 5.64 11 7 11 C7 11.99 7 12.98 7 14 C1.19657726 12.51194289 -3.17590879 9.40902445 -8 6 C-5.33333333 4 -2.66666667 2 0 0 Z " fill="#3D424B" transform="translate(96,230)"/>
<path d="M0 0 C5.19209404 -0.21192221 9.126739 0.4087311 14 2 C13.67 3.32 13.34 4.64 13 6 C12.01 6 11.02 6 10 6 C10 6.66 10 7.32 10 8 C8.58297487 7.85769192 7.1663904 7.71099254 5.75 7.5625 C4.56664062 7.44068359 4.56664062 7.44068359 3.359375 7.31640625 C1.17635361 7.02365007 -0.8773182 6.57935581 -3 6 C-3 5.34 -3 4.68 -3 4 C-1.68 3.67 -0.36 3.34 1 3 C0.34 3 -0.32 3 -1 3 C-0.67 2.01 -0.34 1.02 0 0 Z " fill="#282E38" transform="translate(190,24)"/>
<path d="M0 0 C1.125 3.75 1.125 3.75 0 6 C-0.66 6 -1.32 6 -2 6 C-2 6.66 -2 7.32 -2 8 C-0.68 8.33 0.64 8.66 2 9 C1.34 9 0.68 9 0 9 C0 9.66 0 10.32 0 11 C-0.66 11 -1.32 11 -2 11 C-2 11.66 -2 12.32 -2 13 C-2.66 13 -3.32 13 -4 13 C-4.33 13.99 -4.66 14.98 -5 16 C-6.32 15.34 -7.64 14.68 -9 14 C-9.29087708 10.91885755 -9.27590027 9.41606352 -7.5390625 6.796875 C-6.59160156 5.78367187 -6.59160156 5.78367187 -5.625 4.75 C-4.99851562 4.06421875 -4.37203125 3.3784375 -3.7265625 2.671875 C-2 1 -2 1 0 0 Z " fill="#2E323B" transform="translate(93,49)"/>
<path d="M0 0 C2.375 0.25 2.375 0.25 5 1 C6.1875 2.8125 6.1875 2.8125 7 5 C8.1073478 7.68927323 8.58138675 8.75375691 11.125 10.25 C11.74375 10.4975 12.3625 10.745 13 11 C13 12.32 13 13.64 13 15 C12.34 15.66 11.68 16.32 11 17 C9.80040625 15.74057614 8.61560557 14.46704714 7.4375 13.1875 C6.44556641 12.12595703 6.44556641 12.12595703 5.43359375 11.04296875 C4.72396484 10.03169922 4.72396484 10.03169922 4 9 C4.33 8.01 4.66 7.02 5 6 C3.68 6.33 2.36 6.66 1 7 C-0.0625 4.625 -0.0625 4.625 -1 2 C-0.67 1.34 -0.34 0.68 0 0 Z " fill="#292D37" transform="translate(236,45)"/>
<path d="M0 0 C8.63026206 4.99646751 15.59035683 12.7052138 21 21 C20.67 21.66 20.34 22.32 20 23 C19.29875 22.278125 18.5975 21.55625 17.875 20.8125 C16.02105913 18.94814374 14.18818842 17.34702112 12.125 15.6875 C8.90614803 13.06750421 6.28892711 10.02875526 3.61328125 6.8671875 C2.14080217 5.16296232 0.61363306 3.56975784 -1 2 C-0.67 1.34 -0.34 0.68 0 0 Z " fill="#50525B" transform="translate(241,46)"/>
<path d="M0 0 C1.32 0.66 2.64 1.32 4 2 C3.01 3.485 3.01 3.485 2 5 C2 5.33 2 5.66 2 6 C3.32 6.66 4.64 7.32 6 8 C2.1620259 10.14212508 -0.57518555 11.5672839 -5 11 C-7.8125 10 -7.8125 10 -10 9 C-10 8.67 -10 8.34 -10 8 C-9.21625 7.938125 -8.4325 7.87625 -7.625 7.8125 C-6.75875 7.544375 -5.8925 7.27625 -5 7 C-3.62533375 4.52363988 -3.62533375 4.52363988 -3 2 C-2.01 2 -1.02 2 0 2 C0 1.34 0 0.68 0 0 Z " fill="#272D38" transform="translate(184,209)"/>
<path d="M0 0 C4.50066475 1.06795435 8.7494534 2.14038586 13 4 C13 4.33 13 4.66 13 5 C5.67753847 6.97572514 -0.50156373 8.61730978 -8 7 C-6.68 6.67 -5.36 6.34 -4 6 C-4 5.34 -4 4.68 -4 4 C-3.01 3.67 -2.02 3.34 -1 3 C-0.67 2.01 -0.34 1.02 0 0 Z " fill="#353944" transform="translate(204,26)"/>
<path d="M0 0 C-0.99 0.66 -1.98 1.32 -3 2 C-2.01 2.66 -1.02 3.32 0 4 C0 4.66 0 5.32 0 6 C-1.65 6 -3.3 6 -5 6 C-5 6.66 -5 7.32 -5 8 C-9.455 8.495 -9.455 8.495 -14 9 C-14 8.01 -14 7.02 -14 6 C-13.34 6 -12.68 6 -12 6 C-12 5.01 -12 4.02 -12 3 C-10.3789897 2.30314502 -8.75303934 1.61777139 -7.125 0.9375 C-6.22007812 0.55464844 -5.31515625 0.17179688 -4.3828125 -0.22265625 C-2 -1 -2 -1 0 0 Z " fill="#41464E" transform="translate(201,242)"/>
<path d="M0 0 C1.65 1.32 3.3 2.64 5 4 C4.42655063 6.86724686 4.1385485 7.8614515 2 10 C1.67 10.66 1.34 11.32 1 12 C0.34 12 -0.32 12 -1 12 C-1 10.68 -1 9.36 -1 8 C-1.99 8 -2.98 8 -4 8 C-4.33 6.02 -4.66 4.04 -5 2 C-3.35 1.34 -1.7 0.68 0 0 Z " fill="#30333D" transform="translate(267,81)"/>
<path d="M0 0 C0 0.99 0 1.98 0 3 C-0.66 3 -1.32 3 -2 3 C-1.67 4.65 -1.34 6.3 -1 8 C-2.98 8.99 -2.98 8.99 -5 10 C-5.5534764 7.92446352 -6 6.15634036 -6 4 C-6.99 5.485 -6.99 5.485 -8 7 C-9.9453125 7.51171875 -9.9453125 7.51171875 -12.125 7.6875 C-14.043125 7.8421875 -14.043125 7.8421875 -16 8 C-11.26790219 2.90389466 -7.23125277 -0.68869074 0 0 Z " fill="#333A3F" transform="translate(133,129)"/>
<path d="M0 0 C2.69082872 0.17635452 5.32851446 0.61835921 8 1 C8 5 8 5 6.25 6.8125 C4 8 4 8 1.75 7.6875 C1.1725 7.460625 0.595 7.23375 0 7 C-0.38133299 5.0085944 -0.71325582 3.00720923 -1 1 C-0.67 0.67 -0.34 0.34 0 0 Z " fill="#2A303C" transform="translate(87,227)"/>
<path d="M0 0 C-0.66 0 -1.32 0 -2 0 C-2 2.31 -2 4.62 -2 7 C-6.02784093 8.15081169 -8.28098293 7.96281457 -12 6 C-12.33 5.34 -12.66 4.68 -13 4 C-10.36 3.34 -7.72 2.68 -5 2 C-5.33 1.34 -5.66 0.68 -6 0 C-3 -1 -3 -1 0 0 Z " fill="#292E39" transform="translate(130,133)"/>
<path d="M0 0 C4.73132555 0.36394812 8.18343542 1.1086632 12 4 C12 4.66 12 5.32 12 6 C11.01 6 10.02 6 9 6 C9.33 7.32 9.66 8.64 10 10 C9.01 9.67 8.02 9.34 7 9 C7 8.01 7 7.02 7 6 C5.8553125 5.5978125 5.8553125 5.5978125 4.6875 5.1875 C2.12619116 4.05575888 0.80307062 3.08776599 -1 1 C-0.67 0.67 -0.34 0.34 0 0 Z " fill="#2C303A" transform="translate(200,130)"/>
<path d="M0 0 C0.66 0.33 1.32 0.66 2 1 C3.99960012 1.039992 6.00047242 1.04346799 8 1 C4.39299028 5.23431576 -0.14586161 7.4692099 -5 10 C-5.33 9.01 -5.66 8.02 -6 7 C-4.1875 4.3125 -4.1875 4.3125 -2 2 C-1.34 2 -0.68 2 0 2 C0 1.34 0 0.68 0 0 Z " fill="#333641" transform="translate(206,112)"/>
<path d="M0 0 C2 3.75 2 3.75 2 6 C1.401875 6.226875 0.80375 6.45375 0.1875 6.6875 C-2.5551169 8.33307014 -3.41968093 10.27035797 -5 13 C-5.66 13 -6.32 13 -7 13 C-7.33 12.34 -7.66 11.68 -8 11 C-8.99 11 -9.98 11 -11 11 C-9.88121617 9.82737096 -8.75476949 8.66204862 -7.625 7.5 C-6.68527344 6.52546875 -6.68527344 6.52546875 -5.7265625 5.53125 C-4 4 -4 4 -2 4 C-1.34 2.68 -0.68 1.36 0 0 Z " fill="#464751" transform="translate(242,211)"/>
<path d="M0 0 C6.03527278 -0.53886364 9.32590948 0.27709329 14.43359375 3.515625 C16.291148 5.27590085 16.62152066 6.50523477 17 9 C10.75029999 7.22057153 5.21510863 4.95040926 0 1 C0 0.67 0 0.34 0 0 Z " fill="#474B52" transform="translate(191,131)"/>
<path d="M0 0 C0.70703125 1.734375 0.70703125 1.734375 1 4 C-0.36328125 6.140625 -0.36328125 6.140625 -2.3125 8.25 C-2.94800781 8.95640625 -3.58351563 9.6628125 -4.23828125 10.390625 C-6 12 -6 12 -8 12 C-8.33 12.66 -8.66 13.32 -9 14 C-8.41883989 9.2054291 -6.62972096 5.98214889 -4 2 C-1.75 0.5625 -1.75 0.5625 0 0 Z " fill="#424850" transform="translate(82,65)"/>
<path d="M0 0 C2.91387197 0.2913872 3.82565583 0.79452294 5.75 3.0625 C6.1625 3.701875 6.575 4.34125 7 5 C6.01 6.485 6.01 6.485 5 8 C5 8.99 5 9.98 5 11 C4.34 11 3.68 11 3 11 C2.67 10.01 2.34 9.02 2 8 C1.01 7.34 0.02 6.68 -1 6 C-1.25 3.4375 -1.25 3.4375 -1 1 C-0.67 0.67 -0.34 0.34 0 0 Z " fill="#3D404C" transform="translate(249,59)"/>
<path d="M0 0 C0 0.66 0 1.32 0 2 C-0.99 2.33 -1.98 2.66 -3 3 C-3 3.99 -3 4.98 -3 6 C-5.31 6.33 -7.62 6.66 -10 7 C-10 6.34 -10 5.68 -10 5 C-11.98 5 -13.96 5 -16 5 C-16 4.34 -16 3.68 -16 3 C-15.15695313 2.86722656 -14.31390625 2.73445312 -13.4453125 2.59765625 C-12.34960938 2.42105469 -11.25390625 2.24445313 -10.125 2.0625 C-8.48917969 1.80146484 -8.48917969 1.80146484 -6.8203125 1.53515625 C-4.32604896 1.06186802 -2.49236265 0 0 0 Z " fill="#4E545C" transform="translate(184,209)"/>
<path d="M0 0 C3.82097239 0.53069061 6.06171403 1.49701566 9 4 C8.67 5.32 8.34 6.64 8 8 C5.03 7.505 5.03 7.505 2 7 C2 6.01 2 5.02 2 4 C1.34 4 0.68 4 0 4 C0 2.68 0 1.36 0 0 Z " fill="#37383F" transform="translate(215,138)"/>
<path d="M0 0 C4.84334546 3.22889698 8.7047333 6.16007703 12 11 C11.8125 13.375 11.8125 13.375 11 15 C10.34 15 9.68 15 9 15 C7.59765625 13.13671875 7.59765625 13.13671875 6.0625 10.6875 C3.9525598 7.32441202 3.9525598 7.32441202 1.30859375 4.39453125 C0 3 0 3 0 0 Z " fill="#272E3A" transform="translate(132,114)"/>
<path d="M0 0 C0.33 1.98 0.66 3.96 1 6 C-3.625 9 -3.625 9 -7 9 C-6.53149863 4.78348764 -4.94559315 0 0 0 Z " fill="#2A2D38" transform="translate(73,84)"/>
<path d="M0 0 C0 1.32 0 2.64 0 4 C-1.32 4 -2.64 4 -4 4 C-3.67 4.99 -3.34 5.98 -3 7 C-5.25740623 9.33524782 -7.2805761 11.18705073 -10 13 C-11.125 9.25 -11.125 9.25 -10 7 C-9.34 7 -8.68 7 -8 7 C-8 6.34 -8 5.68 -8 5 C-7.34 5 -6.68 5 -6 5 C-6 4.34 -6 3.68 -6 3 C-2.53846154 0 -2.53846154 0 0 0 Z " fill="#41484D" transform="translate(105,39)"/>
<path d="M0 0 C0.763125 0.20625 1.52625 0.4125 2.3125 0.625 C1.6525 1.285 0.9925 1.945 0.3125 2.625 C0.3125 3.615 0.3125 4.605 0.3125 5.625 C-2.39629335 6.97939668 -4.69683268 6.69001451 -7.6875 6.625 C-6.22846393 2.36012534 -5.12714281 -0.71541528 0 0 Z " fill="#282E39" transform="translate(244.6875,217.375)"/>
<path d="M0 0 C1.32 0 2.64 0 4 0 C4 0.66 4 1.32 4 2 C5.1446875 1.7215625 5.1446875 1.7215625 6.3125 1.4375 C9 1 9 1 12 2 C12 2.99 12 3.98 12 5 C14.64 5.66 17.28 6.32 20 7 C15.03429151 8.24142712 12.84452938 7.37261666 8 6 C8 5.34 8 4.68 8 4 C6.865625 3.71125 5.73125 3.4225 4.5625 3.125 C3.386875 2.75375 2.21125 2.3825 1 2 C0.67 1.34 0.34 0.68 0 0 Z " fill="#4E5459" transform="translate(136,215)"/>
<path d="M0 0 C-0.99 0.33 -1.98 0.66 -3 1 C-3 1.66 -3 2.32 -3 3 C-3.99 3 -4.98 3 -6 3 C-6.66 4.65 -7.32 6.3 -8 8 C-12.75 6.125 -12.75 6.125 -15 5 C-11.55014028 1.85012808 -4.53875449 -2.26937725 0 0 Z " fill="#686C74" transform="translate(129,27)"/>
<path d="M0 0 C0.33 0 0.66 0 1 0 C1.33 9.57 1.66 19.14 2 29 C1.01 29.33 0.02 29.66 -1 30 C-2 27 -2 27 -1 24 C-0.85110253 22.15533558 -0.7520899 20.30642725 -0.68359375 18.45703125 C-0.64169922 17.38388672 -0.59980469 16.31074219 -0.55664062 15.20507812 C-0.51732422 14.08552734 -0.47800781 12.96597656 -0.4375 11.8125 C-0.39431641 10.68134766 -0.35113281 9.55019531 -0.30664062 8.38476562 C-0.20050901 5.58996646 -0.09845615 2.79507838 0 0 Z " fill="#51575F" transform="translate(60,147)"/>
<path d="M0 0 C0.66 0.33 1.32 0.66 2 1 C0.71520959 2.50589388 -0.57804082 4.00457375 -1.875 5.5 C-2.95394531 6.75296875 -2.95394531 6.75296875 -4.0546875 8.03125 C-4.69664063 8.6809375 -5.33859375 9.330625 -6 10 C-6.66 10 -7.32 10 -8 10 C-8.33 10.99 -8.66 11.98 -9 13 C-9.33 12.34 -9.66 11.68 -10 11 C-9.67 10.01 -9.34 9.02 -9 8 C-8.34 8 -7.68 8 -7 8 C-6.87625 7.21625 -6.7525 6.4325 -6.625 5.625 C-6 3 -6 3 -4 1 C-3.01 1 -2.02 1 -1 1 C-0.67 0.67 -0.34 0.34 0 0 Z " fill="#595E66" transform="translate(77,75)"/>
<path d="M0 0 C0 0.66 0 1.32 0 2 C-1.32 2.33 -2.64 2.66 -4 3 C-4 3.66 -4 4.32 -4 5 C-6.31 5.33 -8.62 5.66 -11 6 C-11 5.01 -11 4.02 -11 3 C-7.43047703 -0.31455704 -4.66664121 -1.55554707 0 0 Z " fill="#242930" transform="translate(208,241)"/>
<path d="M0 0 C0.66 0 1.32 0 2 0 C2.66 1.65 3.32 3.3 4 5 C2.35 6.32 0.7 7.64 -1 9 C-1 8.34 -1 7.68 -1 7 C-1.66 7 -2.32 7 -3 7 C-2.25 2.25 -2.25 2.25 0 0 Z " fill="#343942" transform="translate(203,201)"/>
<path d="M0 0 C2.64 0 5.28 0 8 0 C5.19195732 2.96404505 2.81684226 5.44499019 -1 7 C-0.67 4.69 -0.34 2.38 0 0 Z " fill="#343945" transform="translate(235,224)"/>
<path d="M0 0 C0.66 1.32 1.32 2.64 2 4 C0.02 6.64 -1.96 9.28 -4 12 C-4.66 10.68 -5.32 9.36 -6 8 C-5.38125 7.236875 -4.7625 6.47375 -4.125 5.6875 C-1.94402948 3.00374191 -1.94402948 3.00374191 0 0 Z " fill="#50535C" transform="translate(253,196)"/>
<path d="M0 0 C2.99220268 1.36370299 5.29026529 2.94908083 7.75 5.125 C8.67039063 5.93324219 8.67039063 5.93324219 9.609375 6.7578125 C10.06828125 7.16773437 10.5271875 7.57765625 11 8 C9.35 9.65 7.7 11.3 6 13 C6.12375 12.319375 6.2475 11.63875 6.375 10.9375 C5.87064266 6.98670086 3.98028598 5.29382304 1.3125 2.453125 C0 1 0 1 0 0 Z " fill="#444C56" transform="translate(137,117)"/>
<path d="M0 0 C2.475 0.99 2.475 0.99 5 2 C5 4.62113708 4.68707555 6.50935112 4 9 C2.2925002 7.71937515 0.62626404 6.38232443 -1 5 C-1 4.34 -1 3.68 -1 3 C-0.34 3 0.32 3 1 3 C0.67 2.01 0.34 1.02 0 0 Z " fill="#27333A" transform="translate(77,219)"/>
<path d="M0 0 C0.66 0 1.32 0 2 0 C2 0.66 2 1.32 2 2 C1.34 2 0.68 2 0 2 C0 3.65 0 5.3 0 7 C0.66 7 1.32 7 2 7 C2.33 7.66 2.66 8.32 3 9 C3.99 9 4.98 9 6 9 C6 10.32 6 11.64 6 13 C5.01 13.33 4.02 13.66 3 14 C-0.5058565 9.50812136 -1.55913813 6.70320894 -1 1 C-0.67 0.67 -0.34 0.34 0 0 Z " fill="#464752" transform="translate(108,180)"/>
<path d="M0 0 C0.66 0.33 1.32 0.66 2 1 C1.67 1.99 1.34 2.98 1 4 C0.34 4 -0.32 4 -1 4 C-1.66 5.32 -2.32 6.64 -3 8 C-4.65 7.67 -6.3 7.34 -8 7 C-5.4837822 4.39391727 -2.94865641 2.10618315 0 0 Z " fill="#4B5155" transform="translate(228,224)"/>
<path d="M0 0 C4.46224359 1.56781531 6.91552105 3.00227563 9.1875 7.1875 C9.455625 7.785625 9.72375 8.38375 10 9 C9.01 9 8.02 9 7 9 C7 8.34 7 7.68 7 7 C6.401875 6.95875 5.80375 6.9175 5.1875 6.875 C3 6 3 6 1.25 2.9375 C0.8375 1.968125 0.425 0.99875 0 0 Z " fill="#525560" transform="translate(124,104)"/>
<path d="M0 0 C0.66 0.33 1.32 0.66 2 1 C0.74243422 4.77269733 -0.67467431 5.88388365 -4 8 C-6.8125 7.75 -6.8125 7.75 -9 7 C-6.25604436 4.05278838 -3.61662784 1.80831392 0 0 Z " fill="#474C57" transform="translate(216,102)"/>
<path d="M0 0 C0.66 0.33 1.32 0.66 2 1 C-0.77167019 6.54334038 -0.77167019 6.54334038 -4.26953125 7.84375 C-6.51050564 8.32370672 -8.72604935 8.7181856 -11 9 C-8.28328335 6.15352972 -5.28407579 4.16609254 -2 2 C-1.34 1.34 -0.68 0.68 0 0 Z " fill="#5F616A" transform="translate(199,198)"/>
<path d="M0 0 C1.5625 1.1875 1.5625 1.1875 3 3 C2.6875 5.6875 2.6875 5.6875 2 8 C0.68 8.33 -0.64 8.66 -2 9 C-1.125 1.125 -1.125 1.125 0 0 Z " fill="#444A50" transform="translate(267,163)"/>
<path d="M0 0 C2.97 0.99 5.94 1.98 9 3 C9 3.33 9 3.66 9 4 C5.7 4.66 2.4 5.32 -1 6 C-0.67 4.02 -0.34 2.04 0 0 Z " fill="#3C3E49" transform="translate(113,240)"/>
<path d="M0 0 C-0.50797009 4.3177458 -1.19682779 8.03302114 -3 12 C-5.31361802 8.52957297 -5.51020728 7.08165827 -5 3 C-1.9 0 -1.9 0 0 0 Z " fill="#3C3F47" transform="translate(73,92)"/>
<path d="M0 0 C0.99 0.99 1.98 1.98 3 3 C1.7391988 4.03319813 0.46596742 5.05124379 -0.8125 6.0625 C-1.87404297 6.91521484 -1.87404297 6.91521484 -2.95703125 7.78515625 C-3.63121094 8.18605469 -4.30539063 8.58695313 -5 9 C-5.99 8.67 -6.98 8.34 -8 8 C-7.360625 7.731875 -6.72125 7.46375 -6.0625 7.1875 C-3.66868314 6.11332248 -3.66868314 6.11332248 -3 3 C-2.34 3 -1.68 3 -1 3 C-0.67 2.01 -0.34 1.02 0 0 Z " fill="#363944" transform="translate(112,42)"/>
<path d="M0 0 C0.66 0.33 1.32 0.66 2 1 C0.5 3.9375 0.5 3.9375 -2 7 C-4.76486571 7.83895734 -7.07439213 7.90247974 -10 8 C-6.97727468 4.74475735 -3.74281699 2.38179263 0 0 Z " fill="#555A65" transform="translate(127,129)"/>
<path d="M0 0 C0.66 0.33 1.32 0.66 2 1 C1.67 2.65 1.34 4.3 1 6 C1.99 6 2.98 6 4 6 C4.33 6.99 4.66 7.98 5 9 C4.01 9.33 3.02 9.66 2 10 C-0.1875 8.875 -0.1875 8.875 -2 7 C-2.375 4.4375 -2.375 4.4375 -2 2 C-1.34 1.34 -0.68 0.68 0 0 Z " fill="#2B2F36" transform="translate(191,122)"/>
<path d="M0 0 C1.65 0.33 3.3 0.66 5 1 C5 2.32 5 3.64 5 5 C4.34 5.66 3.68 6.32 3 7 C1.68 5.35 0.36 3.7 -1 2 C-0.67 1.34 -0.34 0.68 0 0 Z " fill="#2F3540" transform="translate(244,55)"/>
<path d="M0 0 C0.99 0 1.98 0 3 0 C3.33 0.66 3.66 1.32 4 2 C5.65 2 7.3 2 9 2 C9 2.66 9 3.32 9 4 C7.68 4 6.36 4 5 4 C5 4.66 5 5.32 5 6 C3.02 5.34 1.04 4.68 -1 4 C-0.67 2.68 -0.34 1.36 0 0 Z " fill="#282D39" transform="translate(130,207)"/>
<path d="M0 0 C0.66 0.33 1.32 0.66 2 1 C0.375 4 0.375 4 -2 7 C-5.25 7.375 -5.25 7.375 -8 7 C-7.34 6.67 -6.68 6.34 -6 6 C-6 5.34 -6 4.68 -6 4 C-4.03852126 2.61061923 -2.03833424 1.2739589 0 0 Z " fill="#474D55" transform="translate(204,110)"/>
<path d="M0 0 C3.26008643 3.16952847 6.22237877 6.39937989 9 10 C8.67 10.66 8.34 11.32 8 12 C4.72257902 8.89973691 2.06895163 6.02901106 0 2 C0 1.34 0 0.68 0 0 Z " fill="#686C74" transform="translate(253,57)"/>
<path d="M0 0 C1.98 0 3.96 0 6 0 C6 1.98 6 3.96 6 6 C5.34 6 4.68 6 4 6 C3.67 5.34 3.34 4.68 3 4 C2.67 4.99 2.34 5.98 2 7 C1.34 7 0.68 7 0 7 C0 4.69 0 2.38 0 0 Z " fill="#292B35" transform="translate(66,203)"/>
<path d="M0 0 C0.66 0 1.32 0 2 0 C2 0.66 2 1.32 2 2 C2.61875 1.814375 3.2375 1.62875 3.875 1.4375 C6 1 6 1 8 2 C7.67 3.32 7.34 4.64 7 6 C6.01 5.67 5.02 5.34 4 5 C3.29875 4.855625 2.5975 4.71125 1.875 4.5625 C1.25625 4.376875 0.6375 4.19125 0 4 C-0.33 3.34 -0.66 2.68 -1 2 C-0.67 1.34 -0.34 0.68 0 0 Z " fill="#282D38" transform="translate(123,109)"/>
<path d="M0 0 C0.66 0.33 1.32 0.66 2 1 C1.67 2.65 1.34 4.3 1 6 C0.34 6 -0.32 6 -1 6 C-1 6.66 -1 7.32 -1 8 C-2.32 8.33 -3.64 8.66 -5 9 C-3.50163895 5.88801935 -1.80066242 2.9465385 0 0 Z " fill="#52595C" transform="translate(222,102)"/>
<path d="M0 0 C0.33 0.66 0.66 1.32 1 2 C0.22265625 3.7265625 0.22265625 3.7265625 -0.9375 5.625 C-1.618125 6.73875 -2.29875 7.8525 -3 9 C-3.99 8.34 -4.98 7.68 -6 7 C-4.60667426 3.63279613 -3.0210714 2.0140476 0 0 Z " fill="#484D54" transform="translate(268,187)"/>
<path d="M0 0 C0.66 0 1.32 0 2 0 C3.25 7.625 3.25 7.625 1 11 C-1.78637633 6.8204355 -0.79562512 4.85331323 0 0 Z " fill="#262C33" transform="translate(60,176)"/>
<path d="M0 0 C0 3 0 3 -1.375 4.6875 C-3 6 -3 6 -5 6 C-5.33 6.99 -5.66 7.98 -6 9 C-6.93423645 5.98968256 -7.04449911 5.13349732 -6 2 C-4.7934375 1.7834375 -4.7934375 1.7834375 -3.5625 1.5625 C-1.07896294 1.25864751 -1.07896294 1.25864751 0 0 Z " fill="#30333E" transform="translate(104,46)"/>
<path d="M0 0 C0.33 0.66 0.66 1.32 1 2 C1.66 2 2.32 2 3 2 C3.66 1.34 4.32 0.68 5 0 C6.5625 2.375 6.5625 2.375 8 5 C7.67 5.66 7.34 6.32 7 7 C6.01 6.34 5.02 5.68 4 5 C3.01 5.33 2.02 5.66 1 6 C0.67 4.02 0.34 2.04 0 0 Z " fill="#464951" transform="translate(263,77)"/>
<path d="M0 0 C0.66 0 1.32 0 2 0 C2 0.66 2 1.32 2 2 C2.99 2.33 3.98 2.66 5 3 C3.71034824 4.37562854 2.37310707 5.70766393 1 7 C0.34 7 -0.32 7 -1 7 C-1.625 5.1875 -1.625 5.1875 -2 3 C-1.34 2.01 -0.68 1.02 0 0 Z " fill="#2A2F39" transform="translate(255,64)"/>
<path d="M0 0 C0.99 0.33 1.98 0.66 3 1 C1.35 2.98 -0.3 4.96 -2 7 C-2.66 6.67 -3.32 6.34 -4 6 C-3.6875 4.125 -3.6875 4.125 -3 2 C-2.01 1.34 -1.02 0.68 0 0 Z " fill="#504E5B" transform="translate(99,53)"/>
<path d="M0 0 C0.66 0.33 1.32 0.66 2 1 C2 1.66 2 2.32 2 3 C3.32 3 4.64 3 6 3 C6.144375 3.61875 6.28875 4.2375 6.4375 4.875 C6.93152225 7.03258322 6.93152225 7.03258322 8 9 C4.05860922 7.33248852 1.2107188 4.77289351 -2 2 C-1.34 1.34 -0.68 0.68 0 0 Z " fill="#53575B" transform="translate(235,48)"/>
<path d="M0 0 C0.66 0.33 1.32 0.66 2 1 C1.34 3.31 0.68 5.62 0 8 C-0.99 7.01 -1.98 6.02 -3 5 C-1.125 1.125 -1.125 1.125 0 0 Z " fill="#292F3C" transform="translate(254,201)"/>
<path d="M0 0 C-3.17320782 3.53586014 -5.16743695 5.58578031 -10 6 C-9.34 5.67 -8.68 5.34 -8 5 C-8 4.34 -8 3.68 -8 3 C-5.65966534 -0.20256322 -3.8395009 -0.31131088 0 0 Z " fill="#434852" transform="translate(152,178)"/>
<path d="M0 0 C0.99 0.33 1.98 0.66 3 1 C3 1.66 3 2.32 3 3 C1.03533587 4.06775224 -0.96855359 5.06553465 -3 6 C-3.66 5.67 -4.32 5.34 -5 5 C-4.67 4.01 -4.34 3.02 -4 2 C-2.68 2 -1.36 2 0 2 C0 1.34 0 0.68 0 0 Z " fill="#3C404B" transform="translate(220,236)"/>
<path d="M0 0 C0 3.57575896 -1.08840607 5.05295935 -3 8 C-5.475 7.01 -5.475 7.01 -8 6 C-5.33333333 4 -2.66666667 2 0 0 Z " fill="#535863" transform="translate(96,230)"/>
<path d="M0 0 C0.66 0 1.32 0 2 0 C3.6875 2.375 3.6875 2.375 5 5 C4.67 5.66 4.34 6.32 4 7 C3.01 7.33 2.02 7.66 1 8 C1.33 6.35 1.66 4.7 2 3 C1.01 3.33 0.02 3.66 -1 4 C-0.67 2.68 -0.34 1.36 0 0 Z " fill="#44474E" transform="translate(72,203)"/>
<path d="M0 0 C1.10844919 3.32534757 0.84454356 5.62182575 0 9 C-0.99 8.67 -1.98 8.34 -3 8 C-2.67 6.02 -2.34 4.04 -2 2 C-1.34 2 -0.68 2 0 2 C0 1.34 0 0.68 0 0 Z " fill="#383C46" transform="translate(279,150)"/>
<path d="M0 0 C0.75 1.75 0.75 1.75 1 4 C-0.9375 6.25 -0.9375 6.25 -3 8 C-3.75 6.25 -3.75 6.25 -4 4 C-2.0625 1.75 -2.0625 1.75 0 0 Z " fill="#2A2F38" transform="translate(82,65)"/>
<path d="M0 0 C1.32 1.32 2.64 2.64 4 4 C3.01 4.33 2.02 4.66 1 5 C0.67 5.99 0.34 6.98 0 8 C-1.32 7.34 -2.64 6.68 -4 6 C-2.68 5.34 -1.36 4.68 0 4 C0 2.68 0 1.36 0 0 Z " fill="#60626B" transform="translate(124,198)"/>
<path d="M0 0 C1.27351308 2.54702616 0.80191925 3.4282945 0.0625 6.125 C-0.13214844 6.84945312 -0.32679687 7.57390625 -0.52734375 8.3203125 C-0.68332031 8.87460938 -0.83929688 9.42890625 -1 10 C-1.66 10 -2.32 10 -3 10 C-3 7.69 -3 5.38 -3 3 C-2.34 3 -1.68 3 -1 3 C-0.67 2.01 -0.34 1.02 0 0 Z " fill="#3C4247" transform="translate(64,120)"/>
<path d="M0 0 C0.66 0.33 1.32 0.66 2 1 C2 2.65 2 4.3 2 6 C1.01 6.33 0.02 6.66 -1 7 C-1.66 6.34 -2.32 5.68 -3 5 C-2.01 3.35 -1.02 1.7 0 0 Z " fill="#2E3440" transform="translate(215,106)"/>
<path d="M0 0 C-2.97 2.475 -2.97 2.475 -6 5 C-6 4.01 -6 3.02 -6 2 C-6.66 1.67 -7.32 1.34 -8 1 C-3.375 -1.125 -3.375 -1.125 0 0 Z " fill="#383E44" transform="translate(119,33)"/>
<path d="M0 0 C0 0.66 0 1.32 0 2 C-1.65 2.66 -3.3 3.32 -5 4 C-5.66 3.34 -6.32 2.68 -7 2 C-7 1.34 -7 0.68 -7 0 C-3.98968256 -0.93423645 -3.13349732 -1.04449911 0 0 Z " fill="#2E303A" transform="translate(208,241)"/>
<path d="M0 0 C0.66 0.33 1.32 0.66 2 1 C1.50168276 4.68754757 0.89932357 6.60490662 -2 9 C-2 6.69 -2 4.38 -2 2 C-1.34 2 -0.68 2 0 2 C0 1.34 0 0.68 0 0 Z " fill="#40444E" transform="translate(222,178)"/>
<path d="M0 0 C2.31 1.65 4.62 3.3 7 5 C6.01 5.66 5.02 6.32 4 7 C2 5.1875 2 5.1875 0 3 C0 2.01 0 1.02 0 0 Z " fill="#323941" transform="translate(132,114)"/>
<path d="M0 0 C0.33 0.99 0.66 1.98 1 3 C1.66 3.33 2.32 3.66 3 4 C2.34 4.66 1.68 5.32 1 6 C0.30251417 7.31747324 -0.36959957 8.64914193 -1 10 C-1.02689216 8.52093108 -1.04634621 7.04172517 -1.0625 5.5625 C-1.07410156 4.73878906 -1.08570313 3.91507813 -1.09765625 3.06640625 C-1 1 -1 1 0 0 Z " fill="#33393E" transform="translate(270,150)"/>
<path d="M0 0 C2.31 0.66 4.62 1.32 7 2 C7 2.33 7 2.66 7 3 C3.7 3.33 0.4 3.66 -3 4 C-2.01 2.68 -1.02 1.36 0 0 Z " fill="#3D404B" transform="translate(210,28)"/>
<path d="M0 0 C1.32 0 2.64 0 4 0 C4 0.99 4 1.98 4 3 C3.34 3 2.68 3 2 3 C1.67 3.66 1.34 4.32 1 5 C1 4.34 1 3.68 1 3 C0.01 2.67 -0.98 2.34 -2 2 C-1.34 1.34 -0.68 0.68 0 0 Z " fill="#2C3140" transform="translate(129,129)"/>
<path d="M0 0 C-0.66 1.32 -1.32 2.64 -2 4 C-3.98 4 -5.96 4 -8 4 C-2.7826087 0 -2.7826087 0 0 0 Z " fill="#4F5358" transform="translate(137,125)"/>
<path d="M0 0 C2.6875 0.3125 2.6875 0.3125 5 1 C4.401875 1.268125 3.80375 1.53625 3.1875 1.8125 C1.02775192 2.98493467 -0.35790256 4.19369282 -2 6 C-2.33 5.01 -2.66 4.02 -3 3 C-1.8125 1.4375 -1.8125 1.4375 0 0 Z " fill="#484E5A" transform="translate(258,68)"/>
<path d="M0 0 C0.33 1.32 0.66 2.64 1 4 C1.639375 4.12375 2.27875 4.2475 2.9375 4.375 C3.618125 4.58125 4.29875 4.7875 5 5 C5.33 5.66 5.66 6.32 6 7 C0.25 5.125 0.25 5.125 -2 4 C-1.34 2.68 -0.68 1.36 0 0 Z " fill="#474E53" transform="translate(211,33)"/>
</svg>
