<?xml version="1.0" encoding="UTF-8"?>
<svg version="1.1" xmlns="http://www.w3.org/2000/svg" width="401" height="328">
<path d="M0 0 C1.60161987 -0.01367111 1.60161987 -0.01367111 3.2355957 -0.02761841 C4.1080896 -0.03756332 4.9805835 -0.04750824 5.8795166 -0.05775452 C8.13142837 0.0461459 10.00963091 0.29523338 12.13598633 1.0463562 C13.65414991 4.08268337 13.63206284 5.63583019 13.13598633 9.0463562 C11.62660538 11.38880794 9.92720161 13.47195709 8.14379883 15.61276245 C6.11069808 18.07700713 4.27085273 20.61075305 2.44848633 23.2338562 C1.86583008 24.0691687 1.28317383 24.9044812 0.68286133 25.7651062 C-0.53021533 27.55408794 -1.67880611 29.38682118 -2.80151367 31.2338562 C-6.56781744 36.36972498 -11.53711366 40.180004 -16.73901367 43.7963562 C-19.99568496 45.86347941 -19.99568496 45.86347941 -21.86401367 49.0463562 C-24.76245117 50.1088562 -24.76245117 50.1088562 -28.23901367 51.0463562 C-32.85781237 52.23303542 -32.85781237 52.23303542 -36.90307617 54.6088562 C-42.41412455 58.64882792 -51.591249 57.26814965 -58.11401367 57.2963562 C-59.29092773 57.3169812 -60.4678418 57.3376062 -61.68041992 57.3588562 C-71.11108957 57.40081691 -78.91487654 55.8768566 -87.30151367 51.4838562 C-88.50614258 50.86317261 -88.50614258 50.86317261 -89.73510742 50.22994995 C-91.86401367 49.0463562 -91.86401367 49.0463562 -94.86401367 47.0463562 C-94.86401367 46.3863562 -94.86401367 45.7263562 -94.86401367 45.0463562 C-95.69030273 44.86202026 -96.5165918 44.67768433 -97.36791992 44.48776245 C-102.10885233 42.53312104 -105.15015983 39.52005791 -108.80151367 35.9838562 C-109.50937012 35.30790405 -110.21722656 34.6319519 -110.9465332 33.93551636 C-117.135064 27.94472051 -122.83275061 22.23359942 -125.86401367 14.0463562 C-126.52401367 14.0463562 -127.18401367 14.0463562 -127.86401367 14.0463562 C-128.23075512 7.56725722 -128.23075512 7.56725722 -126.67626953 5.35934448 C-124.29397059 3.63335719 -122.60554942 3.54675068 -119.68041992 3.3510437 C-118.67043945 3.27498901 -117.66045898 3.19893433 -116.61987305 3.12057495 C-115.03916016 3.02196167 -115.03916016 3.02196167 -113.42651367 2.9213562 C-111.34429027 2.77563891 -109.26224795 2.62730463 -107.18041992 2.4760437 C-105.79512085 2.38685669 -105.79512085 2.38685669 -104.38183594 2.29586792 C-101.94406381 2.12186089 -101.94406381 2.12186089 -99.95470428 1.54065037 C-96.35323628 0.68916875 -92.65541288 0.86610441 -88.97143555 0.84103394 C-88.07329132 0.83113434 -87.17514709 0.82123474 -86.24978638 0.81103516 C-83.27747225 0.77943097 -80.30514257 0.75464657 -77.33276367 0.72994995 C-75.25972092 0.70935928 -73.18668217 0.68836228 -71.11364746 0.66697693 C-65.64712927 0.61175566 -60.18057273 0.56238825 -54.71398926 0.51412964 C-50.27948995 0.47405545 -45.84503458 0.43000514 -41.41057587 0.38569546 C-17.55077545 0.14733521 -17.55077545 0.14733521 -6.1166687 0.06467819 C-4.07773259 0.04809449 -2.03885683 0.02445997 0 0 Z " fill="#3A4550" transform="translate(243.864013671875,161.95364379882813)"/>
<path d="M0 0 C12.36918715 -0.02312154 24.73836919 -0.04091412 37.10757351 -0.05181217 C42.85045062 -0.05704141 48.59331301 -0.0641398 54.33618164 -0.07543945 C59.87339995 -0.08626687 65.41060404 -0.09227652 70.94783211 -0.09487724 C73.06544277 -0.09673176 75.18305262 -0.10035286 77.30065727 -0.10573006 C80.25571274 -0.11293856 83.21070871 -0.11399102 86.16577148 -0.11352539 C87.05049637 -0.11712067 87.93522125 -0.12071594 88.84675598 -0.12442017 C94.88594784 -0.11405216 94.88594784 -0.11405216 96 1 C96.6435174 4.21758702 96.47306471 6.2644335 94.68359375 9.046875 C93.47744371 10.56872874 92.2507162 12.07441861 91.0078125 13.56640625 C88.97471175 16.03065093 87.1348664 18.56439684 85.3125 21.1875 C84.72984375 22.0228125 84.1471875 22.858125 83.546875 23.71875 C82.33379834 25.50773174 81.18520756 27.34046498 80.0625 29.1875 C76.12033603 34.56317814 70.88728031 38.87238234 65 42 C64 39 64 39 64.9375 36.8125 C65.288125 36.214375 65.63875 35.61625 66 35 C66.99 35 67.98 35 69 35 C69 34.34 69 33.68 69 33 C67.02 32.505 67.02 32.505 65 32 C66.98 29.69 68.96 27.38 71 25 C70.505 24.01 70.505 24.01 70 23 C71.2375 22.319375 71.2375 22.319375 72.5 21.625 C73.325 21.08875 74.15 20.5525 75 20 C75 19.34 75 18.68 75 18 C75.66 18 76.32 18 77 18 C77 14.37 77 10.74 77 7 C47.96 7 18.92 7 -11 7 C-11.33 5.35 -11.66 3.7 -12 2 C-8.04 2 -4.08 2 0 2 C0 1.34 0 0.68 0 0 Z " fill="#2E3843" transform="translate(161,164)"/>
<path d="M0 0 C4.18803422 0.26441764 6.51663013 1.17611075 10.2109375 3.1171875 C10.79746094 3.42309814 11.38398438 3.72900879 11.98828125 4.04418945 C36.75471134 17.16096134 36.75471134 17.16096134 41.8359375 22.2421875 C42.3359375 24.8671875 42.3359375 24.8671875 41.8359375 28.2421875 C37.46801855 34.58365122 30.30778219 38.38580807 23.8359375 42.2421875 C21.25927391 43.7851676 18.69199087 45.3325726 16.1484375 46.9296875 C13.8359375 48.2421875 13.8359375 48.2421875 11.8359375 48.2421875 C11.5059375 49.2321875 11.1759375 50.2221875 10.8359375 51.2421875 C4.78337302 55.01839205 -1.0577588 57.14662615 -8.1640625 56.2421875 C-8.8240625 55.5821875 -9.4840625 54.9221875 -10.1640625 54.2421875 C-9.95776099 51.67889125 -9.45965207 50.53702301 -7.6328125 48.71484375 C-4.25156452 46.2929578 -0.89158395 44.0265119 2.7734375 42.0546875 C7.59764383 39.44654768 12.25458247 36.59341315 16.8984375 33.6796875 C17.67372803 33.20829346 18.44901855 32.73689941 19.24780273 32.2512207 C20.32976929 31.56419067 20.32976929 31.56419067 21.43359375 30.86328125 C22.41598022 30.25117798 22.41598022 30.25117798 23.41821289 29.62670898 C23.88606201 29.16981689 24.35391113 28.7129248 24.8359375 28.2421875 C24.8359375 26.9221875 24.8359375 25.6021875 24.8359375 24.2421875 C22.54771765 22.40095017 22.54771765 22.40095017 19.5234375 20.8671875 C18.4303125 20.26261719 17.3371875 19.65804687 16.2109375 19.03515625 C14.08862881 17.90767976 11.96395878 16.78462575 9.8359375 15.66796875 C4.18167498 12.6759215 -0.47969242 9.61426624 -5.1640625 5.2421875 C-4.05034877 0.3100267 -4.05034877 0.3100267 0 0 Z " fill="#353E45" transform="translate(126.1640625,70.7578125)"/>
<path d="M0 0 C5.97873264 0.11935764 5.97873264 0.11935764 7.08984375 1.23046875 C7.43193389 4.16755695 7.53234085 5.65818898 5.69140625 8.0390625 C1.21508628 11.72804556 -3.35297952 14.85091451 -8.375 17.75390625 C-10.93401522 19.24436504 -13.42918159 20.8011538 -15.91015625 22.41796875 C-16.99296875 23.11986328 -16.99296875 23.11986328 -18.09765625 23.8359375 C-20.17500262 25.2797741 -20.17500262 25.2797741 -21.91015625 28.23046875 C-21.60175026 30.38321823 -21.60175026 30.38321823 -20.91015625 32.23046875 C-19.95302734 32.41222656 -19.95302734 32.41222656 -18.9765625 32.59765625 C-17.73712891 32.84902344 -17.73712891 32.84902344 -16.47265625 33.10546875 C-15.64894531 33.26789063 -14.82523438 33.4303125 -13.9765625 33.59765625 C-13.29464844 33.80648437 -12.61273438 34.0153125 -11.91015625 34.23046875 C-11.58015625 34.89046875 -11.25015625 35.55046875 -10.91015625 36.23046875 C-9.42515625 36.72546875 -9.42515625 36.72546875 -7.91015625 37.23046875 C-7.91015625 37.89046875 -7.91015625 38.55046875 -7.91015625 39.23046875 C-7.19472656 39.48054688 -6.47929687 39.730625 -5.7421875 39.98828125 C-2.62763564 41.35438814 -0.27011577 43.00709313 2.40234375 45.10546875 C3.28535156 45.78351563 4.16835937 46.4615625 5.078125 47.16015625 C7.08984375 49.23046875 7.08984375 49.23046875 7.08984375 53.23046875 C2.20343104 53.68856994 -1.49484982 52.07440898 -5.91015625 50.23046875 C-7.06515625 49.75609375 -8.22015625 49.28171875 -9.41015625 48.79296875 C-29.08730773 40.00852612 -29.08730773 40.00852612 -34.91015625 33.23046875 C-35.6200637 28.97102403 -35.33735948 26.93756375 -33.09765625 23.23046875 C-29.79293765 19.67955335 -25.59144328 17.38523491 -21.4765625 14.88671875 C-18.7626426 13.26293001 -18.7626426 13.26293001 -16.34765625 10.66796875 C-13.27929158 7.59960408 -9.87441077 5.69741397 -6.1171875 3.5625 C-0.26810969 0.03234861 -0.26810969 0.03234861 0 0 Z " fill="#333E48" transform="translate(249.91015625,71.76953125)"/>
<path d="M0 0 C2.01231558 0.01417124 4.02319713 0.1339494 6.03125 0.265625 C3.03125 2.265625 3.03125 2.265625 0.03125 2.265625 C1.23950594 7.86753891 2.68283202 10.33134207 7.03125 14.265625 C7.629375 15.090625 8.2275 15.915625 8.84375 16.765625 C11.39493698 19.68126727 14.0670236 21.27289233 17.421875 23.15234375 C18.21851563 23.70341797 18.21851563 23.70341797 19.03125 24.265625 C19.03125 24.925625 19.03125 25.585625 19.03125 26.265625 C19.69125 26.265625 20.35125 26.265625 21.03125 26.265625 C21.03125 26.925625 21.03125 27.585625 21.03125 28.265625 C21.69125 28.265625 22.35125 28.265625 23.03125 28.265625 C23.03125 28.925625 23.03125 29.585625 23.03125 30.265625 C21.42792209 30.34684424 19.82340974 30.40491634 18.21875 30.453125 C16.87876953 30.50533203 16.87876953 30.50533203 15.51171875 30.55859375 C12.50435049 30.20339277 12.02953016 29.43173971 10.03125 27.265625 C8.82082031 26.78802734 8.82082031 26.78802734 7.5859375 26.30078125 C0.0585553 23.25069519 -5.27995754 14.59549482 -9.96875 8.265625 C-9.30875 6.945625 -8.64875 5.625625 -7.96875 4.265625 C-6.97875 4.265625 -5.98875 4.265625 -4.96875 4.265625 C-4.576875 3.605625 -4.185 2.945625 -3.78125 2.265625 C-1.96875 0.265625 -1.96875 0.265625 0 0 Z " fill="#35404A" transform="translate(129.96875,172.734375)"/>
<path d="M0 0 C1 1 1 1 1.4375 3.6875 C0.90679898 7.70566483 -0.20941728 9.13840694 -3.14453125 11.80859375 C-7.10027233 14.34859592 -11.41525899 14 -16 14 C-15.67 13.67 -15.34 13.34 -15 13 C-15.99 12.34 -16.98 11.68 -18 11 C-17.01 10.34 -16.02 9.68 -15 9 C-14.24914894 6.58736705 -14.24914894 6.58736705 -15 4 C-16.95309888 2.59886384 -18.95708818 1.26660533 -21 0 C-22.1953125 -2.12109375 -22.1953125 -2.12109375 -23 -4 C-13.7820592 -6.77391737 -7.66773438 -5.79755526 0 0 Z " fill="#2F3B45" transform="translate(167,92)"/>
<path d="M0 0 C6.55071457 1.64037663 12.32254864 5.98602228 17.0625 10.6875 C17.90625 13.48046875 17.90625 13.48046875 18.0625 15.6875 C11.47056083 16.5380728 4.29840497 12.40330353 -0.9375 8.6875 C-0.9375 8.0275 -0.9375 7.3675 -0.9375 6.6875 C-2.5875 6.6875 -4.2375 6.6875 -5.9375 6.6875 C-6.2675 5.0375 -6.5975 3.3875 -6.9375 1.6875 C-3.9375 -0.3125 -3.9375 -0.3125 0 0 Z " fill="#303943" transform="translate(238.9375,109.3125)"/>
<path d="M0 0 C2.16796875 1.27734375 2.16796875 1.27734375 4.1875 2.9375 C6.94820463 5.19431415 6.94820463 5.19431415 10 7 C10 7.66 10 8.32 10 9 C10.66 9 11.32 9 12 9 C12 9.66 12 10.32 12 11 C12.66 11 13.32 11 14 11 C14 11.66 14 12.32 14 13 C12.39667209 13.08121924 10.79215974 13.13929134 9.1875 13.1875 C7.84751953 13.23970703 7.84751953 13.23970703 6.48046875 13.29296875 C3.52927349 12.94440238 2.88848746 12.19487923 1 10 C0.21625 9.731875 -0.5675 9.46375 -1.375 9.1875 C-5.04569215 7.52694879 -6.57311647 5.18961835 -9 2 C-5.841003 0.12800178 -3.65774218 -0.34393695 0 0 Z " fill="#3E454B" transform="translate(139,190)"/>
<path d="M0 0 C0.79953138 3.28696233 1.09658936 4.71023192 0 8 C0.66 8.33 1.32 8.66 2 9 C1.44570312 9.32613281 0.89140625 9.65226562 0.3203125 9.98828125 C-0.76636719 10.64376953 -0.76636719 10.64376953 -1.875 11.3125 C-2.59429687 11.74175781 -3.31359375 12.17101562 -4.0546875 12.61328125 C-6.26846333 14.01752375 -6.26846333 14.01752375 -8 17 C-8 18.32 -8 19.64 -8 21 C-8.99 21 -9.98 21 -11 21 C-11 17.7 -11 14.4 -11 11 C-10.34 11 -9.68 11 -9 11 C-9.99 9.68 -10.98 8.36 -12 7 C-10.3790787 5.82767315 -8.75313167 4.6622923 -7.125 3.5 C-6.22007812 2.8503125 -5.31515625 2.200625 -4.3828125 1.53125 C-2 0 -2 0 0 0 Z " fill="#343E47" transform="translate(236,83)"/>
<path d="M0 0 C33.66 0 67.32 0 102 0 C102.495 2.97 102.495 2.97 103 6 C102.34 6.33 101.68 6.66 101 7 C100.505 4.03 100.505 4.03 100 1 C50.5 1.495 50.5 1.495 0 2 C0 1.34 0 0.68 0 0 Z " fill="#5C6471" transform="translate(136,171)"/>
<path d="M0 0 C1.64767247 0.28109113 3.29313145 0.57518526 4.9375 0.875 C5.85402344 1.03742188 6.77054688 1.19984375 7.71484375 1.3671875 C8.46894531 1.57601562 9.22304687 1.78484375 10 2 C10.33 2.66 10.66 3.32 11 4 C11.99 4.66 12.98 5.32 14 6 C11.69 5.67 9.38 5.34 7 5 C5.99983813 7.00032373 5.50603992 8.83125748 5 11 C5.804375 11.12375 6.60875 11.2475 7.4375 11.375 C8.283125 11.58125 9.12875 11.7875 10 12 C10.33 12.66 10.66 13.32 11 14 C13.01669827 15.13350534 13.01669827 15.13350534 15 16 C14.34 16.33 13.68 16.66 13 17 C11.31243867 16.03567924 9.6502694 15.0268343 8 14 C6.34901226 13.32018152 4.698014 12.64038851 3.046875 11.9609375 C-1.1559554 9.987853 -5.06145947 7.44871031 -9 5 C-8.38511719 4.85433594 -7.77023438 4.70867187 -7.13671875 4.55859375 C-4.86365935 3.96435702 -3.02561062 3.18742691 -1 2 C-0.67 1.34 -0.34 0.68 0 0 Z " fill="#50575D" transform="translate(228,104)"/>
<path d="M0 0 C0.66 0.66 1.32 1.32 2 2 C1.34 2 0.68 2 0 2 C0 1.34 0 0.68 0 0 Z M-3 2 C-0.83125748 2.50603992 0.99967627 2.99983813 3 4 C3 4.66 3 5.32 3 6 C2.34 6 1.68 6 1 6 C0.67 6.99 0.34 7.98 0 9 C-2.98809938 11.24471856 -6.30675017 12.97463296 -10.0859375 13.03125 C-12 12.75 -12 12.75 -15 12 C-14.67 11.01 -14.34 10.02 -14 9 C-14.66 9 -15.32 9 -16 9 C-16 8.34 -16 7.68 -16 7 C-11.49646738 5.24252386 -7.82360189 4.80705592 -3 5 C-3 4.01 -3 3.02 -3 2 Z " fill="#333B44" transform="translate(137,113)"/>
<path d="M0 0 C3.33388318 0.16951948 4.94441987 0.43192871 7.6875 2.1875 C7.9375 7.8125 7.9375 7.8125 5.6875 11.1875 C0.64764269 10.74280671 -1.68884988 8.47406638 -5.3125 5.1875 C-4.19474414 0.23743835 -4.19474414 0.23743835 0 0 Z " fill="#303740" transform="translate(126.3125,70.8125)"/>
<path d="M0 0 C0.578125 1.8671875 0.578125 1.8671875 1 4 C-0.7066791 6.90135447 -2.15645225 8.1043015 -5 10 C-4.67 10.66 -4.34 11.32 -4 12 C-6 14 -8 16 -10 18 C-9.01 18.33 -8.02 18.66 -7 19 C-7 19.66 -7 20.32 -7 21 C-9.31 21.33 -11.62 21.66 -14 22 C-14.66 20.35 -15.32 18.7 -16 17 C-14.5459375 15.8553125 -14.5459375 15.8553125 -13.0625 14.6875 C-8.01995616 10.39927112 -4.07148562 5.18860526 0 0 Z " fill="#353F47" transform="translate(237,178)"/>
<path d="M0 0 C1.4540625 0.0309375 1.4540625 0.0309375 2.9375 0.0625 C3.27095224 3.22209664 3.31753146 4.58768635 1.29296875 7.1171875 C0.21982422 8.01824219 0.21982422 8.01824219 -0.875 8.9375 C-1.58269531 9.55367187 -2.29039062 10.16984375 -3.01953125 10.8046875 C-3.69371094 11.21976563 -4.36789063 11.63484375 -5.0625 12.0625 C-6.0525 11.7325 -7.0425 11.4025 -8.0625 11.0625 C-8.3925 8.4225 -8.7225 5.7825 -9.0625 3.0625 C-8.258125 2.753125 -7.45375 2.44375 -6.625 2.125 C-1.57765152 0.03219697 -1.57765152 0.03219697 0 0 Z " fill="#333D46" transform="translate(254.0625,72.9375)"/>
<path d="M0 0 C-3.18762365 2.12508244 -5.26512223 2.5020163 -9 3 C-9 3.33 -9 3.66 -9 4 C-10.093125 4.226875 -11.18625 4.45375 -12.3125 4.6875 C-16.10194391 5.64442343 -16.10194391 5.64442343 -17.8125 8.5 C-18.204375 9.325 -18.59625 10.15 -19 11 C-19.66 11.66 -20.32 12.32 -21 13 C-21 12.34 -21 11.68 -21 11 C-21.66 11 -22.32 11 -23 11 C-23.35820896 4.67164179 -23.35820896 4.67164179 -22 2.125 C-15.78062915 -1.3733961 -6.88993939 -0.10334909 0 0 Z " fill="#4F5860" transform="translate(139,165)"/>
<path d="M0 0 C0.66 0.66 1.32 1.32 2 2 C1.625 4.125 1.625 4.125 1 6 C0.01 6 -0.98 6 -2 6 C-1.95875 6.928125 -1.9175 7.85625 -1.875 8.8125 C-2 12 -2 12 -4 15 C-7.125 15.6875 -7.125 15.6875 -10 16 C-8.68 13.69 -7.36 11.38 -6 9 C-7.175625 10.2065625 -7.175625 10.2065625 -8.375 11.4375 C-11 14 -11 14 -13 15 C-13.33 13.02 -13.66 11.04 -14 9 C-12.7625 8.319375 -12.7625 8.319375 -11.5 7.625 C-10.2625 6.820625 -10.2625 6.820625 -9 6 C-9 5.34 -9 4.68 -9 4 C-7.02 4.66 -5.04 5.32 -3 6 C-2.690625 5.38125 -2.38125 4.7625 -2.0625 4.125 C-1.375 2.75 -0.6875 1.375 0 0 Z " fill="#2C353E" transform="translate(245,178)"/>
<path d="M0 0 C2.01231558 0.01417124 4.02319713 0.1339494 6.03125 0.265625 C3.03125 2.265625 3.03125 2.265625 0.03125 2.265625 C1.07222612 6.13210772 2.06823408 9.76023943 4.03125 13.265625 C3.04125 12.605625 2.05125 11.945625 1.03125 11.265625 C-0.62424531 10.88062609 -2.2909933 10.53769365 -3.96875 10.265625 C-4.29875 10.925625 -4.62875 11.585625 -4.96875 12.265625 C-5.29875 10.615625 -5.62875 8.965625 -5.96875 7.265625 C-6.62875 7.265625 -7.28875 7.265625 -7.96875 7.265625 C-7.63875 8.585625 -7.30875 9.905625 -6.96875 11.265625 C-7.95875 10.275625 -8.94875 9.285625 -9.96875 8.265625 C-9.30875 6.945625 -8.64875 5.625625 -7.96875 4.265625 C-6.97875 4.265625 -5.98875 4.265625 -4.96875 4.265625 C-4.576875 3.605625 -4.185 2.945625 -3.78125 2.265625 C-1.96875 0.265625 -1.96875 0.265625 0 0 Z " fill="#3B454C" transform="translate(129.96875,172.734375)"/>
<path d="M0 0 C0 0.66 0 1.32 0 2 C-1.65848177 3.01351664 -3.32665961 4.01120795 -5 5 C-5.680625 5.721875 -6.36125 6.44375 -7.0625 7.1875 C-9 9 -9 9 -13 9 C-13 9.66 -13 10.32 -13 11 C-12.34 11 -11.68 11 -11 11 C-11 11.66 -11 12.32 -11 13 C-10.01 13.33 -9.02 13.66 -8 14 C-8 14.66 -8 15.32 -8 16 C-14.0546875 16.1953125 -14.0546875 16.1953125 -16 16 C-16.66 15.34 -17.32 14.68 -18 14 C-17.79959555 11.3841946 -17.28282605 10.27592785 -15.3984375 8.4375 C-3.52173913 0 -3.52173913 0 0 0 Z " fill="#3C4247" transform="translate(134,111)"/>
<path d="M0 0 C0.78375 0.04125 1.5675 0.0825 2.375 0.125 C0.68529911 3.78898299 -1.49800211 7.03332572 -3.75 10.375 C-4.47445312 11.45265625 -5.19890625 12.5303125 -5.9453125 13.640625 C-6.49960938 14.46046875 -7.05390625 15.2803125 -7.625 16.125 C-8.285 15.795 -8.945 15.465 -9.625 15.125 C-9.295 13.805 -8.965 12.485 -8.625 11.125 C-7.635 11.125 -6.645 11.125 -5.625 11.125 C-5.625 9.475 -5.625 7.825 -5.625 6.125 C-6.615 5.795 -7.605 5.465 -8.625 5.125 C-8.295 3.805 -7.965 2.485 -7.625 1.125 C-6.635 1.455 -5.645 1.785 -4.625 2.125 C-2.625 0.125 -2.625 0.125 0 0 Z " fill="#343C45" transform="translate(251.625,172.875)"/>
<path d="M0 0 C-0.33 1.32 -0.66 2.64 -1 4 C-4.01264352 4.59222907 -6.92416977 5.05823431 -10 5 C-12.5625 3.0625 -12.5625 3.0625 -14 1 C-4.58997722 -1.48063781 -4.58997722 -1.48063781 0 0 Z " fill="#2A363F" transform="translate(158,87)"/>
<path d="M0 0 C1.32 0 2.64 0 4 0 C4 0.99 4 1.98 4 3 C7.3 3 10.6 3 14 3 C14 3.66 14 4.32 14 5 C14.66 5 15.32 5 16 5 C16 5.66 16 6.32 16 7 C6.32231944 7.86066329 6.32231944 7.86066329 2.375 4.625 C0 2 0 2 0 0 Z " fill="#2D353E" transform="translate(137,196)"/>
<path d="M0 0 C1.4540625 0.0309375 1.4540625 0.0309375 2.9375 0.0625 C2.9375 1.7125 2.9375 3.3625 2.9375 5.0625 C-4.44711538 6.41634615 -4.44711538 6.41634615 -7.5625 4.625 C-8.0575 4.109375 -8.5525 3.59375 -9.0625 3.0625 C-8.258125 2.753125 -7.45375 2.44375 -6.625 2.125 C-1.57765152 0.03219697 -1.57765152 0.03219697 0 0 Z " fill="#2E363D" transform="translate(254.0625,72.9375)"/>
<path d="M0 0 C3.33388318 0.16951948 4.94441987 0.43192871 7.6875 2.1875 C4.82572943 3.61838528 2.75374227 2.78741697 -0.3125 2.1875 C0.0175 3.5075 0.3475 4.8275 0.6875 6.1875 C-1.1875 6.8125 -1.1875 6.8125 -3.3125 7.1875 C-3.9725 6.5275 -4.6325 5.8675 -5.3125 5.1875 C-4.68077133 1.01809079 -4.36287555 0.24695522 0 0 Z " fill="#63666E" transform="translate(126.3125,70.8125)"/>
<path d="M0 0 C0.33 0 0.66 0 1 0 C1.125 2.375 1.125 2.375 1 5 C0.34 5.66 -0.32 6.32 -1 7 C-0.34 7.66 0.32 8.32 1 9 C0.01 10.485 0.01 10.485 -1 12 C-2.9375 11.625 -2.9375 11.625 -5 11 C-5.33 10.34 -5.66 9.68 -6 9 C-6.66 8.67 -7.32 8.34 -8 8 C-7.50628906 7.67386719 -7.01257813 7.34773438 -6.50390625 7.01171875 C-5.86324219 6.57472656 -5.22257813 6.13773437 -4.5625 5.6875 C-3.92441406 5.25824219 -3.28632813 4.82898438 -2.62890625 4.38671875 C-0.7114316 2.9965948 -0.7114316 2.9965948 0 0 Z " fill="#4B5761" transform="translate(152,96)"/>
<path d="M0 0 C0 0.66 0 1.32 0 2 C-1.65848177 3.01351664 -3.32665961 4.01120795 -5 5 C-5.928125 6.051875 -5.928125 6.051875 -6.875 7.125 C-9.75876939 9.66950241 -12.24140726 9.71087748 -16 10 C-13.4696646 7.21234235 -10.60660199 5.32536505 -7.4375 3.3125 C-6.46683594 2.68988281 -5.49617187 2.06726563 -4.49609375 1.42578125 C-2 0 -2 0 0 0 Z " fill="#58626B" transform="translate(134,111)"/>
<path d="M0 0 C0 0.66 0 1.32 0 2 C1.32 1.67 2.64 1.34 4 1 C3.67 2.65 3.34 4.3 3 6 C0.69 6.33 -1.62 6.66 -4 7 C-3.67 6.34 -3.34 5.68 -3 5 C-3.99 4.34 -4.98 3.68 -6 3 C-2.25 0 -2.25 0 0 0 Z " fill="#29353F" transform="translate(155,100)"/>
<path d="M0 0 C0.66 1.32 1.32 2.64 2 4 C0.02 6.97 -1.96 9.94 -4 13 C-4.66 12.67 -5.32 12.34 -6 12 C-5.67 10.68 -5.34 9.36 -5 8 C-4.01 8 -3.02 8 -2 8 C-2 5.69 -2 3.38 -2 1 C-1.34 0.67 -0.68 0.34 0 0 Z " fill="#404449" transform="translate(248,176)"/>
<path d="M0 0 C1.1328125 3.7421875 1.1328125 3.7421875 -0.0625 6.0625 C-2.44856292 8.44856292 -4.93357619 9.63714497 -8 11 C-6.63629701 8.00779732 -5.05091917 5.70973471 -2.875 3.25 C-2.33617187 2.63640625 -1.79734375 2.0228125 -1.2421875 1.390625 C-0.62730469 0.70226562 -0.62730469 0.70226562 0 0 Z " fill="#646972" transform="translate(237,178)"/>
<path d="M0 0 C2.475 0.99 2.475 0.99 5 2 C4.67 2.66 4.34 3.32 4 4 C3.34 4 2.68 4 2 4 C2 4.66 2 5.32 2 6 C0.68 5.67 -0.64 5.34 -2 5 C-1.34 3.35 -0.68 1.7 0 0 Z M-3 6 C-2.01 6 -1.02 6 0 6 C0 6.66 0 7.32 0 8 C-0.99 7.67 -1.98 7.34 -3 7 C-3 6.67 -3 6.34 -3 6 Z " fill="#3B404B" transform="translate(246,114)"/>
<path d="M0 0 C0.99 0.33 1.98 0.66 3 1 C3 3.31 3 5.62 3 8 C1.02 8.99 1.02 8.99 -1 10 C-0.34 8.02 0.32 6.04 1 4 C-0.32 3.67 -1.64 3.34 -3 3 C-2.01 2.01 -1.02 1.02 0 0 Z " fill="#27333E" transform="translate(220,196)"/>
<path d="M0 0 C2.64 0.33 5.28 0.66 8 1 C7.67 1.66 7.34 2.32 7 3 C4.35139573 3.59355614 1.70802678 3.74209269 -1 4 C-0.67 2.68 -0.34 1.36 0 0 Z " fill="#424750" transform="translate(201,213)"/>
<path d="M0 0 C0.99 0 1.98 0 3 0 C3.1875 2.875 3.1875 2.875 3 6 C2.01 6.66 1.02 7.32 0 8 C-0.38063221 5.6739143 -0.71269945 3.33944736 -1 1 C-0.67 0.67 -0.34 0.34 0 0 Z " fill="#3E484D" transform="translate(254,165)"/>
<path d="M0 0 C3.3 0 6.6 0 10 0 C9 3 9 3 7.25 3.875 C4.09490914 4.05028283 2.51092775 2.81344782 0 1 C0 0.67 0 0.34 0 0 Z " fill="#424E5B" transform="translate(146,91)"/>
<path d="M0 0 C2.05078125 0.03255208 4.1015625 0.06510417 6.15234375 0.09765625 C3.15234375 2.09765625 3.15234375 2.09765625 0.15234375 2.09765625 C0.15234375 3.74765625 0.15234375 5.39765625 0.15234375 7.09765625 C-0.50765625 6.10765625 -1.16765625 5.11765625 -1.84765625 4.09765625 C-2.83765625 4.59265625 -2.83765625 4.59265625 -3.84765625 5.09765625 C-2.72914438 0.14424653 -2.72914438 0.14424653 0 0 Z " fill="#5D666E" transform="translate(129.84765625,172.90234375)"/>
<path d="M0 0 C0.99 0.66 1.98 1.32 3 2 C3.375 5 3.375 5 3 8 C2.01 8.66 1.02 9.32 0 10 C0 9.34 0 8.68 0 8 C-0.99 8.33 -1.98 8.66 -3 9 C-3 8.34 -3 7.68 -3 7 C-1.35 7 0.3 7 2 7 C1.505 5.824375 1.505 5.824375 1 4.625 C0 2 0 2 0 0 Z " fill="#3D4750" transform="translate(165,91)"/>
<path d="M0 0 C0 0.66 0 1.32 0 2 C-0.99 2.33 -1.98 2.66 -3 3 C-3.99 4.485 -3.99 4.485 -5 6 C-7.625 6.1875 -7.625 6.1875 -10 6 C-7.35570758 3.077361 -4.105808 0 0 0 Z " fill="#60686E" transform="translate(144,105)"/>
<path d="M0 0 C0.99 0.33 1.98 0.66 3 1 C2.34 1.66 1.68 2.32 1 3 C0.3574765 5.06874034 0.3574765 5.06874034 0 7 C-0.66 7 -1.32 7 -2 7 C-2 5.02 -2 3.04 -2 1 C-1.34 0.67 -0.68 0.34 0 0 Z " fill="#2D333B" transform="translate(119,168)"/>
<path d="M0 0 C0.66 0.33 1.32 0.66 2 1 C0.515 3.475 0.515 3.475 -1 6 C-2.65 5.67 -4.3 5.34 -6 5 C-4.60210322 2.20420645 -2.7371003 1.40192942 0 0 Z " fill="#434D57" transform="translate(218,196)"/>
</svg>
