<?xml version="1.0" encoding="UTF-8"?>
<svg version="1.1" xmlns="http://www.w3.org/2000/svg" width="322" height="319">
<path d="M0 0 C0.67832886 0.0013797 1.35665771 0.0027594 2.05554199 0.00418091 C12.10117797 0.04197432 21.21119283 0.75190568 30.625 4.4375 C31.615 4.7675 32.605 5.0975 33.625 5.4375 C33.625 6.0975 33.625 6.7575 33.625 7.4375 C34.28371094 7.52902344 34.94242188 7.62054688 35.62109375 7.71484375 C57.37024245 12.94708368 78.63048357 30.1493432 91.2421875 48.10546875 C92.52865021 50.27501179 93.18312443 51.97319391 93.625 54.4375 C94.285 54.4375 94.945 54.4375 95.625 54.4375 C96.29619549 55.8937545 96.96181807 57.35257867 97.625 58.8125 C97.99625 59.62460938 98.3675 60.43671875 98.75 61.2734375 C99.625 63.4375 99.625 63.4375 99.625 65.4375 C100.285 65.4375 100.945 65.4375 101.625 65.4375 C105.57655455 75.87267317 105.57655455 75.87267317 106.75 80.8125 C107.49257256 84.28505289 107.49257256 84.28505289 108.6105957 86.85595703 C112.75804641 97.41074495 111.96541084 109.43193362 111.94067383 120.58007812 C111.93752869 123.53553711 111.96098684 126.48997763 111.98632812 129.4453125 C112.03726291 144.83373427 110.80471346 159.81674852 105.625 174.4375 C104.965 174.4375 104.305 174.4375 103.625 174.4375 C103.53734375 175.27152344 103.4496875 176.10554687 103.359375 176.96484375 C102.48295267 181.10920252 100.89005377 184.30696946 98.875 188 C98.53984375 188.64646484 98.2046875 189.29292969 97.859375 189.95898438 C95.61523433 194.13699626 93.13205332 197.18251614 89.625 200.4375 C88.93921875 201.18128906 88.2534375 201.92507812 87.546875 202.69140625 C69.70274507 221.65881774 44.30581911 235.45357125 18.11328125 236.58984375 C14.6094684 236.62515653 11.12676435 236.55865479 7.625 236.4375 C6.47 236.40785156 5.315 236.37820313 4.125 236.34765625 C-15.33102053 235.4573696 -32.10105527 227.11598518 -47.375 215.4375 C-48.17550781 214.839375 -48.97601563 214.24125 -49.80078125 213.625 C-61.85017597 204.47455949 -72.48514047 192.37686962 -80.375 179.4375 C-80.375 178.7775 -80.375 178.1175 -80.375 177.4375 C-81.035 177.4375 -81.695 177.4375 -82.375 177.4375 C-83.21264268 175.48100603 -84.04499059 173.52224444 -84.875 171.5625 C-85.3390625 170.47195312 -85.803125 169.38140625 -86.28125 168.2578125 C-87.375 165.4375 -87.375 165.4375 -87.375 163.4375 C-88.035 163.4375 -88.695 163.4375 -89.375 163.4375 C-99.55519252 134.01707306 -103.59274825 102.01543394 -90.78125 72.48046875 C-89.81495873 70.56021135 -88.80199729 68.6621107 -87.7265625 66.80078125 C-86.37897866 64.44445691 -85.51018951 62.18543135 -84.625 59.625 C-80.33215207 48.4199393 -71.87377503 37.72898783 -63.375 29.4375 C-62.55 28.6125 -61.725 27.7875 -60.875 26.9375 C-60.05 26.1125 -59.225 25.2875 -58.375 24.4375 C-57.529375 23.550625 -56.68375 22.66375 -55.8125 21.75 C-53.67887276 19.72578954 -52.06676935 18.53414677 -49.375 17.4375 C-49.375 16.7775 -49.375 16.1175 -49.375 15.4375 C-47.39950586 14.04622212 -45.44893209 12.79091902 -43.375 11.5625 C-42.77558594 11.20389893 -42.17617187 10.84529785 -41.55859375 10.47583008 C-39.83631827 9.45357775 -38.10585299 8.44516094 -36.375 7.4375 C-35.653125 7.00566406 -34.93125 6.57382812 -34.1875 6.12890625 C-23.73811804 0.34120977 -11.6615424 -0.08682295 0 0 Z M-50.375 27.4375 C-51.365 28.159375 -52.355 28.88125 -53.375 29.625 C-58.2367969 33.71701239 -61.71744321 39.30107549 -65.375 44.4375 C-65.92414063 45.19289062 -66.47328125 45.94828125 -67.0390625 46.7265625 C-73.68936747 56.22191772 -78.29294774 66.34164964 -81.6875 77.375 C-81.92984375 78.1481958 -82.1721875 78.9213916 -82.421875 79.71801758 C-86.09355359 92.31348281 -86.75710555 105.26380567 -86.6875 118.3125 C-86.68600952 119.00861389 -86.68451904 119.70472778 -86.6829834 120.42193604 C-86.62802367 134.73074128 -85.70873192 148.34521268 -79.375 161.4375 C-78.80197991 162.69526539 -78.22907312 163.9530824 -77.65625 165.2109375 C-73.52757917 174.05434492 -68.86935455 181.1105359 -62.375 188.4375 C-61.56482422 189.57445312 -61.56482422 189.57445312 -60.73828125 190.734375 C-60.28839844 191.29640625 -59.83851562 191.8584375 -59.375 192.4375 C-58.715 192.4375 -58.055 192.4375 -57.375 192.4375 C-57.13910156 193.00597656 -56.90320313 193.57445312 -56.66015625 194.16015625 C-52.3603905 201.77949798 -43.96319293 206.60358543 -36.375 210.4375 C-35.20202026 211.09074898 -34.03164854 211.74869305 -32.86328125 212.41015625 C-25.53347355 216.52179358 -18.68588446 219.77759695 -10.375 221.4375 C-9.69211914 221.60233887 -9.00923828 221.76717773 -8.30566406 221.93701172 C-1.11149322 223.57550532 5.88886911 223.82098804 13.25 223.8125 C15.09646118 223.81334595 15.09646118 223.81334595 16.98022461 223.81420898 C26.41834159 223.7005865 34.7034142 222.52717297 43.625 219.4375 C44.615 219.1075 45.605 218.7775 46.625 218.4375 C46.625 217.7775 46.625 217.1175 46.625 216.4375 C47.181875 216.33953125 47.73875 216.2415625 48.3125 216.140625 C65.84864244 212.70448898 80.04117903 197.62363593 89.8125 183.2109375 C93.9235517 176.72107629 98.02606888 170.11157837 99.625 162.5 C100.26080171 159.71636393 101.09012648 157.19725671 102.1875 154.5625 C105.5271637 145.86803086 104.81869452 135.9160298 104.8125 126.75 C104.81169434 125.51209717 104.81088867 124.27419434 104.81005859 122.9987793 C104.75181795 114.30436478 104.26705288 105.99225102 102.625 97.4375 C102.49222656 96.61121094 102.35945312 95.78492188 102.22265625 94.93359375 C101.26111265 89.66799783 99.27054486 85.12138827 96.9609375 80.30859375 C95.64195597 77.47394046 94.5439358 74.61053076 93.4375 71.6875 C86.7698759 55.68106078 72.17181014 35.30841772 55.83984375 28.23046875 C55.10894531 27.96878906 54.37804687 27.70710938 53.625 27.4375 C53.625 26.7775 53.625 26.1175 53.625 25.4375 C44.94366527 21.10782167 36.27087584 17.08754845 27.0625 14 C26.33820801 13.75362793 25.61391602 13.50725586 24.86767578 13.25341797 C-1.47301016 4.72376432 -29.32501534 10.0826803 -50.375 27.4375 Z " fill="#313740" transform="translate(151.375,43.5625)"/>
<path d="M0 0 C-1.25 2.5 -1.25 2.5 -3 5 C-4.32 5 -5.64 5 -7 5 C-7 5.66 -7 6.32 -7 7 C-5.35 7.66 -3.7 8.32 -2 9 C-4.63509526 10.75673018 -7.15086035 11.93600375 -10.05078125 13.1640625 C-18.05890858 16.59840969 -25.04126716 20.89678786 -31.140625 27.21875 C-33 29 -33 29 -35 29 C-35.27328125 29.58394531 -35.5465625 30.16789062 -35.828125 30.76953125 C-36.97367207 32.94988918 -38.2376947 34.74833433 -39.75 36.6875 C-48.49931616 48.23320776 -55.05023745 60.08382137 -59.3125 73.9375 C-59.55484375 74.7106958 -59.7971875 75.4838916 -60.046875 76.28051758 C-63.821262 89.22831761 -64.33101725 102.55362928 -64.625 115.9375 C-64.6633315 117.41082649 -64.70239096 118.88413423 -64.7421875 120.35742188 C-64.8364684 123.90477269 -64.92106887 127.45227039 -65 131 C-67.48360441 127.27459338 -67.2315867 125.36937027 -67.1953125 120.92578125 C-67.1924826 120.2419487 -67.18965271 119.55811615 -67.18673706 118.8535614 C-67.17555684 116.67302835 -67.15045691 114.49290855 -67.125 112.3125 C-67.11496738 110.83268823 -67.10584202 109.35287001 -67.09765625 107.87304688 C-67.07562481 104.248564 -67.04111002 100.62432234 -67 97 C-68.485 97.99 -68.485 97.99 -70 99 C-70.66 97.68 -71.32 96.36 -72 95 C-74.58995441 98.88493162 -74.25225542 102.10567236 -74.1953125 106.60546875 C-74.19106766 107.86427605 -74.19106766 107.86427605 -74.18673706 109.14851379 C-74.17554385 111.82832103 -74.15044101 114.50779381 -74.125 117.1875 C-74.11496908 119.00455246 -74.10584343 120.82161017 -74.09765625 122.63867188 C-74.07560734 127.09257675 -74.04108351 131.54623167 -74 136 C-74.33 136 -74.66 136 -75 136 C-79.60545226 112.27369683 -78.70344903 84.74154641 -66.3515625 63.36328125 C-65.00397866 61.00695691 -64.13518951 58.74793135 -63.25 56.1875 C-58.95715207 44.9824393 -50.49877503 34.29148783 -42 26 C-41.175 25.175 -40.35 24.35 -39.5 23.5 C-38.675 22.675 -37.85 21.85 -37 21 C-36.154375 20.113125 -35.30875 19.22625 -34.4375 18.3125 C-32.30387276 16.28828954 -30.69176935 15.09664677 -28 14 C-28 13.34 -28 12.68 -28 12 C-26.02461061 10.60879589 -24.07348142 9.3539295 -22 8.125 C-21.10958008 7.58927368 -21.10958008 7.58927368 -20.20117188 7.04272461 C-4.56180978 -2.28090489 -4.56180978 -2.28090489 0 0 Z " fill="#343A43" transform="translate(130,47)"/>
<path d="M0 0 C1.65 0.33 3.3 0.66 5 1 C5.95481486 3.46660505 6.23002056 5.30847323 5.38671875 7.84375 C4.70898587 9.33866696 4.00549361 10.82201478 3.28515625 12.296875 C2.3650187 14.2322403 1.52726346 16.20761358 0.74609375 18.203125 C-4.5631207 31.69548765 -13.07916469 46.1631736 -26.5 52.9375 C-27.325 53.288125 -28.15 53.63875 -29 54 C-29.33 54.33 -29.66 54.66 -30 55 C-35.28686495 55.50155328 -40.2663328 55.74785644 -45.1875 53.625 C-50.97952339 48.2191115 -56.1504224 42.7772325 -59.98632812 35.80053711 C-61.3193341 33.43278204 -62.80324456 31.1820708 -64.29882812 28.91479492 C-75.46919144 11.97004354 -75.46919144 11.97004354 -76 1 C-72.71536848 0.70139713 -70.69066738 0.55309758 -67.875 2.375 C-65.67445956 5.45575662 -64.57877824 8.50508092 -63.24609375 12.03125 C-59.12035469 21.86059697 -51.26011768 38.45031182 -41.4375 43.25 C-35.39536513 44.56828397 -31.27149697 45.05204968 -25.875 41.9375 C-17.9948693 36.37234933 -14.13665612 28.92698334 -9.83203125 20.5234375 C-8.72782307 18.39977913 -7.57234838 16.30020644 -6.32421875 14.2578125 C-4.81292283 11.89615391 -4.81292283 11.89615391 -4 8.5 C-3.05828046 5.20398162 -1.88907457 2.83361185 0 0 Z " fill="#373D47" transform="translate(193,194)"/>
<path d="M0 0 C1.05121033 -0.00542313 1.05121033 -0.00542313 2.12365723 -0.01095581 C12.3296198 -0.03222434 21.58486696 0.55297857 31.1875 4.3125 C32.1775 4.6425 33.1675 4.9725 34.1875 5.3125 C34.1875 5.9725 34.1875 6.6325 34.1875 7.3125 C35.15623047 7.43818359 35.15623047 7.43818359 36.14453125 7.56640625 C40.32702341 8.59189534 44.0022268 10.39409088 47.875 12.25 C48.64650391 12.61029297 49.41800781 12.97058594 50.21289062 13.34179688 C55.92630035 16.05130035 55.92630035 16.05130035 58.1875 18.3125 C57.8125 20.9375 57.8125 20.9375 57.1875 23.3125 C51.88860222 24.42771012 49.14000221 24.29516182 44.375 21.75 C38.97517479 19.07508659 33.59037658 16.91102192 27.875 15 C27.13467529 14.74597412 26.39435059 14.49194824 25.6315918 14.23022461 C16.38763592 11.18682354 7.46975452 11.15573272 -2.1875 11.1875 C-3.35539062 11.18363281 -4.52328125 11.17976563 -5.7265625 11.17578125 C-11.83886431 11.18263361 -17.76053346 11.39113373 -23.81103516 12.29345703 C-25.8125 12.3125 -25.8125 12.3125 -28.8125 10.3125 C-28.4825 9.6525 -28.1525 8.9925 -27.8125 8.3125 C-26.4925 8.3125 -25.1725 8.3125 -23.8125 8.3125 C-23.73 7.714375 -23.6475 7.11625 -23.5625 6.5 C-22.58302189 3.64318885 -21.37548332 2.85028999 -18.8125 1.3125 C-12.85882943 -0.64897734 -6.19902418 0.0242359 0 0 Z " fill="#2E343E" transform="translate(150.8125,43.6875)"/>
<path d="M0 0 C5.15952988 -0.69959727 5.15952988 -0.69959727 8 0 C14.19078998 6.4462352 14.43033132 14.34602879 14.27734375 22.77734375 C13.83284995 32.59380141 9.93266875 41.06733125 3 48 C0.1875 48.375 0.1875 48.375 -3 48 C-6.56575493 44.45675209 -7.50928034 42.04019621 -7.53125 37.0625 C-7.53922607 35.92538574 -7.54720215 34.78827148 -7.55541992 33.61669922 C-7.53713135 32.42318848 -7.51884277 31.22967773 -7.5 30 C-7.49009033 28.78715332 -7.48018066 27.57430664 -7.4699707 26.32470703 C-7.13163295 10.04726691 -7.13163295 10.04726691 -3 3 C-2.01 2.67 -1.02 2.34 0 2 C0 1.34 0 0.68 0 0 Z " fill="#2A313B" transform="translate(179,112)"/>
<path d="M0 0 C6.63547553 7.92512909 5.81357366 19.28783237 5 29 C3.66349958 35.45398132 1.51374977 42.07590934 -3 47 C-5.4375 47.8125 -5.4375 47.8125 -8 47 C-15.61401294 38.85477686 -15.51870557 28.42664679 -15.25390625 17.7890625 C-14.77709589 10.67358485 -13.04137151 5.2039964 -8 0 C-4.92839759 -1.5358012 -3.23503763 -1.03521204 0 0 Z " fill="#303640" transform="translate(131,113)"/>
<path d="M0 0 C0.66 0.33 1.32 0.66 2 1 C2.33 1.99 2.66 2.98 3 4 C3.99 3.01 4.98 2.02 6 1 C6 12.88 6 24.76 6 37 C6.66 37 7.32 37 8 37 C9.20443195 44.05453001 10.28100502 50.83437211 10 58 C8.02 58.495 8.02 58.495 6 59 C5.67 58.34 5.34 57.68 5 57 C4.01 57.495 4.01 57.495 3 58 C2.67 56.02 2.34 54.04 2 52 C1.34 52 0.68 52 0 52 C-4.19761581 42.53938365 -3.21110142 31.26878624 -3.24023438 21.06982422 C-3.25012004 18.97455688 -3.28135413 16.8802025 -3.3125 14.78515625 C-3.31901654 13.44010987 -3.32427228 12.09505665 -3.328125 10.75 C-3.3374707 9.54859375 -3.34681641 8.3471875 -3.35644531 7.109375 C-2.97380841 3.77152325 -2.26659564 2.41770202 0 0 Z " fill="#2C313C" transform="translate(58,141)"/>
<path d="M0 0 C0.99 0.66 1.98 1.32 3 2 C1.3628364 12.30450033 1.3628364 12.30450033 -0.5 17.25 C-4.56217688 28.79855622 -4.35892629 41.82421711 -4.625 53.9375 C-4.6633315 55.41082649 -4.70239096 56.88413423 -4.7421875 58.35742188 C-4.8364684 61.90477269 -4.92106887 65.45227039 -5 69 C-7.48360441 65.27459338 -7.2315867 63.36937027 -7.1953125 58.92578125 C-7.1924826 58.2419487 -7.18965271 57.55811615 -7.18673706 56.8535614 C-7.17555684 54.67302835 -7.15045691 52.49290855 -7.125 50.3125 C-7.11496738 48.83268823 -7.10584202 47.35287001 -7.09765625 45.87304688 C-7.07562481 42.248564 -7.04111002 38.62432234 -7 35 C-7.99 35.66 -8.98 36.32 -10 37 C-10.66 35.68 -11.32 34.36 -12 33 C-14.58995441 36.88493162 -14.25225542 40.10567236 -14.1953125 44.60546875 C-14.19106766 45.86427605 -14.19106766 45.86427605 -14.18673706 47.14851379 C-14.17554385 49.82832103 -14.15044101 52.50779381 -14.125 55.1875 C-14.11496908 57.00455246 -14.10584343 58.82161017 -14.09765625 60.63867188 C-14.07560734 65.09257675 -14.04108351 69.54623167 -14 74 C-14.33 74 -14.66 74 -15 74 C-18.34690442 56.75746561 -18.12569972 39.88556625 -14.3125 22.75 C-13.94705078 21.06245605 -13.94705078 21.06245605 -13.57421875 19.34082031 C-13.19136719 17.77219238 -13.19136719 17.77219238 -12.80078125 16.171875 C-12.57559814 15.2447168 -12.35041504 14.31755859 -12.1184082 13.36230469 C-10.67445723 10.31238771 -8.92745457 9.55547462 -6 8 C-5.67 7.34 -5.34 6.68 -5 6 C-3.38437925 3.95531276 -1.68561477 1.98816101 0 0 Z " fill="#434852" transform="translate(70,109)"/>
<path d="M0 0 C0.33 0 0.66 0 1 0 C1.12815779 6.15767666 0.75780241 11.8783663 -0.3125 17.9375 C-0.44567627 18.71657715 -0.57885254 19.4956543 -0.71606445 20.29833984 C-1.72944148 26.00340909 -3.06238479 31.53070318 -5 37 C-5.66 37 -6.32 37 -7 37 C-7.0928125 38.2065625 -7.0928125 38.2065625 -7.1875 39.4375 C-8.26536993 44.1635451 -10.51591419 47.87513427 -13 52 C-13.99 50.68 -14.98 49.36 -16 48 C-17.98491642 48.26676204 -17.98491642 48.26676204 -20 49 C-20.33 49.99 -20.66 50.98 -21 52 C-22.9375 52.625 -22.9375 52.625 -25 53 C-25.99 53.495 -25.99 53.495 -27 54 C-25.47577031 50.77133613 -23.64771187 47.8566083 -21.6875 44.875 C-17.2343819 37.90772564 -13.25058197 31.17145224 -11.53515625 23.02734375 C-10.51565146 19.16513216 -8.71463686 15.59574332 -7 12 C-5.02 12 -3.04 12 -1 12 C-1.01160156 11.38511719 -1.02320313 10.77023438 -1.03515625 10.13671875 C-1.04417969 9.32847656 -1.05320312 8.52023438 -1.0625 7.6875 C-1.07410156 6.88699219 -1.08570313 6.08648437 -1.09765625 5.26171875 C-1 3 -1 3 0 0 Z " fill="#353B44" transform="translate(262,181)"/>
<path d="M0 0 C1.32 0.66 2.64 1.32 4 2 C4 2.66 4 3.32 4 4 C5.32 3.67 6.64 3.34 8 3 C8 3.66 8 4.32 8 5 C9.65 5 11.3 5 13 5 C13 4.34 13 3.68 13 3 C13.66 3 14.32 3 15 3 C15 2.01 15 1.02 15 0 C22.01694482 1.25397873 29.01556007 2.57584088 36 4 C36 4.33 36 4.66 36 5 C35.15695313 5.06058594 34.31390625 5.12117188 33.4453125 5.18359375 C32.34960938 5.26738281 31.25390625 5.35117187 30.125 5.4375 C28.48917969 5.55931641 28.48917969 5.55931641 26.8203125 5.68359375 C24.05271029 5.83001703 24.05271029 5.83001703 22 7 C21.67 7.99 21.34 8.98 21 10 C22.98 9.67 24.96 9.34 27 9 C26.67 10.98 26.34 12.96 26 15 C20.13194506 14.4806345 15.59222327 12.74160669 10.3125 10.1875 C9.19391602 9.67219727 9.19391602 9.67219727 8.05273438 9.14648438 C4.03648796 7.23688639 0.93587625 5.44713702 -2 2 C-1.34 2 -0.68 2 0 2 C0 1.34 0 0.68 0 0 Z " fill="#363A43" transform="translate(115,262)"/>
<path d="M0 0 C0.721875 0.268125 1.44375 0.53625 2.1875 0.8125 C4.2620356 0.9615712 4.2620356 0.9615712 6.1875 -0.1875 C6.5175 1.4625 6.8475 3.1125 7.1875 4.8125 C4.88432191 6.84965752 2.54699162 8.84087002 0.1875 10.8125 C-0.39902344 11.31136719 -0.98554688 11.81023437 -1.58984375 12.32421875 C-5.7557618 15.62105639 -8.35915568 16.24021328 -13.8125 15.8125 C-14.4725 16.1425 -15.1325 16.4725 -15.8125 16.8125 C-16.9375 12.0625 -16.9375 12.0625 -15.8125 9.8125 C-13.25 9.1875 -13.25 9.1875 -10.8125 8.8125 C-10.71453125 8.21050781 -10.6165625 7.60851562 -10.515625 6.98828125 C-9.45737442 3.71358361 -7.43404541 2.58699568 -4.66015625 0.71875 C-2.8125 -0.1875 -2.8125 -0.1875 0 0 Z " fill="#29303A" transform="translate(222.8125,249.1875)"/>
<path d="M0 0 C0.33 0 0.66 0 1 0 C1.33 8.91 1.66 17.82 2 27 C3.32 25.68 4.64 24.36 6 23 C6.66 23 7.32 23 8 23 C8 22.34 8 21.68 8 21 C11.58934136 16.97558696 15.58335198 14.03103296 20 11 C19.513394 18.46129201 16.47937489 24.64084692 12.0625 30.625 C9.13450185 32.57699876 7.4406554 32.64512289 4 32 C1.31829098 29.35249337 0.10614996 27.71206077 -0.45410156 23.95385742 C-0.4331543 22.84888916 -0.41220703 21.7439209 -0.390625 20.60546875 C-0.37773437 19.40341797 -0.36484375 18.20136719 -0.3515625 16.96289062 C-0.31804687 15.71701172 -0.28453125 14.47113281 -0.25 13.1875 C-0.23195312 11.92228516 -0.21390625 10.65707031 -0.1953125 9.35351562 C-0.14823916 6.23490665 -0.08249094 3.11784027 0 0 Z " fill="#565B63" transform="translate(172,128)"/>
<path d="M0 0 C3.87791045 3.87791045 4.799659 10.01965066 6.0625 15.25 C6.85450088 18.81939171 6.85450088 18.81939171 7.98828125 21.359375 C9.09353549 24.24413125 9.6351569 26.95208737 10.125 30 C10.29257812 31.010625 10.46015625 32.02125 10.6328125 33.0625 C10.96864471 35.74915771 11.06956677 38.29683403 11 41 C10.67 39.68 10.34 38.36 10 37 C9.34 37 8.68 37 8 37 C7.87625 35.081875 7.87625 35.081875 7.75 33.125 C7.54130069 30.94666582 7.54130069 30.94666582 7 29 C5.07935207 27.4100567 5.07935207 27.4100567 3 27 C2.67 28.65 2.34 30.3 2 32 C0.5420162 29.222888 -0.58784797 26.48008789 -1.5625 23.5 C-1.93568359 22.37078125 -1.93568359 22.37078125 -2.31640625 21.21875 C-2.95127412 19.15815028 -3.4996175 17.09684096 -4 15 C-3.01 14.67 -2.02 14.34 -1 14 C-0.34 13.34 0.32 12.68 1 12 C1 9.81125763 0.70017075 7.61435695 0.5 5.4375 C0.4071875 4.42558594 0.314375 3.41367188 0.21875 2.37109375 C0.1465625 1.58863281 0.074375 0.80617188 0 0 Z " fill="#3F454D" transform="translate(252,109)"/>
<path d="M0 0 C4.73257584 2.29867969 7.47101904 5.47701482 10 10 C10.33 11.32 10.66 12.64 11 14 C13.64 14.66 16.28 15.32 19 16 C18.67 16.99 18.34 17.98 18 19 C10.10624182 20.42741161 10.10624182 20.42741161 6.25 18.9375 C3.29597619 16.39375727 1.18249386 14.27374079 -1 11 C-0.8125 7.625 -0.8125 7.625 0 5 C-0.66 4.67 -1.32 4.34 -2 4 C-1.34 2.68 -0.68 1.36 0 0 Z " fill="#353745" transform="translate(137,224)"/>
<path d="M0 0 C0 0.66 0 1.32 0 2 C-1.65 2.33 -3.3 2.66 -5 3 C-5 5.31 -5 7.62 -5 10 C-4.67 9.34 -4.34 8.68 -4 8 C-1.03 8.495 -1.03 8.495 2 9 C-2.2525534 12.80761823 -6.76484539 14.93686742 -11.9375 17.1875 C-12.72318359 17.54263672 -13.50886719 17.89777344 -14.31835938 18.26367188 C-18.54497642 20.12762768 -22.35937538 21.50092801 -27 22 C-26.67 21.34 -26.34 20.68 -26 20 C-24.68 20 -23.36 20 -22 20 C-21.67 19.01 -21.34 18.02 -21 17 C-19.02 16.67 -17.04 16.34 -15 16 C-15.2475 15.2575 -15.495 14.515 -15.75 13.75 C-15.8325 12.8425 -15.915 11.935 -16 11 C-14.0625 8.6875 -14.0625 8.6875 -12 7 C-13.65 7 -15.3 7 -17 7 C-16.01 6.67 -15.02 6.34 -14 6 C-14 5.34 -14 4.68 -14 4 C-12.23141309 3.32739649 -10.46003984 2.66211605 -8.6875 2 C-7.70136719 1.62875 -6.71523437 1.2575 -5.69921875 0.875 C-3 0 -3 0 0 0 Z " fill="#2C323E" transform="translate(212,256)"/>
<path d="M0 0 C3.28463152 -0.29860287 5.30933262 -0.44690242 8.125 1.375 C10.87062072 5.21886901 12.70923584 9.45460964 14 14 C13.67 14.66 13.34 15.32 13 16 C12.01 15.67 11.02 15.34 10 15 C9.67 14.34 9.34 13.68 9 13 C8.34 14.98 7.68 16.96 7 19 C2.46353456 14.15067487 0.21653112 8.53667496 -0.1875 1.9375 C-0.125625 1.298125 -0.06375 0.65875 0 0 Z " fill="#29303A" transform="translate(117,195)"/>
<path d="M0 0 C1.134375 0.45375 2.26875 0.9075 3.4375 1.375 C7.87388854 3.04955811 12.35475228 4.0860045 17 5 C17 8 17 8 15.5 9.6875 C15.005 10.120625 14.51 10.55375 14 11 C14.66 11.33 15.32 11.66 16 12 C16 12.66 16 13.32 16 14 C4.17706267 14.6887148 4.17706267 14.6887148 0.3125 12.125 C-2 10 -2 10 -3 8 C0.63 8 4.26 8 8 8 C7.67 7.01 7.34 6.02 7 5 C5.865625 4.87625 4.73125 4.7525 3.5625 4.625 C2.386875 4.41875 1.21125 4.2125 0 4 C-0.33 3.34 -0.66 2.68 -1 2 C-0.67 1.34 -0.34 0.68 0 0 Z " fill="#3A4049" transform="translate(147,235)"/>
<path d="M0 0 C2.67244967 1.00847158 3.80077339 1.64834922 5.23046875 4.171875 C6.94372884 8.7871879 8.38573764 13.08590109 9 18 C9.33 18.66 9.66 19.32 10 20 C7.64046906 22.35953094 6.22104383 22.49141413 3 23 C1 20 1 20 1.25 17.5 C2 15 2 15 4 12 C3.34 12 2.68 12 2 12 C2 12.66 2 13.32 2 14 C1.34 14 0.68 14 0 14 C-0.625 12.125 -0.625 12.125 -1 10 C-0.34 9.34 0.32 8.68 1 8 C0.6814823 5.89179203 0.6814823 5.89179203 0 4 C-0.66 4 -1.32 4 -2 4 C-1.34 2.68 -0.68 1.36 0 0 Z " fill="#292E38" transform="translate(245,101)"/>
<path d="M0 0 C0.33 0.66 0.66 1.32 1 2 C0.06553465 4.03144641 -0.93224776 6.03533587 -2 8 C-2.99 7.67 -3.98 7.34 -5 7 C-5 7.66 -5 8.32 -5 9 C-4.34 9.33 -3.68 9.66 -3 10 C-2.67 9.67 -2.34 9.34 -2 9 C-1.34 9 -0.68 9 0 9 C0 8.34 0 7.68 0 7 C1.65 7 3.3 7 5 7 C5.33 7.99 5.66 8.98 6 10 C3.03 12.97 0.06 15.94 -3 19 C-3.66 18.34 -4.32 17.68 -5 17 C-5 16.01 -5 15.02 -5 14 C-5.99 14.99 -6.98 15.98 -8 17 C-8.33 16.34 -8.66 15.68 -9 15 C-11.01669827 13.86649466 -11.01669827 13.86649466 -13 13 C-11.37660195 11.29115995 -9.70680947 9.62553283 -8 8 C-7.34 8 -6.68 8 -6 8 C-5.7525 7.4225 -5.505 6.845 -5.25 6.25 C-3.83316683 3.6997003 -2.12372463 1.98214299 0 0 Z " fill="#333942" transform="translate(234,235)"/>
<path d="M0 0 C0.33 0 0.66 0 1 0 C1.12815779 6.15767666 0.75780241 11.8783663 -0.3125 17.9375 C-0.44567627 18.71657715 -0.57885254 19.4956543 -0.71606445 20.29833984 C-1.72944148 26.00340909 -3.06238479 31.53070318 -5 37 C-5.76746853 34.35900534 -6.00433275 33.02383013 -5.5 30.25 C-4.88024527 26.22159424 -5.37637044 23.01894608 -6 19 C-6.66 19 -7.32 19 -8 19 C-8 17.02 -8 15.04 -8 13 C-3.25 12 -3.25 12 -1 12 C-1.01160156 11.38511719 -1.02320313 10.77023438 -1.03515625 10.13671875 C-1.04417969 9.32847656 -1.05320312 8.52023438 -1.0625 7.6875 C-1.07410156 6.88699219 -1.08570313 6.08648437 -1.09765625 5.26171875 C-1 3 -1 3 0 0 Z " fill="#454A52" transform="translate(262,181)"/>
<path d="M0 0 C0.12246094 0.61359375 0.24492188 1.2271875 0.37109375 1.859375 C1.20861499 4.71006841 2.82799528 6.03818928 5 8 C2.50127818 11.8373228 -0.0843836 15.45960866 -3 19 C-3.50615298 17.73160474 -4.00469099 16.46016898 -4.5 15.1875 C-4.7784375 14.47980469 -5.056875 13.77210937 -5.34375 13.04296875 C-6 11 -6 11 -6 8 C-4.6875 5.95703125 -4.6875 5.95703125 -3 3.8125 C-2.443125 3.09707031 -1.88625 2.38164063 -1.3125 1.64453125 C-0.879375 1.10183594 -0.44625 0.55914062 0 0 Z " fill="#343A42" transform="translate(83,78)"/>
<path d="M0 0 C2.36365435 2.46213995 2.98437261 3.88167837 3.4375 7.3125 C2.88374847 11.97983432 1.7415003 14.1923607 -1 18 C-3.140625 18.6953125 -3.140625 18.6953125 -5 19 C-5.08114106 17.22992286 -5.13925505 15.45877902 -5.1875 13.6875 C-5.22230469 12.70136719 -5.25710937 11.71523437 -5.29296875 10.69921875 C-4.95364922 7.57295485 -4.33729723 6.96332967 -2 5 C-0.80972016 2.40084462 -0.80972016 2.40084462 0 0 Z " fill="#2B343C" transform="translate(77,88)"/>
<path d="M0 0 C1.65 0.33 3.3 0.66 5 1 C6.07010304 3.76443285 6.16283213 5.53851367 5.17578125 8.3359375 C4.16488321 10.58474227 3.11596524 12.80159637 2 15 C1.01 14.67 0.02 14.34 -1 14 C-1.33 11.69 -1.66 9.38 -2 7 C-2.99 7.495 -2.99 7.495 -4 8 C-2.87548273 5.0280615 -1.77706209 2.66559313 0 0 Z " fill="#4C4F5A" transform="translate(193,194)"/>
<path d="M0 0 C0.66 0.33 1.32 0.66 2 1 C1.63375673 7.10405445 0.43139015 9.9625112 -4 14 C-7.3125 14.375 -7.3125 14.375 -10 14 C-9.67 12.68 -9.34 11.36 -9 10 C-8.34 10 -7.68 10 -7 10 C-6.7525 9.4225 -6.505 8.845 -6.25 8.25 C-4.83182749 5.69728947 -3.08954871 4.02214391 -1 2 C-0.67 1.34 -0.34 0.68 0 0 Z " fill="#33363C" transform="translate(186,146)"/>
<path d="M0 0 C0.33 0.99 0.66 1.98 1 3 C2.87387216 3.80212628 2.87387216 3.80212628 5.0625 4.1875 C5.79597656 4.34605469 6.52945313 4.50460938 7.28515625 4.66796875 C7.85105469 4.77753906 8.41695312 4.88710937 9 5 C8.67 5.99 8.34 6.98 8 8 C6.58566794 8.2236337 5.16832382 8.42826476 3.75 8.625 C2.96109375 8.74101562 2.1721875 8.85703125 1.359375 8.9765625 C-1.38225999 9.00379728 -2.75691199 8.56215058 -5 7 C-5.75 3.875 -5.75 3.875 -6 1 C-3.92446352 0.4465236 -2.15634036 0 0 0 Z " fill="#272E38" transform="translate(147,235)"/>
<path d="M0 0 C3.36840664 1.372838 4.6920202 2.59829645 6.25 5.875 C6.58515625 6.55304688 6.9203125 7.23109375 7.265625 7.9296875 C8 10 8 10 8 14 C7.01 14 6.02 14 5 14 C2.75 11.75 2.75 11.75 1 9 C1.25 6.6875 1.25 6.6875 2 5 C1.34 4.67 0.68 4.34 0 4 C0 5.65 0 7.3 0 9 C-0.99 8.01 -1.98 7.02 -3 6 C-2.34 6 -1.68 6 -1 6 C-1.20625 5.38125 -1.4125 4.7625 -1.625 4.125 C-1.74875 3.42375 -1.8725 2.7225 -2 2 C-1.34 1.34 -0.68 0.68 0 0 Z " fill="#272E38" transform="translate(94,239)"/>
<path d="M0 0 C0.33 0 0.66 0 1 0 C1.144375 1.0725 1.28875 2.145 1.4375 3.25 C1.86720253 6.77502067 1.86720253 6.77502067 2.6875 9.1875 C3 11 3 11 2.4375 13.1875 C1 15 1 15 -2.125 15.75 C-3.548125 15.87375 -3.548125 15.87375 -5 16 C-4.24228029 4.24228029 -4.24228029 4.24228029 0 0 Z " fill="#2D2F3C" transform="translate(191,200)"/>
<path d="M0 0 C1.41487887 4.59835633 1.73097075 8.47160661 -0.375 12.875 C-0.91125 13.57625 -1.4475 14.2775 -2 15 C-2.66 15 -3.32 15 -4 15 C-4 14.34 -4 13.68 -4 13 C-4.66 13 -5.32 13 -6 13 C-6.66 11.35 -7.32 9.7 -8 8 C-7.34 8 -6.68 8 -6 8 C-5.87625 7.21625 -5.7525 6.4325 -5.625 5.625 C-5 3 -5 3 -3 1 C-3 2.65 -3 4.3 -3 6 C-2.01 4.02 -1.02 2.04 0 0 Z " fill="#303542" transform="translate(253,214)"/>
<path d="M0 0 C4.8 3.32307692 4.8 3.32307692 5.8125 6.75 C5.874375 7.4925 5.93625 8.235 6 9 C5.34 9 4.68 9 4 9 C3.67 10.65 3.34 12.3 3 14 C2.34 14 1.68 14 1 14 C-0.93526642 11.70635091 -1.99817165 9.97268179 -2.00390625 6.921875 C-1.35285132 1.35285132 -1.35285132 1.35285132 0 0 Z " fill="#333841" transform="translate(126,207)"/>
<path d="M0 0 C0.66 0.66 1.32 1.32 2 2 C1.625 4.625 1.625 4.625 1 7 C-0.98 7.33 -2.96 7.66 -5 8 C-5 7.01 -5 6.02 -5 5 C-5.66 5 -6.32 5 -7 5 C-7.66 3.35 -8.32 1.7 -9 0 C-5.88135455 -1.55932272 -3.33704665 -0.65549131 0 0 Z " fill="#2B303E" transform="translate(207,60)"/>
<path d="M0 0 C1.32 0.66 2.64 1.32 4 2 C4 2.66 4 3.32 4 4 C5.32 3.67 6.64 3.34 8 3 C8 3.66 8 4.32 8 5 C9.98 5 11.96 5 14 5 C14 5.99 14 6.98 14 8 C14.66 8.33 15.32 8.66 16 9 C15.34 9 14.68 9 14 9 C14 9.66 14 10.32 14 11 C8.03347646 9.42986223 3.17090975 6.24970218 -2 3 C-1.34 2.67 -0.68 2.34 0 2 C0 1.34 0 0.68 0 0 Z " fill="#43474F" transform="translate(115,262)"/>
<path d="M0 0 C0.66 0.99 1.32 1.98 2 3 C1.67 3.5775 1.34 4.155 1 4.75 C-0.27075898 7.19883862 -0.27075898 7.19883862 0 11 C0.33 9.68 0.66 8.36 1 7 C1.99 7.33 2.98 7.66 4 8 C3.67 9.65 3.34 11.3 3 13 C4.32 13.99 5.64 14.98 7 16 C6.67 16.99 6.34 17.98 6 19 C4.34786411 17.56974806 2.70347411 16.13054455 1.0625 14.6875 C0.14597656 13.88699219 -0.77054687 13.08648437 -1.71484375 12.26171875 C-4 10 -4 10 -5 7 C-4.0409375 6.1028125 -4.0409375 6.1028125 -3.0625 5.1875 C-0.79689611 3.09189663 -0.79689611 3.09189663 0 0 Z " fill="#444A53" transform="translate(93,236)"/>
<path d="M0 0 C3.37705625 0.53725895 6.696686 1.11064623 10 2 C8.93262982 5.09537351 8.02481433 5.98455997 5.1875 7.75 C2.13441107 8.94728978 0.22691821 9.28472808 -3 9 C-1.625 6.5 -1.625 6.5 0 4 C0.66 4 1.32 4 2 4 C2 3.01 2 2.02 2 1 C1.34 0.67 0.68 0.34 0 0 Z " fill="#2F343D" transform="translate(162,239)"/>
<path d="M0 0 C4.875 4.625 4.875 4.625 6 8 C5.34 8 4.68 8 4 8 C3.67 9.32 3.34 10.64 3 12 C1.125 11.8125 1.125 11.8125 -1 11 C-2.25 8.4375 -2.25 8.4375 -3 6 C-1.35 5.67 0.3 5.34 2 5 C1.34 3.35 0.68 1.7 0 0 Z " fill="#2A2F38" transform="translate(80,223)"/>
<path d="M0 0 C2.24956302 2.24956302 3.00510965 4.06323263 4.1875 7 C4.55230469 7.886875 4.91710937 8.77375 5.29296875 9.6875 C6 12 6 12 5 14 C4.01 13.67 3.02 13.34 2 13 C1.67 12.34 1.34 11.68 1 11 C0.34 12.98 -0.32 14.96 -1 17 C-2.32 15.35 -3.64 13.7 -5 12 C-4.67 11.34 -4.34 10.68 -4 10 C-2.68 10 -1.36 10 0 10 C0 6.7 0 3.4 0 0 Z " fill="#5E636A" transform="translate(125,197)"/>
<path d="M0 0 C2.96404505 2.80804268 5.44499019 5.18315774 7 9 C5.68 9 4.36 9 3 9 C2.67 9.66 2.34 10.32 2 11 C1.34 11 0.68 11 0 11 C-0.33 11.66 -0.66 12.32 -1 13 C-1.66 11.68 -2.32 10.36 -3 9 C-2.34 8.67 -1.68 8.34 -1 8 C0.53712084 5.65386819 1.09239476 4.55436855 0.625 1.75 C0.41875 1.1725 0.2125 0.595 0 0 Z " fill="#3C434C" transform="translate(84,226)"/>
<path d="M0 0 C5.37305699 -0.35233161 5.37305699 -0.35233161 8 0 C10 2 10 2 11 4 C10.67 4.66 10.34 5.32 10 6 C8.948125 5.5359375 8.948125 5.5359375 7.875 5.0625 C4.91063343 3.96697322 2.12301892 3.43577008 -1 3 C-0.67 4.32 -0.34 5.64 0 7 C-1.32 7.33 -2.64 7.66 -4 8 C-3.34 6.02 -2.68 4.04 -2 2 C-1.34 2 -0.68 2 0 2 C0 1.34 0 0.68 0 0 Z " fill="#52555C" transform="translate(179,112)"/>
<path d="M0 0 C0.99 0 1.98 0 3 0 C5 3 5 3 4.8125 4.9375 C3.86387056 7.34555934 2.72230679 9.0710164 1 11 C0.34 11 -0.32 11 -1 11 C-1.66 9.35 -2.32 7.7 -3 6 C-1.68 5.67 -0.36 5.34 1 5 C0.67 3.35 0.34 1.7 0 0 Z " fill="#2C3036" transform="translate(177,227)"/>
<path d="M0 0 C0 0.66 0 1.32 0 2 C-1.65 2.33 -3.3 2.66 -5 3 C-5 3.66 -5 4.32 -5 5 C-5.66 5.66 -6.32 6.32 -7 7 C-10.33333333 7 -13.66666667 7 -17 7 C-16.01 6.67 -15.02 6.34 -14 6 C-14 5.34 -14 4.68 -14 4 C-12.23141309 3.32739649 -10.46003984 2.66211605 -8.6875 2 C-7.70136719 1.62875 -6.71523437 1.2575 -5.69921875 0.875 C-3 0 -3 0 0 0 Z " fill="#4C4F58" transform="translate(212,256)"/>
<path d="M0 0 C0.99 0.66 1.98 1.32 3 2 C2.9375 4.3125 2.9375 4.3125 2 7 C-1.5625 8.8125 -1.5625 8.8125 -5 10 C-5.8125 8.3125 -5.8125 8.3125 -6 6 C-3.625 3.3125 -3.625 3.3125 -1 1 C-0.67 0.67 -0.34 0.34 0 0 Z " fill="#28313D" transform="translate(70,109)"/>
<path d="M0 0 C1.32 0.33 2.64 0.66 4 1 C2.83857315 5.35535069 1.92300495 7.64619703 -2 10 C-2.66 8.35 -3.32 6.7 -4 5 C-2.68 3.35 -1.36 1.7 0 0 Z " fill="#394148" transform="translate(244,232)"/>
<path d="M0 0 C0.33 0.66 0.66 1.32 1 2 C0.67 2.99 0.34 3.98 0 5 C0.66 5 1.32 5 2 5 C2.33 4.34 2.66 3.68 3 3 C3.66 3.66 4.32 4.32 5 5 C4.63318342 7.93453261 4.13562754 8.86437246 2 11 C1.731875 10.195625 1.46375 9.39125 1.1875 8.5625 C0.795625 7.716875 0.40375 6.87125 0 6 C-0.99 5.67 -1.98 5.34 -3 5 C-2.01 3.35 -1.02 1.7 0 0 Z " fill="#3E424C" transform="translate(180,221)"/>
<path d="M0 0 C0.99 0.495 0.99 0.495 2 1 C1.67 2.32 1.34 3.64 1 5 C0.67 3.35 0.34 1.7 0 0 Z M-2 2 C-1.67 2.99 -1.34 3.98 -1 5 C-0.34 5.33 0.32 5.66 1 6 C0.01 7.32 -0.98 8.64 -2 10 C-2 9.34 -2 8.68 -2 8 C-2.99 8.33 -3.98 8.66 -5 9 C-5 8.34 -5 7.68 -5 7 C-5.66 7 -6.32 7 -7 7 C-7.33 5.68 -7.66 4.36 -8 3 C-7.01 3.33 -6.02 3.66 -5 4 C-5 4.66 -5 5.32 -5 6 C-4.34 5.67 -3.68 5.34 -3 5 C-2.67 4.01 -2.34 3.02 -2 2 Z " fill="#464B53" transform="translate(76,214)"/>
<path d="M0 0 C-1.375 2.5 -1.375 2.5 -3 5 C-3.66 5 -4.32 5 -5 5 C-5 4.01 -5 3.02 -5 2 C-6.65 2.33 -8.3 2.66 -10 3 C-10 3.66 -10 4.32 -10 5 C-11.65 5 -13.3 5 -15 5 C-12.6050586 2.18614146 -10.46053694 1.26695912 -6.9375 0.25 C-5.62072266 -0.14445312 -5.62072266 -0.14445312 -4.27734375 -0.546875 C-2 -1 -2 -1 0 0 Z " fill="#525860" transform="translate(130,47)"/>
<path d="M0 0 C1.32 1.32 2.64 2.64 4 4 C3.34 4.66 2.68 5.32 2 6 C0.68 6 -0.64 6 -2 6 C-1.67 7.65 -1.34 9.3 -1 11 C-5.875 6.25 -5.875 6.25 -7 4 C-4.69 4 -2.38 4 0 4 C0 2.68 0 1.36 0 0 Z " fill="#42444F" transform="translate(143,230)"/>
<path d="M0 0 C1.98 0.99 3.96 1.98 6 3 C6 3.99 6 4.98 6 6 C4.02 6.33 2.04 6.66 0 7 C0 6.34 0 5.68 0 5 C-0.66 5 -1.32 5 -2 5 C-1.125 1.125 -1.125 1.125 0 0 Z " fill="#272D35" transform="translate(71,213)"/>
<path d="M0 0 C1.32 0.66 2.64 1.32 4 2 C3.01 2.33 2.02 2.66 1 3 C-0.01540112 7.10223585 -0.01540112 7.10223585 1 11 C-1.475 10.01 -1.475 10.01 -4 9 C-4 8.34 -4 7.68 -4 7 C-4.99 6.67 -5.98 6.34 -7 6 C-5.5459375 5.62875 -5.5459375 5.62875 -4.0625 5.25 C-2.5465625 4.63125 -2.5465625 4.63125 -1 4 C-0.03122943 1.96756452 -0.03122943 1.96756452 0 0 Z " fill="#414550" transform="translate(209,62)"/>
<path d="M0 0 C0 0.99 0 1.98 0 3 C-0.66 3 -1.32 3 -2 3 C-2 3.66 -2 4.32 -2 5 C-3.65 5.33 -5.3 5.66 -7 6 C-7.33 4.68 -7.66 3.36 -8 2 C-2.25 0 -2.25 0 0 0 Z " fill="#282C3C" transform="translate(130,262)"/>
<path d="M0 0 C1.32 0.66 2.64 1.32 4 2 C4 2.99 4 3.98 4 5 C3.67 5 3.34 5 3 5 C3 5.66 3 6.32 3 7 C1.02 7.66 -0.96 8.32 -3 9 C-3.33 8.34 -3.66 7.68 -4 7 C-3.34 6.67 -2.68 6.34 -2 6 C-1.27306096 4.02111039 -0.60183749 2.02045442 0 0 Z " fill="#3E454C" transform="translate(79,221)"/>
<path d="M0 0 C0.0825 0.5775 0.165 1.155 0.25 1.75 C1.20531013 4.6159304 2.78469173 5.9990764 5 8 C4.34 8.66 3.68 9.32 3 10 C2.13375 9.2265625 2.13375 9.2265625 1.25 8.4375 C-0.87827523 6.73494807 -0.87827523 6.73494807 -3.25 7.3125 C-3.8275 7.539375 -4.405 7.76625 -5 8 C-3.62845496 5.04590299 -2.01136276 2.55991624 0 0 Z " fill="#5B6064" transform="translate(83,78)"/>
<path d="M0 0 C0.99 0.33 1.98 0.66 3 1 C2.67 2.65 2.34 4.3 2 6 C-2.05606165 5.53199289 -5.46588679 5.12046792 -9 3 C-6.13822943 1.56911472 -4.06624227 2.40008303 -1 3 C-1.33 2.34 -1.66 1.68 -2 1 C-1.34 0.67 -0.68 0.34 0 0 Z " fill="#5C5D65" transform="translate(139,271)"/>
<path d="M0 0 C2 2 2 2 2 5 C1.01 5.33 0.02 5.66 -1 6 C-1.99 7.485 -1.99 7.485 -3 9 C-4.32 8.67 -5.64 8.34 -7 8 C-4.69 5.36 -2.38 2.72 0 0 Z " fill="#494C52" transform="translate(176,227)"/>
<path d="M0 0 C2 1.375 2 1.375 4 3 C4 3.66 4 4.32 4 5 C3.34 5 2.68 5 2 5 C1.67 6.65 1.34 8.3 1 10 C0.34 10 -0.32 10 -1 10 C-0.67 8.35 -0.34 6.7 0 5 C-0.66 4.67 -1.32 4.34 -2 4 C-1.34 2.68 -0.68 1.36 0 0 Z " fill="#292E37" transform="translate(137,224)"/>
<path d="M0 0 C4 0 4 0 7 1 C6.67 2.98 6.34 4.96 6 7 C5.34 7 4.68 7 4 7 C4 6.34 4 5.68 4 5 C3.34 5 2.68 5 2 5 C1.34 3.35 0.68 1.7 0 0 Z " fill="#282D37" transform="translate(245,222)"/>
<path d="M0 0 C2.1519437 3.22791555 2.20086443 4.28400809 2 8 C1.34 7.67 0.68 7.34 0 7 C-1.32 8.32 -2.64 9.64 -4 11 C-3.48964169 6.6109185 -2.47785723 3.66291938 0 0 Z " fill="#272D36" transform="translate(256,123)"/>
<path d="M0 0 C1.65 0.33 3.3 0.66 5 1 C3.68 2.32 2.36 3.64 1 5 C1.33 5.99 1.66 6.98 2 8 C0.68 7.34 -0.64 6.68 -2 6 C-1.34 4.02 -0.68 2.04 0 0 Z " fill="#282D37" transform="translate(210,65)"/>
<path d="M0 0 C1.7634375 0.7115625 1.7634375 0.7115625 3.5625 1.4375 C7.40103259 2.88806847 10.92740191 3.57577103 15 4 C15 4.33 15 4.66 15 5 C13.08364783 5.05423638 11.16685075 5.09289963 9.25 5.125 C7.64898437 5.15980469 7.64898437 5.15980469 6.015625 5.1953125 C3.07529894 5.00487687 1.47638122 4.52670104 -1 3 C-0.67 2.01 -0.34 1.02 0 0 Z " fill="#4D5359" transform="translate(147,235)"/>
<path d="M0 0 C0 0.99 0 1.98 0 3 C-0.66 3 -1.32 3 -2 3 C-2.33 4.65 -2.66 6.3 -3 8 C-3.33 6.68 -3.66 5.36 -4 4 C-4.66 4 -5.32 4 -6 4 C-6 2.68 -6 1.36 -6 0 C-3.50907189 -1.24546405 -2.58919267 -0.7767578 0 0 Z " fill="#282E36" transform="translate(132,213)"/>
<path d="M0 0 C0.99 0.66 1.98 1.32 3 2 C2 4 2 4 0.125 4.875 C-2.36796335 6.19480413 -3.45147781 7.67721672 -5 10 C-5.66 8.68 -6.32 7.36 -7 6 C-5.35 5.34 -3.7 4.68 -2 4 C-2 3.34 -2 2.68 -2 2 C-1.34 2 -0.68 2 0 2 C0 1.34 0 0.68 0 0 Z " fill="#4D525F" transform="translate(240,90)"/>
<path d="M0 0 C0.66 0 1.32 0 2 0 C2.33 0.66 2.66 1.32 3 2 C3.66 2.66 4.32 3.32 5 4 C5 4.99 5 5.98 5 7 C3.125 6.75 3.125 6.75 1 6 C-0.3125 4.0625 -0.3125 4.0625 -1 2 C-0.67 1.34 -0.34 0.68 0 0 Z " fill="#2E3036" transform="translate(84,78)"/>
<path d="M0 0 C1 3 1 3 1 5 C-3.455 5.495 -3.455 5.495 -8 6 C-5.51047079 3.33264727 -3.36591866 1.44253657 0 0 Z " fill="#4B5057" transform="translate(112,53)"/>
<path d="M0 0 C0.66 0.33 1.32 0.66 2 1 C1.6875 2.9375 1.6875 2.9375 1 5 C0.01 5.33 -0.98 5.66 -2 6 C-2 6.66 -2 7.32 -2 8 C-2.99 7.67 -3.98 7.34 -5 7 C-4.34 7 -3.68 7 -3 7 C-3 5.68 -3 4.36 -3 3 C-1.5 1.25 -1.5 1.25 0 0 Z " fill="#363A47" transform="translate(91,235)"/>
<path d="M0 0 C0.68707555 2.49064888 1 4.37886292 1 7 C0.34 7 -0.32 7 -1 7 C-2.63676257 8.9600281 -2.63676257 8.9600281 -4 11 C-3.48964169 6.6109185 -2.47785723 3.66291938 0 0 Z " fill="#555961" transform="translate(121,115)"/>
<path d="M0 0 C0.99 0.33 1.98 0.66 3 1 C2.3125 2.9375 2.3125 2.9375 1 5 C-1.625 5.75 -1.625 5.75 -4 6 C-4 5.01 -4 4.02 -4 3 C-2.1875 1.25 -2.1875 1.25 0 0 Z " fill="#262B36" transform="translate(252,118)"/>
<path d="M0 0 C-0.25 1.875 -0.25 1.875 -1 4 C-3 5.125 -3 5.125 -5 6 C-5.33 6.66 -5.66 7.32 -6 8 C-5.62403791 5.21788056 -5.32681541 3.4120716 -3.5625 1.1875 C-2 0 -2 0 0 0 Z " fill="#2C313E" transform="translate(242,93)"/>
<path d="M0 0 C0.556875 0.144375 1.11375 0.28875 1.6875 0.4375 C4.11384195 1.02769128 6.54906345 1.523429 9 2 C8.34 2.66 7.68 3.32 7 4 C4.27130593 3.96712417 1.7033382 3.43602229 -1 3 C-0.67 2.01 -0.34 1.02 0 0 Z " fill="#252937" transform="translate(123,52)"/>
<path d="M0 0 C2.31 0 4.62 0 7 0 C4.81006393 2.18993607 3.4012702 2.72197989 0.5 3.6875 C-0.69109375 4.09548828 -0.69109375 4.09548828 -1.90625 4.51171875 C-4 5 -4 5 -6 4 C-4.35 3.67 -2.7 3.34 -1 3 C-0.67 2.01 -0.34 1.02 0 0 Z " fill="#555A61" transform="translate(191,273)"/>
<path d="M0 0 C0.66 0.33 1.32 0.66 2 1 C1.67 2.32 1.34 3.64 1 5 C-0.32 4.67 -1.64 4.34 -3 4 C-3 3.01 -3 2.02 -3 1 C-2.01 0.67 -1.02 0.34 0 0 Z " fill="#40464E" transform="translate(108,256)"/>
<path d="M0 0 C0 0.66 0 1.32 0 2 C0.66 2.33 1.32 2.66 2 3 C1.67 3.66 1.34 4.32 1 5 C-1.31 4.34 -3.62 3.68 -6 3 C-2.25 0 -2.25 0 0 0 Z " fill="#444955" transform="translate(169,236)"/>
<path d="M0 0 C0.99 0.33 1.98 0.66 3 1 C3 4.3 3 7.6 3 11 C0.60236815 8.60236815 0.65719414 7.66726502 0.375 4.375 C0.30023438 3.55773437 0.22546875 2.74046875 0.1484375 1.8984375 C0.09945312 1.27195313 0.05046875 0.64546875 0 0 Z " fill="#555962" transform="translate(117,195)"/>
<path d="M0 0 C2.1875 0.3125 2.1875 0.3125 4 1 C3.34 2.32 2.68 3.64 2 5 C-0.475 4.01 -0.475 4.01 -3 3 C-1.75 1.4375 -1.75 1.4375 0 0 Z " fill="#262E34" transform="translate(106,58)"/>
<path d="M0 0 C0.66 0.33 1.32 0.66 2 1 C1.67 2.32 1.34 3.64 1 5 C-0.875 5.625 -0.875 5.625 -3 6 C-3.66 5.34 -4.32 4.68 -5 4 C-3.35 2.68 -1.7 1.36 0 0 Z " fill="#373A44" transform="translate(218,250)"/>
<path d="M0 0 C0.33 0.66 0.66 1.32 1 2 C0.06553465 4.03144641 -0.93224776 6.03533587 -2 8 C-3.32 7.34 -4.64 6.68 -6 6 C-4.02 4.02 -2.04 2.04 0 0 Z " fill="#595D64" transform="translate(234,235)"/>
<path d="M0 0 C1.65 0 3.3 0 5 0 C4.67 2.31 4.34 4.62 4 7 C0 2.25 0 2.25 0 0 Z " fill="#474E57" transform="translate(120,207)"/>
<path d="M0 0 C0.99 0.66 1.98 1.32 3 2 C2.34 3.32 1.68 4.64 1 6 C-0.32 5.01 -1.64 4.02 -3 3 C-2.01 2.01 -1.02 1.02 0 0 Z " fill="#272C36" transform="translate(99,64)"/>
<path d="M0 0 C0.66 0.33 1.32 0.66 2 1 C1.34 2.65 0.68 4.3 0 6 C-1.65 6 -3.3 6 -5 6 C-3.625 4 -3.625 4 -2 2 C-1.34 2 -0.68 2 0 2 C0 1.34 0 0.68 0 0 Z " fill="#4D4F57" transform="translate(102,59)"/>
<path d="M0 0 C2.97 0.495 2.97 0.495 6 1 C6 1.99 6 2.98 6 4 C4.35 4 2.7 4 1 4 C0.67 2.68 0.34 1.36 0 0 Z " fill="#2B2F3B" transform="translate(192,55)"/>
<path d="M0 0 C1.32 0 2.64 0 4 0 C4 1.65 4 3.3 4 5 C3.01 5 2.02 5 1 5 C1 4.34 1 3.68 1 3 C0.34 2.67 -0.32 2.34 -1 2 C-0.67 1.34 -0.34 0.68 0 0 Z " fill="#292C36" transform="translate(193,196)"/>
<path d="M0 0 C1.12377697 3.30435084 0.89554742 5.0506862 -0.4375 8.25 C-0.72496094 8.95640625 -1.01242188 9.6628125 -1.30859375 10.390625 C-1.53675781 10.92171875 -1.76492187 11.4528125 -2 12 C-3.1875 10.3125 -3.1875 10.3125 -4 8 C-2.6875 5.4375 -2.6875 5.4375 -1 3 C-0.67 2.01 -0.34 1.02 0 0 Z " fill="#54575C" transform="translate(191,139)"/>
<path d="M0 0 C0.33 0.66 0.66 1.32 1 2 C0.0625 4.125 0.0625 4.125 -1 6 C-2.32 6 -3.64 6 -5 6 C-3.86695008 2.60085025 -2.87481525 1.94745549 0 0 Z " fill="#3F444E" transform="translate(190,140)"/>
<path d="M0 0 C1.65 0 3.3 0 5 0 C3.35 1.65 1.7 3.3 0 5 C-0.66 4.67 -1.32 4.34 -2 4 C-1.34 2.68 -0.68 1.36 0 0 Z " fill="#393D47" transform="translate(248,117)"/>
<path d="M0 0 C1.485 0.99 1.485 0.99 3 2 C3 3.32 3 4.64 3 6 C2.34 6 1.68 6 1 6 C0.67 6.66 0.34 7.32 0 8 C-0.79953138 4.71303767 -1.09658936 3.28976808 0 0 Z " fill="#3D414C" transform="translate(237,86)"/>
<path d="M0 0 C0.99 1.32 1.98 2.64 3 4 C2.34 5.32 1.68 6.64 1 8 C0.01 7.01 -0.98 6.02 -2 5 C-1.34 3.35 -0.68 1.7 0 0 Z " fill="#252E36" transform="translate(77,88)"/>
<path d="M0 0 C0.99 0.33 1.98 0.66 3 1 C3 2.66666667 3 4.33333333 3 6 C2.01 6 1.02 6 0 6 C-0.66 4.35 -1.32 2.7 -2 1 C-1.34 0.67 -0.68 0.34 0 0 Z " fill="#242A37" transform="translate(200,59)"/>
<path d="M0 0 C1.32 0.66 2.64 1.32 4 2 C2.02 2.99 2.02 2.99 0 4 C0 4.66 0 5.32 0 6 C-0.66 6 -1.32 6 -2 6 C-1.125 1.125 -1.125 1.125 0 0 Z " fill="#262B35" transform="translate(182,220)"/>
<path d="M0 0 C0.66 0 1.32 0 2 0 C2.33 1.32 2.66 2.64 3 4 C1.35 4.66 -0.3 5.32 -2 6 C-1.34 4.02 -0.68 2.04 0 0 Z " fill="#4A5157" transform="translate(183,215)"/>
<path d="M0 0 C2 3 2 3 2 5 C1.34 5 0.68 5 0 5 C0 5.66 0 6.32 0 7 C-0.99 6.67 -1.98 6.34 -3 6 C-2.67 4.68 -2.34 3.36 -2 2 C-2 2.66 -2 3.32 -2 4 C-1.34 4 -0.68 4 0 4 C0 2.68 0 1.36 0 0 Z " fill="#373D49" transform="translate(68,195)"/>
<path d="M0 0 C1.65 0 3.3 0 5 0 C5.66 1.32 6.32 2.64 7 4 C4.69 3.34 2.38 2.68 0 2 C0 1.34 0 0.68 0 0 Z " fill="#454752" transform="translate(174,55)"/>
</svg>
