<?xml version="1.0" encoding="UTF-8"?>
<svg version="1.1" xmlns="http://www.w3.org/2000/svg" width="238" height="203">
<path d="M0 0 C0.7265625 2.265625 0.7265625 2.265625 1 5 C-9.69352352 19.53373915 -34.05419093 31.06047693 -51 36 C-51.87599854 36.25676514 -52.75199707 36.51353027 -53.65454102 36.77807617 C-74.8618779 42.5911757 -97.71283282 39.94317083 -116.99609375 29.45727539 C-124.04349615 25.3737705 -132.04493372 20.5621148 -137 14 C-137.24609375 11.23828125 -137.24609375 11.23828125 -137 9 C-131.20938891 7.41802893 -131.20938891 7.41802893 -128.12890625 8.90039062 C-126.17865032 10.27546537 -124.33534315 11.72496229 -122.5 13.25 C-117.81722664 17.0251843 -113.65528798 19.87197927 -108 22 C-108 22.66 -108 23.32 -108 24 C-106.43228746 24.4631878 -104.86278841 24.92063974 -103.28833008 25.36035156 C-101.67709557 25.81073398 -100.07047561 26.27779096 -98.4675293 26.75683594 C-90.42297725 29.00195629 -82.8881038 29.48572625 -74.5625 29.4375 C-73.34240234 29.45748047 -72.12230469 29.47746094 -70.86523438 29.49804688 C-53.17989292 29.48864478 -38.55148194 22.01533217 -24.22265625 12.19921875 C-20.37300605 9.57212413 -16.48553668 7.01583137 -12.5625 4.5 C-11.88783691 4.05422607 -11.21317383 3.60845215 -10.51806641 3.14916992 C-6.89992667 0.84494808 -4.44823535 -0.61709623 0 0 Z " fill="#3A434D" transform="translate(186,111)"/>
<path d="M0 0 C5.64224148 3.20581902 7.03454011 8.10362033 9 14 C9.3021788 18.74598472 9.19309535 23.37675552 8 28 C7.34 28 6.68 28 6 28 C5.9175 28.639375 5.835 29.27875 5.75 29.9375 C4.51806965 34.96788225 2.70336075 40.29663925 -1 44 C-5.04637274 44.44959697 -7.15244824 44.65196289 -10.4375 42.125 C-12 40 -12 40 -12 38 C-12.66 38 -13.32 38 -14 38 C-16.95088525 29.00570175 -18.02684823 17.68248118 -14.3125 8.75 C-10.79668575 2.41907573 -7.66659982 -1.23213211 0 0 Z " fill="#37424C" transform="translate(90,41)"/>
<path d="M0 0 C3.55608177 2.16457151 5.51741168 4.14004539 7 8 C8.1118405 20.4035193 6.57275762 29.3137504 -1.18359375 39.15234375 C-4.09061253 42.10937576 -6.10876478 42.96572172 -10.25 43.125 C-11.1575 43.08375 -12.065 43.0425 -13 43 C-13 42.34 -13 41.68 -13 41 C-13.66 41 -14.32 41 -15 41 C-17.93252112 28.23766807 -16.73286922 12.35362873 -9.8125 1.0625 C-6.69840904 -0.7630016 -3.44584555 -0.6124452 0 0 Z " fill="#313B46" transform="translate(149,42)"/>
<path d="M0 0 C0.74609375 2.25390625 0.74609375 2.25390625 1 5 C-0.58984375 7.02734375 -0.58984375 7.02734375 -2.9375 8.9375 C-3.76636719 9.61425781 -4.59523437 10.29101562 -5.44921875 10.98828125 C-6.71185547 11.98408203 -6.71185547 11.98408203 -8 13 C-8.72832031 13.63292969 -9.45664063 14.26585938 -10.20703125 14.91796875 C-12.08968144 16.49104358 -13.82397899 17.86695202 -16 19 C-18.9375 18.5625 -18.9375 18.5625 -21 17 C-21.33 16.01 -21.66 15.02 -22 14 C-22.66 13.34 -23.32 12.68 -24 12 C-21.77144622 10.56154242 -19.54218143 9.12420781 -17.3125 7.6875 C-16.68666016 7.28337891 -16.06082031 6.87925781 -15.41601562 6.46289062 C-13.6143836 5.30267733 -11.8079755 4.15029577 -10 3 C-8.62328125 2.11828125 -8.62328125 2.11828125 -7.21875 1.21875 C-4.62240573 -0.20741094 -2.9184747 -0.25015497 0 0 Z " fill="#3D464E" transform="translate(186,111)"/>
<path d="M0 0 C4.1258197 0.08055808 8.25012631 0.19342685 12.375 0.3125 C14.1384375 0.34633789 14.1384375 0.34633789 15.9375 0.38085938 C17.05898437 0.41630859 18.18046875 0.45175781 19.3359375 0.48828125 C20.37282715 0.51446533 21.4097168 0.54064941 22.47802734 0.56762695 C23.31027832 0.71031006 24.1425293 0.85299316 25 1 C25.66 1.99 26.32 2.98 27 4 C25.81469727 5.97338867 25.81469727 5.97338867 24 8 C21.67163086 8.4699707 21.67163086 8.4699707 18.96484375 8.42578125 C17.99095703 8.41740234 17.01707031 8.40902344 16.01367188 8.40039062 C14.99853516 8.37138672 13.98339844 8.34238281 12.9375 8.3125 C11.40899414 8.29799805 11.40899414 8.29799805 9.84960938 8.28320312 C2.33740602 8.16870301 2.33740602 8.16870301 0 7 C-1.66619446 6.9603287 -3.33391013 6.95615553 -5 7 C-5 6.34 -5 5.68 -5 5 C-3.35 5 -1.7 5 0 5 C0 3.35 0 1.7 0 0 Z " fill="#2B3640" transform="translate(99,141)"/>
<path d="M0 0 C1.32 0.33 2.64 0.66 4 1 C4 1.66 4 2.32 4 3 C4.66 3.33 5.32 3.66 6 4 C5.67 5.65 5.34 7.3 5 9 C2.5 7.3125 2.5 7.3125 0 5 C-0.3125 2.25 -0.3125 2.25 0 0 Z " fill="#4F5864" transform="translate(49,120)"/>
</svg>
