<?xml version="1.0" encoding="UTF-8"?>
<svg version="1.1" xmlns="http://www.w3.org/2000/svg" width="321" height="273">
<path d="M0 0 C2.39316445 0.51262195 4.78937969 1.01108658 7.1875 1.5 C26.15051509 5.90882382 43.93470806 18.96431892 56 34 C56.7425 34.845625 57.485 35.69125 58.25 36.5625 C61.57552248 41.19447774 64 45.22980769 64 51 C64.66 51 65.32 51 66 51 C72.15886599 67.51695878 71.46038771 84.62872291 71 102 C70.98018066 102.83563477 70.96036133 103.67126953 70.93994141 104.53222656 C70.478436 117.36619226 65.17433967 128.45343175 60 140 C59.39215985 141.39536801 58.78527433 142.79115257 58.1796875 144.1875 C54.40451387 152.68638334 54.40451387 152.68638334 51 156 C49.9383481 157.52074461 48.87896988 159.04326117 47.8425293 160.58129883 C38.94783986 173.6852257 28.3344888 183.50411818 15 192 C14.0203125 192.68707031 13.040625 193.37414062 12.03125 194.08203125 C5.4201951 198.53767778 -1.15794136 201.39104877 -8.6875 203.9375 C-9.55439453 204.23221191 -10.42128906 204.52692383 -11.31445312 204.83056641 C-17.19345211 206.70876597 -22.84401008 207.62528757 -29 208 C-29 208.66 -29 209.32 -29 210 C-40.88 210 -52.76 210 -65 210 C-65 209.34 -65 208.68 -65 208 C-66.051875 207.9175 -67.10375 207.835 -68.1875 207.75 C-83.70425939 205.71545987 -100.32485006 198.45749627 -112 188 C-113.02287109 187.15308594 -113.02287109 187.15308594 -114.06640625 186.2890625 C-118.879606 182.25218529 -123.01953627 177.85203254 -127 173 C-127.93392578 171.86304688 -127.93392578 171.86304688 -128.88671875 170.703125 C-137 160.56577568 -137 160.56577568 -137 156 C-137.66 156 -138.32 156 -139 156 C-139.50559908 154.56445975 -140.0042749 153.1264798 -140.5 151.6875 C-140.7784375 150.88699219 -141.056875 150.08648437 -141.34375 149.26171875 C-142 147 -142 147 -142 144 C-142.66 144 -143.32 144 -144 144 C-149.49610488 124.65371083 -150.74711341 104.50759338 -147.6875 84.625 C-147.56995361 83.85889404 -147.45240723 83.09278809 -147.33129883 82.3034668 C-146.50014035 77.51355093 -145.03752938 73.44265426 -143 69 C-142.33956508 67.17187596 -141.69256371 65.33881253 -141.0625 63.5 C-139.42675681 58.95213827 -137.51710152 55.1188934 -135 51 C-134.64292969 50.31550781 -134.28585938 49.63101563 -133.91796875 48.92578125 C-125.99897058 33.7499085 -112.89646047 20.34488717 -98 12 C-96.99646484 11.37158203 -96.99646484 11.37158203 -95.97265625 10.73046875 C-92.34938549 8.48673653 -89.24120965 7.41377655 -85 7 C-85 6.34 -85 5.68 -85 5 C-84.09378906 4.74605469 -83.18757813 4.49210937 -82.25390625 4.23046875 C-81.03574219 3.88628906 -79.81757812 3.54210937 -78.5625 3.1875 C-77.91579346 3.00590332 -77.26908691 2.82430664 -76.6027832 2.63720703 C-73.2343756 1.68033522 -69.95340559 0.63359998 -66.6875 -0.625 C-47.67930218 -6.96106594 -18.61851213 -7.44740485 0 0 Z M-61.55737305 7.46728516 C-65.22607651 8.2673962 -68.92874714 8.85685716 -72.63525391 9.45410156 C-75.98162338 10.22660643 -78.23635738 12.00076917 -81 14 C-82.59080593 14.65826452 -84.19686049 15.28028607 -85.8125 15.875 C-101.49057534 21.93562912 -116.49359417 35.60454397 -125 50 C-125.4434375 50.61359375 -125.886875 51.2271875 -126.34375 51.859375 C-130.85528272 58.16631359 -133.50359549 64.68513854 -136 72 C-136.22606934 72.6604834 -136.45213867 73.3209668 -136.68505859 74.00146484 C-137.38855396 76.0796401 -138.07317995 78.16299476 -138.75 80.25 C-138.96084229 80.88687744 -139.17168457 81.52375488 -139.38891602 82.17993164 C-144.2987709 97.83147806 -143.42916086 116.40935378 -139 132 C-138.69515931 133.7477533 -138.40279657 135.49774474 -138.125 137.25 C-137.08692907 142.49943186 -134.76913269 146.4753694 -132 151 C-131.48308594 151.9384375 -130.96617187 152.876875 -130.43359375 153.84375 C-120.27898181 172.12676361 -105.23775107 187.8345992 -85.32421875 195.04296875 C-83 196 -83 196 -80.69140625 197.48046875 C-77.35024374 199.36684352 -73.95249176 200.25392774 -70.25 201.125 C-69.53408691 201.29676758 -68.81817383 201.46853516 -68.08056641 201.64550781 C-49.90704117 205.89493596 -30.28414928 205.33781062 -13 198 C-11.3661156 197.31975935 -9.7319775 196.64012792 -8.09765625 195.9609375 C-3.38899544 193.99594019 1.30840541 192.00536661 6 190 C6 189.34 6 188.68 6 188 C6.72574219 187.73574219 7.45148438 187.47148437 8.19921875 187.19921875 C15.79727388 183.94593712 23.33094081 178.00160177 29 172 C29 171.34 29 170.68 29 170 C29.58394531 169.74734375 30.16789063 169.4946875 30.76953125 169.234375 C37.49552134 165.51211078 41.89288972 157.93558678 46 151.625 C46.39791748 151.01817383 46.79583496 150.41134766 47.20581055 149.78613281 C49.4946491 146.18411883 49.4946491 146.18411883 50 142 C50.66 142 51.32 142 52 142 C57.13121369 130.22764042 57.13121369 130.22764042 61 118 C61.17402344 117.37609375 61.34804688 116.7521875 61.52734375 116.109375 C66.18043596 98.85557322 66.30122846 77.07121783 61 60 C60.34 60 59.68 60 59 60 C58.90203125 59.443125 58.8040625 58.88625 58.703125 58.3125 C55.75742407 43.27926768 45.0808268 30.20624952 32.59765625 21.578125 C23.80201763 15.73289966 15.11852033 11.04753174 5 8 C3.93861816 7.66871094 2.87723633 7.33742188 1.78369141 6.99609375 C-7.45150726 4.295175 -15.8838399 3.36586269 -25.5625 3.5 C-26.59508438 3.50631439 -26.59508438 3.50631439 -27.64852905 3.51275635 C-39.20740676 3.59511375 -50.28762633 4.8548015 -61.55737305 7.46728516 Z " fill="#393C46" transform="translate(202,23)"/>
<path d="M0 0 C2.38102612 2.86894131 5 6.17126574 5 10 C6.14339844 9.98839844 7.28679687 9.97679688 8.46484375 9.96484375 C9.95572754 9.95546712 11.44661309 9.94636679 12.9375 9.9375 C14.06961914 9.92493164 14.06961914 9.92493164 15.22460938 9.91210938 C17.14994313 9.90347559 19.07535581 9.94775667 21 10 C22 11 22 11 22.0625 13.5625 C22.041875 14.366875 22.02125 15.17125 22 16 C21.34 16 20.68 16 20 16 C19.79375 16.556875 19.5875 17.11375 19.375 17.6875 C17.48959912 20.85840149 14.84640641 22.68729479 12 25 C9.83073341 28.25389988 9.75919951 29.13395957 9.8046875 32.88671875 C9.81435547 34.2934082 9.81435547 34.2934082 9.82421875 35.72851562 C9.84097656 36.70498047 9.85773438 37.68144531 9.875 38.6875 C9.88402344 39.67556641 9.89304688 40.66363281 9.90234375 41.68164062 C9.9259157 44.12133765 9.95881978 46.56054697 10 49 C7.27734375 49.71875 7.27734375 49.71875 4 50 C1.69140625 48.53125 1.69140625 48.53125 -0.4375 46.5 C-3.9839468 43.47470642 -3.9839468 43.47470642 -8.5625 42.75 C-12.1410912 44.05130589 -14.87178284 45.74201332 -18.01171875 47.8515625 C-20.94738445 49.54721224 -23.64973084 49.8686169 -27 50 C-27.99 49.67 -28.98 49.34 -30 49 C-29.55201763 45.52813667 -28.46561585 42.7061398 -27 39.5625 C-25.37450427 36.0405926 -24.39921466 32.89234292 -24 29 C-28.82481477 25.38138892 -33.54888679 22.58210626 -39 20 C-38.125 14.125 -38.125 14.125 -37 13 C-35.64680745 12.79806146 -34.28493537 12.65337497 -32.921875 12.53515625 C-32.09042969 12.45716797 -31.25898437 12.37917969 -30.40234375 12.29882812 C-28.64996005 12.1426879 -26.89735626 11.98899623 -25.14453125 11.83789062 C-20.74732121 11.42120585 -17.03281822 10.93302377 -13 9 C-12.01 8.67 -11.02 8.34 -10 8 C-9.9175 7.236875 -9.835 6.47375 -9.75 5.6875 C-9 3 -9 3 -7.25 1.1875 C-4.36735124 -0.33389796 -3.19366697 -0.85683748 0 0 Z " fill="#2B313C" transform="translate(135,83)"/>
<path d="M0 0 C2.625 1.1875 2.625 1.1875 3.5234375 3.23046875 C3.80445313 4.04128906 4.08546875 4.85210937 4.375 5.6875 C5.22503728 8.16446507 5.22503728 8.16446507 6.625 10.1875 C9.06608755 11.02306939 11.03012373 11.12828719 13.6015625 11.08984375 C15.625 11.1875 15.625 11.1875 17.625 13.1875 C18.125 15.875 18.125 15.875 17.625 19.1875 C16.24609375 20.6796875 16.24609375 20.6796875 14.5625 22.25 C12.25355494 24.6941292 11.65005014 25.7622043 11.44921875 29.171875 C11.75237463 32.52627517 12.18790712 35.84826791 12.625 39.1875 C12.72288081 42.52395901 12.69279189 45.85063264 12.625 49.1875 C7.31071429 50.39529221 7.31071429 50.39529221 4.5625 49.5625 C0.63111321 46.77248357 -2.53914337 43.69369354 -4.375 39.1875 C-10.60422369 39.40606925 -13.48858807 40.52069751 -17.9296875 44.91015625 C-19.375 46.1875 -19.375 46.1875 -21.375 46.1875 C-21.705 47.1775 -22.035 48.1675 -22.375 49.1875 C-29.125 50.3125 -29.125 50.3125 -31.375 49.1875 C-31.24832294 41.58687665 -28.90376966 37.16712872 -24.67578125 30.88671875 C-23.07128229 28.32331991 -23.07128229 28.32331991 -24.0078125 25.984375 C-25.45925941 23.97776571 -25.45925941 23.97776571 -27.9375 21.75 C-30.48158976 19.0754441 -31.27631927 17.83868684 -31.375 14.1875 C-29.375 12.1875 -29.375 12.1875 -25.48828125 12.08984375 C-24.71742188 12.09765869 -23.9465625 12.10547363 -23.15234375 12.11352539 C-15.45670244 12.30388351 -15.45670244 12.30388351 -8.69921875 9.1953125 C-7.00768143 6.92785562 -5.66535574 4.69908528 -4.375 2.1875 C-2.375 0.1875 -2.375 0.1875 0 0 Z " fill="#2B313B" transform="translate(212.375,80.8125)"/>
<path d="M0 0 C2.39316445 0.51262195 4.78937969 1.01108658 7.1875 1.5 C17.10517486 3.72421887 25.38527669 8.77532984 34 14 C33.01 14.99 32.02 15.98 31 17 C31.99 19.475 31.99 19.475 33 22 C29.86798262 20.47738198 26.8248643 18.8088466 23.7734375 17.13183594 C15.93309256 12.7906024 15.93309256 12.7906024 7.54785156 9.70922852 C5.63220159 9.17598176 3.7264605 8.60693588 1.82641602 8.02050781 C-7.42588891 5.3036647 -15.86256158 4.36669205 -25.5625 4.5 C-26.2482309 4.50354492 -26.93396179 4.50708984 -27.64047241 4.51074219 C-39.39767118 4.5816046 -50.69860566 5.90089478 -62.14770508 8.6328125 C-64 9 -64 9 -67 9 C-67 8.34 -67 7.68 -67 7 C-65.35 6.67 -63.7 6.34 -62 6 C-62.33 5.01 -62.66 4.02 -63 3 C-61.71416016 3.10828125 -61.71416016 3.10828125 -60.40234375 3.21875 C-54.58538524 3.69092702 -48.83666909 4.13573649 -43 4 C-43 2.68 -43 1.36 -43 0 C-42.01 -0.33 -41.02 -0.66 -40 -1 C-48.07094823 -1.10466648 -55.9874678 -1.03387512 -64 0 C-61.28272523 -2.71727477 -58.60163578 -2.71345159 -54.9375 -3.125 C-54.20160645 -3.2084668 -53.46571289 -3.29193359 -52.70751953 -3.37792969 C-35.91521086 -5.05818928 -15.94241972 -6.37696789 0 0 Z " fill="#444750" transform="translate(202,23)"/>
<path d="M0 0 C0.495 2.475 0.495 2.475 1 5 C-17.27892919 17.38250042 -37.34836154 23.33392646 -59.375 23.4375 C-60.63183594 23.47037109 -61.88867188 23.50324219 -63.18359375 23.53710938 C-64.99150391 23.54774414 -64.99150391 23.54774414 -66.8359375 23.55859375 C-67.92438965 23.57204834 -69.0128418 23.58550293 -70.13427734 23.59936523 C-73.9154284 22.80853836 -74.93183753 21.15727796 -77 18 C-76.41210693 17.98018066 -75.82421387 17.96036133 -75.21850586 17.93994141 C-50.39581858 17.06670196 -50.39581858 17.06670196 -26.74462891 10.03417969 C-25.05011478 9.30857243 -23.35494632 8.58449166 -21.65917969 7.86181641 C-19.95161589 7.1306914 -18.24768689 6.39100758 -16.54785156 5.64208984 C-15.75991211 5.30129395 -14.97197266 4.96049805 -14.16015625 4.609375 C-13.45511963 4.29967773 -12.75008301 3.98998047 -12.02368164 3.67089844 C-10 3 -10 3 -6 3 C-6 2.34 -6 1.68 -6 1 C-3.92446352 0.4465236 -2.15634036 0 0 0 Z " fill="#373C46" transform="translate(218,209)"/>
<path d="M0 0 C0.66 0 1.32 0 2 0 C1.85485591 1.47923446 1.70883578 2.95838296 1.5625 4.4375 C1.48128906 5.26121094 1.40007813 6.08492188 1.31640625 6.93359375 C1.142654 8.61748901 0.96175206 10.30090109 0.74829102 11.98022461 C0.01753864 17.89518255 -0.19220329 23.73000478 -0.1875 29.6875 C-0.18741943 30.64849609 -0.18733887 31.60949219 -0.18725586 32.59960938 C-0.12647527 40.23109225 0.60198751 47.48950954 2 55 C2.6591565 58.74437509 3.11193247 62.194296 3 66 C1.1875 66.6875 1.1875 66.6875 -1 67 C-3.73217261 65.20635997 -4.0654326 63.75364907 -4.9140625 60.55859375 C-5.16319358 59.18704762 -5.39977342 57.81317368 -5.625 56.4375 C-5.74617188 55.77169922 -5.86734375 55.10589844 -5.9921875 54.41992188 C-7.5651786 45.45216285 -8.18081566 36.53488479 -8.1875 27.4375 C-8.19974609 26.55642578 -8.21199219 25.67535156 -8.22460938 24.76757812 C-8.2400818 17.77919945 -7.95786491 10.93679737 -4 5 C-3.34 5 -2.68 5 -2 5 C-1.855625 4.360625 -1.71125 3.72125 -1.5625 3.0625 C-1 1 -1 1 0 0 Z " fill="#333741" transform="translate(61,101)"/>
<path d="M0 0 C2.05078125 0.03255208 4.1015625 0.06510417 6.15234375 0.09765625 C5.16234375 0.42765625 4.17234375 0.75765625 3.15234375 1.09765625 C3.15234375 1.75765625 3.15234375 2.41765625 3.15234375 3.09765625 C4.14234375 3.09765625 5.13234375 3.09765625 6.15234375 3.09765625 C6.48234375 4.08765625 6.81234375 5.07765625 7.15234375 6.09765625 C8.78495089 7.47248332 10.45459437 8.80413292 12.15234375 10.09765625 C13.96484375 11.72265625 13.96484375 11.72265625 15.15234375 13.09765625 C15.15234375 13.75765625 15.15234375 14.41765625 15.15234375 15.09765625 C15.81234375 15.09765625 16.47234375 15.09765625 17.15234375 15.09765625 C17.15234375 15.75765625 17.15234375 16.41765625 17.15234375 17.09765625 C17.81234375 17.09765625 18.47234375 17.09765625 19.15234375 17.09765625 C20.625 18.48828125 20.625 18.48828125 22.21484375 20.34765625 C22.74207031 20.9509375 23.26929687 21.55421875 23.8125 22.17578125 C25.22919612 24.20789347 25.84781216 25.64617697 26.15234375 28.09765625 C23.04545312 32.68401861 17.25302789 35.28546831 12.15234375 37.09765625 C9.48958214 37.21076471 7.74793244 36.83119218 5.15234375 36.09765625 C5.60032612 32.62579292 6.6867279 29.80379605 8.15234375 26.66015625 C9.77783948 23.13824885 10.75312909 19.98999917 11.15234375 16.09765625 C6.32752898 12.47904517 1.60345696 9.67976251 -3.84765625 7.09765625 C-2.81269978 0.14866278 -2.81269978 0.14866278 0 0 Z " fill="#2D323B" transform="translate(99.84765625,95.90234375)"/>
<path d="M0 0 C1.5 1.25 1.5 1.25 3 3 C3 4.32 3 5.64 3 7 C3.66 7 4.32 7 5 7 C9.15812462 18.15133421 10.38469072 29.1387028 10 41 C9.67 40.34 9.34 39.68 9 39 C7.515 39.495 7.515 39.495 6 40 C6 38.35 6 36.7 6 35 C5.34 35 4.68 35 4 35 C4 42.26 4 49.52 4 57 C3.67 57 3.34 57 3 57 C2.98018066 56.23445801 2.96036133 55.46891602 2.93994141 54.68017578 C2.84380795 51.16147896 2.73449084 47.64330552 2.625 44.125 C2.5940625 42.92101562 2.563125 41.71703125 2.53125 40.4765625 C2.32578783 34.17572265 1.88081641 28.22211426 0.41552734 22.08154297 C0 20 0 20 0 16 C-0.66 16 -1.32 16 -2 16 C-3.32 12.04 -4.64 8.08 -6 4 C-4.68 4 -3.36 4 -2 4 C-1.34 2.68 -0.68 1.36 0 0 Z " fill="#65696F" transform="translate(263,67)"/>
<path d="M0 0 C0.763125 0.226875 1.52625 0.45375 2.3125 0.6875 C2.76062315 5.16873147 2.64603013 7.18244009 0.125 11 C-2.51309198 13.52084344 -4.22549758 14.69835645 -7.6875 15.6875 C-7.6875 16.3475 -7.6875 17.0075 -7.6875 17.6875 C-13.5239604 20.02208416 -18.70252464 20.86905275 -24.6875 18.5 C-26.6875 16.6875 -26.6875 16.6875 -27.0625 14.0625 C-26.6875 11.6875 -26.6875 11.6875 -25.6875 10.6875 C-23.82917617 10.64970358 -21.97070823 10.61509193 -20.11206055 10.60009766 C-13.55930362 10.74762497 -13.55930362 10.74762497 -7.84375 8.171875 C-6.6900255 6.08074805 -6.6900255 6.08074805 -5.6875 2.6875 C-3.71145915 -0.06177423 -3.42839778 -0.3986509 0 0 Z " fill="#353842" transform="translate(188.6875,175.3125)"/>
<path d="M0 0 C0.66 0 1.32 0 2 0 C2.33 1.32 2.66 2.64 3 4 C3.66 4 4.32 4 5 4 C9.31448191 12.62896383 5.85884506 29.87476062 4 39 C3.1117294 41.40643761 2.09131036 43.6738645 1 46 C0.34 46 -0.32 46 -1 46 C-1 45.34 -1 44.68 -1 44 C-1.99 43.67 -2.98 43.34 -4 43 C-3.01 32.605 -3.01 32.605 -2 22 C-1.34 22 -0.68 22 0 22 C0 14.74 0 7.48 0 0 Z " fill="#2E343C" transform="translate(267,102)"/>
<path d="M0 0 C0.33 1.32 0.66 2.64 1 4 C1.66 4 2.32 4 3 4 C3.33 5.32 3.66 6.64 4 8 C4.66 7.67 5.32 7.34 6 7 C8.3329866 6.95977609 10.66706666 6.95679753 13 7 C13 7.66 13 8.32 13 9 C15.475 9.495 15.475 9.495 18 10 C18 9.34 18 8.68 18 8 C18.99 8 19.98 8 21 8 C21 8.66 21 9.32 21 10 C20.03900391 10.11214844 20.03900391 10.11214844 19.05859375 10.2265625 C13.12471006 11.12858357 9.62964872 12.48270873 5.375 16.7578125 C4 18 4 18 2 18 C1.67 18.99 1.34 19.98 1 21 C-5.75 22.125 -5.75 22.125 -8 21 C-7.85868946 12.52136736 -4.55396501 7.0271366 0 0 Z M2 8 C2 8.66 2 9.32 2 10 C2.66 10 3.32 10 4 10 C4 9.34 4 8.68 4 8 C3.34 8 2.68 8 2 8 Z M-1 10 C-0.67 10.66 -0.34 11.32 0 12 C0.66 12 1.32 12 2 12 C2 11.34 2 10.68 2 10 C1.01 10 0.02 10 -1 10 Z M5 4 C5.33 4.66 5.66 5.32 6 6 C5.34 5.67 4.68 5.34 4 5 C4.33 4.67 4.66 4.34 5 4 Z " fill="#2F3440" transform="translate(189,109)"/>
<path d="M0 0 C3.79236417 6.32060696 3.12884604 13.88483508 3 21 C-2.31428571 22.20779221 -2.31428571 22.20779221 -5.0625 21.375 C-8.99388679 18.58498357 -12.16414337 15.50619354 -14 11 C-12.88625 10.773125 -11.7725 10.54625 -10.625 10.3125 C-6.86323391 9.43158389 -6.86323391 9.43158389 -5.875 6.625 C-5.58625 5.75875 -5.2975 4.8925 -5 4 C-2.375 1.6875 -2.375 1.6875 0 0 Z " fill="#30363F" transform="translate(222,109)"/>
<path d="M0 0 C-0.7528125 -0.0721875 -1.505625 -0.144375 -2.28125 -0.21875 C-11.21289373 -0.99918489 -20.04524877 -1.10345669 -29 -1 C-28.34 -0.34 -27.68 0.32 -27 1 C-29.64 1.33 -32.28 1.66 -35 2 C-28.4 2.33 -21.8 2.66 -15 3 C-15 3.33 -15 3.66 -15 4 C-15.96317139 4.01401855 -15.96317139 4.01401855 -16.94580078 4.02832031 C-31.65468429 4.2947572 -45.64777409 5.54273958 -60.03662109 8.64868164 C-62 9 -62 9 -65 9 C-65 8.34 -65 7.68 -65 7 C-63.35 6.67 -61.7 6.34 -60 6 C-60.33 5.01 -60.66 4.02 -61 3 C-59.71416016 3.10828125 -59.71416016 3.10828125 -58.40234375 3.21875 C-52.58538524 3.69092702 -46.83666909 4.13573649 -41 4 C-41 2.68 -41 1.36 -41 0 C-40.01 -0.33 -39.02 -0.66 -38 -1 C-46.07094823 -1.10466648 -53.9874678 -1.03387512 -62 0 C-59.28272523 -2.71727477 -56.60163578 -2.71345159 -52.9375 -3.125 C-52.20160645 -3.2084668 -51.46571289 -3.29193359 -50.70751953 -3.37792969 C-11.02319059 -7.34879372 -11.02319059 -7.34879372 0 0 Z " fill="#5C6269" transform="translate(200,23)"/>
<path d="M0 0 C3.98336728 0.41930182 7.58601034 0.87956665 11.4375 2 C15.61720463 3.17325042 19.68689122 3.6283489 24 4 C24 4.33 24 4.66 24 5 C22.35 5.33 20.7 5.66 19 6 C19.33 6.99 19.66 7.98 20 9 C33.86 9.495 33.86 9.495 48 10 C48 10.33 48 10.66 48 11 C36.12 11 24.24 11 12 11 C12 10.34 12 9.68 12 9 C10.948125 8.9175 9.89625 8.835 8.8125 8.75 C2.66691564 8.00810063 -3.13999174 5.92058197 -9 4 C-6.01386614 3.24070528 -3.02485781 2.5881668 0 2 C0 1.34 0 0.68 0 0 Z " fill="#5A5F67" transform="translate(125,222)"/>
<path d="M0 0 C0.53367187 0.31453125 1.06734375 0.6290625 1.6171875 0.953125 C5.72154321 3.31064419 9.76027272 5.37625714 14.1875 7.0625 C18.24471595 8.62588899 21.5823208 10.30183221 25 13 C25 13.66 25 14.32 25 15 C21.87381703 16.75847792 20.15301294 17.01947437 16.5625 16.5625 C12.36235527 15.34284259 8.47568268 13.42660432 4.5625 11.5 C3.93480713 11.1913501 3.30711426 10.8827002 2.66040039 10.56469727 C-1.87370127 8.25259746 -1.87370127 8.25259746 -3 6 C-2.01 6 -1.02 6 0 6 C-0.185625 5.38125 -0.37125 4.7625 -0.5625 4.125 C-1 2 -1 2 0 0 Z " fill="#31343E" transform="translate(100,209)"/>
<path d="M0 0 C0.33 1.32 0.66 2.64 1 4 C2.32 3.34 3.64 2.68 5 2 C6.18917282 6.43237142 5.90761567 8.93325304 3.90234375 13.0546875 C2.26843717 16.57713545 1.18105065 20.30607562 0 24 C-0.33 23.01 -0.66 22.02 -1 21 C-4.24849977 22.72226496 -4.24849977 22.72226496 -5 26 C-7.0625 27.6875 -7.0625 27.6875 -9 29 C-8.63101779 22.67640834 -7.74071462 17.78595309 -5 12 C-3.92548457 9.09601219 -2.89397192 6.17897437 -1.8671875 3.2578125 C-1 1 -1 1 0 0 Z " fill="#3A3E48" transform="translate(64,80)"/>
<path d="M0 0 C2.05078125 0.03255208 4.1015625 0.06510417 6.15234375 0.09765625 C5.16234375 0.42765625 4.17234375 0.75765625 3.15234375 1.09765625 C3.15234375 1.75765625 3.15234375 2.41765625 3.15234375 3.09765625 C4.14234375 3.09765625 5.13234375 3.09765625 6.15234375 3.09765625 C6.48234375 4.08765625 6.81234375 5.07765625 7.15234375 6.09765625 C8.78495089 7.47248332 10.45459437 8.80413292 12.15234375 10.09765625 C13.96484375 11.72265625 13.96484375 11.72265625 15.15234375 13.09765625 C15.15234375 13.75765625 15.15234375 14.41765625 15.15234375 15.09765625 C15.81234375 15.09765625 16.47234375 15.09765625 17.15234375 15.09765625 C17.15234375 15.75765625 17.15234375 16.41765625 17.15234375 17.09765625 C17.81234375 17.09765625 18.47234375 17.09765625 19.15234375 17.09765625 C20.66015625 18.55859375 20.66015625 18.55859375 22.27734375 20.47265625 C22.81617187 21.09914063 23.355 21.725625 23.91015625 22.37109375 C25.15234375 24.09765625 25.15234375 24.09765625 25.15234375 26.09765625 C23.21484375 25.28515625 23.21484375 25.28515625 21.15234375 24.09765625 C20.82234375 23.10765625 20.49234375 22.11765625 20.15234375 21.09765625 C18.15217909 19.88883529 18.15217909 19.88883529 16.15234375 19.09765625 C16.15234375 18.43765625 16.15234375 17.77765625 16.15234375 17.09765625 C15.49234375 17.09765625 14.83234375 17.09765625 14.15234375 17.09765625 C13.49234375 18.08765625 12.83234375 19.07765625 12.15234375 20.09765625 C11.96929687 19.36160156 11.78625 18.62554687 11.59765625 17.8671875 C9.619843 14.07726967 6.68489866 12.69360322 3.02734375 10.78515625 C2.36863281 10.42615234 1.70992188 10.06714844 1.03125 9.69726562 C-0.58783921 8.81732584 -2.21683075 7.9556493 -3.84765625 7.09765625 C-2.81269978 0.14866278 -2.81269978 0.14866278 0 0 Z " fill="#434950" transform="translate(99.84765625,95.90234375)"/>
<path d="M0 0 C-0.33 0.66 -0.66 1.32 -1 2 C-1.99 2 -2.98 2 -4 2 C-4 3.32 -4 4.64 -4 6 C-6.31246912 6.16709454 -8.62497615 6.33366462 -10.9375 6.5 C-12.22527344 6.5928125 -13.51304687 6.685625 -14.83984375 6.78125 C-18 7 -18 7 -19 7 C-19.86625 7.495 -19.86625 7.495 -20.75 8 C-23.33498326 9.14888145 -25.2018918 9.15545046 -28 9 C-28 9.66 -28 10.32 -28 11 C-28.99 11 -29.98 11 -31 11 C-30.33333333 9.66666667 -29.66666667 8.33333333 -29 7 C-28.75378906 6.3296875 -28.50757813 5.659375 -28.25390625 4.96875 C-26.02835356 1.47442429 -22.44717378 1.39266664 -18.59765625 0.52734375 C-12.39091191 -0.38243962 -6.26109865 -0.23094216 0 0 Z " fill="#293139" transform="translate(163,21)"/>
<path d="M0 0 C4.40032387 2.65370409 6.47512065 5.87010996 7.71875 10.76171875 C7.78125 14.07421875 7.78125 14.07421875 5.78125 17.07421875 C3.03713087 16.71937576 2.01193634 16.35334923 0.21875 14.18359375 C-0.255625 13.405 -0.73 12.62640625 -1.21875 11.82421875 C-2.91789829 9.10730652 -4.54542097 6.67877495 -6.59375 4.19921875 C-8.21875 2.07421875 -8.21875 2.07421875 -8.21875 -0.92578125 C-4.71865203 -2.09248057 -3.27434492 -1.53311489 0 0 Z " fill="#32353D" transform="translate(255.21875,54.92578125)"/>
<path d="M0 0 C10.89761308 -0.2071352 21.27133239 -0.15729044 32 2 C30.02 2.99 30.02 2.99 28 4 C28.66 4.66 29.32 5.32 30 6 C18.64141683 6.18966094 7.33887596 5.60465428 -4 5 C-3.67 4.34 -3.34 3.68 -3 3 C0.0625 2.375 0.0625 2.375 3 2 C2.01 1.34 1.02 0.68 0 0 Z " fill="#272E37" transform="translate(168,21)"/>
<path d="M0 0 C0.99 0.495 0.99 0.495 2 1 C2 1.66 2 2.32 2 3 C2.78375 3.226875 3.5675 3.45375 4.375 3.6875 C7 5 7 5 8.15625 7.1875 C9.11166436 10.37221455 9.19792779 12.9942857 9.125 16.3125 C9.10695313 17.38113281 9.08890625 18.44976562 9.0703125 19.55078125 C9.03550781 20.76314453 9.03550781 20.76314453 9 22 C8.67 21.34 8.34 20.68 8 20 C7.01 20.33 6.02 20.66 5 21 C5 19.35 5 17.7 5 16 C4.34 16 3.68 16 3 16 C3 23.26 3 30.52 3 38 C2.67 38 2.34 38 2 38 C1.97494385 37.23969482 1.9498877 36.47938965 1.92407227 35.69604492 C1.80678371 32.19307983 1.68466943 28.69029814 1.5625 25.1875 C1.52318359 23.99189453 1.48386719 22.79628906 1.44335938 21.56445312 C1.18767372 14.34625044 0.74940928 7.18421439 0 0 Z " fill="#3E444C" transform="translate(264,86)"/>
<path d="M0 0 C4.09338652 -0.04939115 8.18665798 -0.08571501 12.28027344 -0.10986328 C13.67320781 -0.11992877 15.06612102 -0.13358234 16.45898438 -0.15087891 C18.4595436 -0.1751022 20.46025615 -0.18540814 22.4609375 -0.1953125 C24.26763916 -0.21102295 24.26763916 -0.21102295 26.11083984 -0.22705078 C29 0 29 0 31 2 C30.67 2.66 30.34 3.32 30 4 C25.27729494 5.57423502 20.50964691 5.30843289 15.5625 5.375 C14.51255859 5.41238281 13.46261719 5.44976562 12.38085938 5.48828125 C11.36958984 5.49988281 10.35832031 5.51148438 9.31640625 5.5234375 C8.39287354 5.54325684 7.46934082 5.56307617 6.51782227 5.58349609 C3.01388056 4.77147043 1.96263402 2.90358357 0 0 Z " fill="#272E36" transform="translate(141,227)"/>
<path d="M0 0 C1.2375 0.9590625 1.2375 0.9590625 2.5 1.9375 C3.16 2.2675 3.82 2.5975 4.5 2.9375 C4.5 3.9275 4.5 4.9175 4.5 5.9375 C-4.57519588 5.56015298 -12.83318919 3.45216171 -21.5 0.9375 C-20.18 0.2775 -18.86 -0.3825 -17.5 -1.0625 C-17.83 -1.7225 -18.16 -2.3825 -18.5 -3.0625 C-12.10600833 -4.64675106 -5.53033075 -3.72312193 0 0 Z " fill="#464953" transform="translate(213.5,27.0625)"/>
<path d="M0 0 C-0.45375 0.7425 -0.9075 1.485 -1.375 2.25 C-3.83674106 5.89095799 -3.83674106 5.89095799 -5 10 C-6.051875 10.268125 -7.10375 10.53625 -8.1875 10.8125 C-11.951236 11.8201548 -11.951236 11.8201548 -14.8125 13.6875 C-15.534375 14.120625 -16.25625 14.55375 -17 15 C-17.66 14.67 -18.32 14.34 -19 14 C-18.34 12.35 -17.68 10.7 -17 9 C-16.34 9 -15.68 9 -15 9 C-15 8.34 -15 7.68 -15 7 C-15.61875 7.185625 -16.2375 7.37125 -16.875 7.5625 C-19 8 -19 8 -21 7 C-21 6.34 -21 5.68 -21 5 C-20.01257813 4.72285156 -19.02515625 4.44570313 -18.0078125 4.16015625 C-16.71351203 3.79437568 -15.41924281 3.42848451 -14.125 3.0625 C-13.47402344 2.88009766 -12.82304688 2.69769531 -12.15234375 2.50976562 C-3.01944232 -0.07945901 -3.01944232 -0.07945901 0 0 Z " fill="#393C47" transform="translate(138,23)"/>
<path d="M0 0 C1.98681687 2.9802253 2.31996 4.21510771 2.8125 7.625 C3.68166297 12.44426134 5.41584483 16.04298586 7.9765625 20.1875 C9 22 9 22 9 24 C8.01 24 7.02 24 6 24 C5.01 26.475 5.01 26.475 4 29 C3.67 28.34 3.34 27.68 3 27 C2.34 27 1.68 27 1 27 C0.01 23.37 -0.98 19.74 -2 16 C-1.01 15.01 -0.02 14.02 1 13 C1.33782788 8.52378055 0.85738516 4.39409892 0 0 Z " fill="#40434D" transform="translate(62,152)"/>
<path d="M0 0 C0.66 0.33 1.32 0.66 2 1 C0.02 3.97 0.02 3.97 -2 7 C0.64 7 3.28 7 6 7 C3.09378023 10.0148635 0.03566551 12.65605355 -3.25 15.25 C-4.14203125 15.95640625 -5.0340625 16.6628125 -5.953125 17.390625 C-6.62859375 17.92171875 -7.3040625 18.4528125 -8 19 C-8.625 17.125 -8.625 17.125 -9 15 C-7.33333333 13.33333333 -5.66666667 11.66666667 -4 10 C-4.78375 10.20625 -5.5675 10.4125 -6.375 10.625 C-7.24125 10.74875 -8.1075 10.8725 -9 11 C-9.66 10.34 -10.32 9.68 -11 9 C-9.73113036 7.87278564 -8.45982438 6.74831342 -7.1875 5.625 C-6.47980469 4.99851562 -5.77210937 4.37203125 -5.04296875 3.7265625 C-3 2 -3 2 0 0 Z " fill="#3D424D" transform="translate(99,38)"/>
<path d="M0 0 C2.96175123 0.61277612 4.38058783 1.25372522 7 3 C5.78651845 7.0138236 4.62773046 10.69100609 2 14 C-0.5625 14.25 -0.5625 14.25 -3 14 C-3.99 14.495 -3.99 14.495 -5 15 C-4.5188509 9.22621075 -2.81532819 5.04140164 0 0 Z " fill="#353741" transform="translate(69,70)"/>
<path d="M0 0 C0.33 1.65 0.66 3.3 1 5 C-9.37357631 11.88838269 -9.37357631 11.88838269 -15 11 C-13.41450777 6.15544041 -13.41450777 6.15544041 -12 4 C-8.8125 3.0625 -8.8125 3.0625 -6 3 C-6 2.34 -6 1.68 -6 1 C-3.92446352 0.4465236 -2.15634036 0 0 0 Z " fill="#2E3239" transform="translate(218,209)"/>
<path d="M0 0 C1.00016187 2.00032373 1.49396008 3.83125748 2 6 C2.66 5.34 3.32 4.68 4 4 C4.99 4 5.98 4 7 4 C7 5.65 7 7.3 7 9 C7.99 9.33 8.98 9.66 10 10 C4.77729131 12.66464729 1.9180497 13.32854177 -4 12 C-3.33501617 7.61110675 -1.81242323 4.0188515 0 0 Z " fill="#2E333E" transform="translate(109,120)"/>
<path d="M0 0 C3.45279579 3.18020665 3.73938395 6.66229323 4.375 11.1875 C3.715 11.1875 3.055 11.1875 2.375 11.1875 C2.045 11.8475 1.715 12.5075 1.375 13.1875 C-1.90242098 10.08723691 -4.55604837 7.21651106 -6.625 3.1875 C-6.625 2.5275 -6.625 1.8675 -6.625 1.1875 C-4.01445876 -0.64954754 -3.11009173 -0.96264744 0 0 Z " fill="#353842" transform="translate(80.625,189.8125)"/>
<path d="M0 0 C3.1166231 2.54996436 4.01692052 5.14330357 5 9 C5.125 12.375 5.125 12.375 5 15 C3.68 14.34 2.36 13.68 1 13 C1 12.34 1 11.68 1 11 C0.01 10.67 -0.98 10.34 -2 10 C-3.39431504 7.21136993 -3.25660094 5.07921132 -3 2 C-2.01 1.34 -1.02 0.68 0 0 Z " fill="#2D303B" transform="translate(264,71)"/>
<path d="M0 0 C0.33 0.66 0.66 1.32 1 2 C0.67 2.66 0.34 3.32 0 4 C0.66 4 1.32 4 2 4 C2.33 4.99 2.66 5.98 3 7 C3.66 7.33 4.32 7.66 5 8 C5 7.01 5 6.02 5 5 C5.99 5 6.98 5 8 5 C7.67 4.01 7.34 3.02 7 2 C8.65 2 10.3 2 12 2 C11.6875 3.9375 11.6875 3.9375 11 6 C10.01 6.33 9.02 6.66 8 7 C7.67 7.99 7.34 8.98 7 10 C0.25 11.125 0.25 11.125 -2 10 C-1.85950482 8.52031676 -1.71245174 7.04125484 -1.5625 5.5625 C-1.48128906 4.73878906 -1.40007812 3.91507812 -1.31640625 3.06640625 C-1 1 -1 1 0 0 Z " fill="#383D45" transform="translate(183,120)"/>
<path d="M0 0 C3 3 3 3 4 6 C3.34 6 2.68 6 2 6 C2 7.32 2 8.64 2 10 C2.99 9.34 3.98 8.68 5 8 C5.99 8 6.98 8 8 8 C7.67 9.98 7.34 11.96 7 14 C6.01 14.33 5.02 14.66 4 15 C1.05750449 12.35175404 -1.11899384 9.48334474 -3 6 C-2.37975732 3.46264356 -1.85450566 1.85450566 0 0 Z " fill="#293035" transform="translate(255,57)"/>
<path d="M0 0 C3.0466145 1.01553817 5.31143836 2.20762558 8 4 C7.67 5.65 7.34 7.3 7 9 C5.3125 9.8125 5.3125 9.8125 3 10 C0.25 7.8125 0.25 7.8125 -2 5 C-2 3.68 -2 2.36 -2 1 C-1.34 0.67 -0.68 0.34 0 0 Z " fill="#363C41" transform="translate(235,38)"/>
<path d="M0 0 C0.66 0.33 1.32 0.66 2 1 C2 1.66 2 2.32 2 3 C1.34 3 0.68 3 0 3 C0.33 4.32 0.66 5.64 1 7 C0.34 7 -0.32 7 -1 7 C-1.433125 8.423125 -1.433125 8.423125 -1.875 9.875 C-3 13 -3 13 -5 15 C-7.125 14.625 -7.125 14.625 -9 14 C-9 12.68 -9 11.36 -9 10 C-8.01 10 -7.02 10 -6 10 C-6.33 9.34 -6.66 8.68 -7 8 C-4.69 5.36 -2.38 2.72 0 0 Z " fill="#292D38" transform="translate(242,184)"/>
<path d="M0 0 C3.80635497 3.20760251 7.54563567 6.40746109 11 10 C8.03 9.505 8.03 9.505 5 9 C4.01 10.485 4.01 10.485 3 12 C-0.875 10.25 -0.875 10.25 -2 8 C-1.67 7.34 -1.34 6.68 -1 6 C-0.34 6 0.32 6 1 6 C1 5.34 1 4.68 1 4 C0.34 3.67 -0.32 3.34 -1 3 C-0.67 2.01 -0.34 1.02 0 0 Z " fill="#3C4049" transform="translate(84,195)"/>
<path d="M0 0 C3.84954453 0.53465896 6.01754111 1.53175816 9 4 C9.66 4.33 10.32 4.66 11 5 C11 5.99 11 6.98 11 8 C8.03 7.67 5.06 7.34 2 7 C2 6.34 2 5.68 2 5 C0.68 5 -0.64 5 -2 5 C-1.34 3.35 -0.68 1.7 0 0 Z " fill="#2E303C" transform="translate(207,25)"/>
<path d="M0 0 C0.33 0.66 0.66 1.32 1 2 C0.01 2 -0.98 2 -2 2 C-2 2.66 -2 3.32 -2 4 C-1.34 4.33 -0.68 4.66 0 5 C-5.39449293 5.27429625 -8.51925805 5.36055646 -13 2 C-9.30886482 -2.01210346 -4.90901699 -1.32433927 0 0 Z " fill="#2B2E38" transform="translate(137,225)"/>
<path d="M0 0 C1.0326802 2.78823655 1.04509293 3.8677274 0.0625 6.75 C-0.288125 7.4925 -0.63875 8.235 -1 9 C-1.33 8.01 -1.66 7.02 -2 6 C-5.24849977 7.72226496 -5.24849977 7.72226496 -6 11 C-8.0625 12.6875 -8.0625 12.6875 -10 14 C-9.8864371 12.35333797 -9.75882619 10.70763918 -9.625 9.0625 C-9.55539063 8.14597656 -9.48578125 7.22945313 -9.4140625 6.28515625 C-9.27742188 5.53105469 -9.14078125 4.77695313 -9 4 C-8.34 3.67 -7.68 3.34 -7 3 C-6.67 3.66 -6.34 4.32 -6 5 C-4.02 3.35 -2.04 1.7 0 0 Z " fill="#595C65" transform="translate(65,95)"/>
<path d="M0 0 C3.465 1.98 3.465 1.98 7 4 C6.67 4.66 6.34 5.32 6 6 C6.66 6 7.32 6 8 6 C7.67 6.99 7.34 7.98 7 9 C6.34 9 5.68 9 5 9 C5 9.66 5 10.32 5 11 C-0.75 9.375 -0.75 9.375 -3 6 C-2.01 6 -1.02 6 0 6 C-0.185625 5.38125 -0.37125 4.7625 -0.5625 4.125 C-1 2 -1 2 0 0 Z " fill="#424450" transform="translate(100,209)"/>
<path d="M0 0 C0.33 2.64 0.66 5.28 1 8 C0.13375 7.79375 -0.7325 7.5875 -1.625 7.375 C-5.36428602 6.95952378 -7.54942141 7.60333724 -11 9 C-10.1875 6.5625 -10.1875 6.5625 -9 4 C-8.01 3.67 -7.02 3.34 -6 3 C-5.67 2.34 -5.34 1.68 -5 1 C-2 0 -2 0 0 0 Z " fill="#292E38" transform="translate(114,32)"/>
<path d="M0 0 C1.23086034 3.69258103 0.66728638 4.58206293 -1 8 C-2.5 10.3125 -2.5 10.3125 -4 12 C-4.66 12 -5.32 12 -6 12 C-6 11.01 -6 10.02 -6 9 C-7.32 9.99 -8.64 10.98 -10 12 C-8.52278578 8.54798361 -6.56205999 6.35038064 -3.875 3.75 C-3.15054688 3.04359375 -2.42609375 2.3371875 -1.6796875 1.609375 C-1.12539062 1.07828125 -0.57109375 0.5471875 0 0 Z " fill="#383D41" transform="translate(87,48)"/>
<path d="M0 0 C1.1446875 0.3403125 1.1446875 0.3403125 2.3125 0.6875 C2.6425 1.6775 2.9725 2.6675 3.3125 3.6875 C2.6525 3.6875 1.9925 3.6875 1.3125 3.6875 C0.9825 4.3475 0.6525 5.0075 0.3125 5.6875 C0.3125 5.0275 0.3125 4.3675 0.3125 3.6875 C-0.3475 3.6875 -1.0075 3.6875 -1.6875 3.6875 C-1.3575 5.0075 -1.0275 6.3275 -0.6875 7.6875 C-1.3475 7.6875 -2.0075 7.6875 -2.6875 7.6875 C-3.0175 7.0275 -3.3475 6.3675 -3.6875 5.6875 C-5.0075 6.0175 -6.3275 6.3475 -7.6875 6.6875 C-4.45731707 -0.51829268 -4.45731707 -0.51829268 0 0 Z M-5.6875 6.6875 C-4.6975 7.0175 -3.7075 7.3475 -2.6875 7.6875 C-3.6775 8.0175 -4.6675 8.3475 -5.6875 8.6875 C-5.6875 8.0275 -5.6875 7.3675 -5.6875 6.6875 Z " fill="#41464D" transform="translate(212.6875,81.3125)"/>
<path d="M0 0 C0.33 0.99 0.66 1.98 1 3 C0.29875 3.680625 -0.4025 4.36125 -1.125 5.0625 C-4.27934337 8.20780513 -7.13934304 11.5888386 -10 15 C-11.32 14.34 -12.64 13.68 -14 13 C-14 12.34 -14 11.68 -14 11 C-12.88625 10.773125 -11.7725 10.54625 -10.625 10.3125 C-6.86323391 9.43158389 -6.86323391 9.43158389 -5.875 6.625 C-5.58625 5.75875 -5.2975 4.8925 -5 4 C-2.375 1.6875 -2.375 1.6875 0 0 Z " fill="#424A54" transform="translate(222,109)"/>
<path d="M0 0 C0.66 0.33 1.32 0.66 2 1 C2 2.65 2 4.3 2 6 C1.34 6 0.68 6 0 6 C-0.3403125 6.86625 -0.3403125 6.86625 -0.6875 7.75 C-2.33038023 10.5663661 -4.39533227 12.08077114 -7 14 C-7 13.34 -7 12.68 -7 12 C-7.66 12 -8.32 12 -9 12 C-9 11.34 -9 10.68 -9 10 C-8.34 10 -7.68 10 -7 10 C-7 9.34 -7 8.68 -7 8 C-6.01 8 -5.02 8 -4 8 C-3.67 7.34 -3.34 6.68 -3 6 C-2.34 5.01 -1.68 4.02 -1 3 C-0.67 2.01 -0.34 1.02 0 0 Z " fill="#363844" transform="translate(155,93)"/>
<path d="M0 0 C2.05078125 0.03255208 4.1015625 0.06510417 6.15234375 0.09765625 C5.16234375 0.42765625 4.17234375 0.75765625 3.15234375 1.09765625 C3.15234375 1.75765625 3.15234375 2.41765625 3.15234375 3.09765625 C4.14234375 3.09765625 5.13234375 3.09765625 6.15234375 3.09765625 C6.48234375 4.41765625 6.81234375 5.73765625 7.15234375 7.09765625 C4.28509689 6.52420688 3.29089225 6.23620475 1.15234375 4.09765625 C0.69859375 4.59265625 0.24484375 5.08765625 -0.22265625 5.59765625 C-1.84765625 7.09765625 -1.84765625 7.09765625 -3.84765625 7.09765625 C-2.81269978 0.14866278 -2.81269978 0.14866278 0 0 Z " fill="#454A52" transform="translate(99.84765625,95.90234375)"/>
<path d="M0 0 C0.33 1.32 0.66 2.64 1 4 C1.66 4 2.32 4 3 4 C3.33 5.32 3.66 6.64 4 8 C3.34 8 2.68 8 2 8 C2 8.66 2 9.32 2 10 C0.68 10.33 -0.64 10.66 -2 11 C-2 10.01 -2 9.02 -2 8 C-2.33 8.99 -2.66 9.98 -3 11 C-3.66 11 -4.32 11 -5 11 C-3.55049545 7.2089881 -1.84827434 3.6125362 0 0 Z M5 4 C5.33 4.66 5.66 5.32 6 6 C5.34 5.67 4.68 5.34 4 5 C4.33 4.67 4.66 4.34 5 4 Z " fill="#444A52" transform="translate(189,109)"/>
<path d="M0 0 C1.98 0.495 1.98 0.495 4 1 C4.6514047 4.09417233 5 6.84846376 5 10 C3.68 10.33 2.36 10.66 1 11 C-1.78637633 6.8204355 -0.79562512 4.85331323 0 0 Z " fill="#2B2E39" transform="translate(67,175)"/>
<path d="M0 0 C4.37934119 0.51958285 8.68803391 1.05675742 13 2 C13 2.33 13 2.66 13 3 C12.31292969 2.97679687 11.62585938 2.95359375 10.91796875 2.9296875 C10.01691406 2.91164062 9.11585938 2.89359375 8.1875 2.875 C7.29417969 2.85179687 6.40085938 2.82859375 5.48046875 2.8046875 C2.74597286 2.81714173 2.74597286 2.81714173 0 5 C0.33 5.66 0.66 6.32 1 7 C-2.3 6.01 -5.6 5.02 -9 4 C-6.0017825 3.25044562 -3.03063487 2.58929011 0 2 C0 1.34 0 0.68 0 0 Z " fill="#4C4E5A" transform="translate(125,222)"/>
<path d="M0 0 C0.33 0.99 0.66 1.98 1 3 C-2.00241256 4.54409789 -3.4162184 5.1459454 -6.75 4.3125 C-9 3 -9 3 -10 0 C-6.7169902 -1.6415049 -3.57454967 -0.51888624 0 0 Z " fill="#2A2C37" transform="translate(124,221)"/>
<path d="M0 0 C-0.66 1.32 -1.32 2.64 -2 4 C-1.01 4.66 -0.02 5.32 1 6 C-5.75 9 -5.75 9 -8 9 C-8 6 -8 6 -6.5 4.3125 C-6.005 3.879375 -5.51 3.44625 -5 3 C-5.99 2.34 -6.98 1.68 -8 1 C-3.375 -1.125 -3.375 -1.125 0 0 Z " fill="#41454C" transform="translate(206,215)"/>
<path d="M0 0 C0.5534764 2.07553648 1 3.84365964 1 6 C1.66 6 2.32 6 3 6 C3.66 7.32 4.32 8.64 5 10 C3.68 9.67 2.36 9.34 1 9 C1 9.99 1 10.98 1 12 C0.01 11.67 -0.98 11.34 -2 11 C-2 10.01 -2 9.02 -2 8 C-2.66 8 -3.32 8 -4 8 C-3.67 6.68 -3.34 5.36 -3 4 C-2.34 4 -1.68 4 -1 4 C-0.67 2.68 -0.34 1.36 0 0 Z " fill="#272D38" transform="translate(187,116)"/>
<path d="M0 0 C6.75 1.625 6.75 1.625 9 5 C7.02 5.99 7.02 5.99 5 7 C5 7.99 5 8.98 5 10 C3.02 9.34 1.04 8.68 -1 8 C-1 7.34 -1 6.68 -1 6 C-0.34 6 0.32 6 1 6 C0.67 4.02 0.34 2.04 0 0 Z " fill="#5C5F67" transform="translate(111,215)"/>
<path d="M0 0 C-4.43076923 5.78461538 -4.43076923 5.78461538 -7.3125 6.875 C-8.1478125 6.936875 -8.1478125 6.936875 -9 7 C-10 4 -10 4 -10 1 C-6.59437148 0.22157062 -3.49234244 -0.09978121 0 0 Z " fill="#353C42" transform="translate(134,25)"/>
<path d="M0 0 C0.66 0 1.32 0 2 0 C2.33 1.65 2.66 3.3 3 5 C0 6 0 6 -3 5 C-2.67 6.98 -2.34 8.96 -2 11 C-3.32 10.67 -4.64 10.34 -6 10 C-5.49259538 5.60249328 -2.91706686 3.13051078 0 0 Z " fill="#44494F" transform="translate(186,175)"/>
<path d="M0 0 C-0.33 0.99 -0.66 1.98 -1 3 C-1.99 3 -2.98 3 -4 3 C-4 4.32 -4 5.64 -4 7 C-5.98 7 -7.96 7 -10 7 C-8.54347826 1.41666667 -8.54347826 1.41666667 -6.125 -0.4375 C-3.68444196 -1.08353007 -2.35343441 -0.84051229 0 0 Z " fill="#2C3138" transform="translate(202,218)"/>
<path d="M0 0 C0.99 0 1.98 0 3 0 C4.125 2.3125 4.125 2.3125 5 5 C4.01 6.485 4.01 6.485 3 8 C2.34 7.34 1.68 6.68 1 6 C-0.32 6 -1.64 6 -3 6 C-1.125 1.125 -1.125 1.125 0 0 Z " fill="#272D38" transform="translate(129,85)"/>
<path d="M0 0 C3 2 3 2 3.6875 4.125 C3.790625 4.74375 3.89375 5.3625 4 6 C3.01 6 2.02 6 1 6 C1 6.66 1 7.32 1 8 C-0.32 7.67 -1.64 7.34 -3 7 C-3.33 5.35 -3.66 3.7 -4 2 C-2.68 1.34 -1.36 0.68 0 0 Z " fill="#2D2F3A" transform="translate(78,189)"/>
<path d="M0 0 C0.66 1.32 1.32 2.64 2 4 C1.01 4.495 1.01 4.495 0 5 C-0.66 4.67 -1.32 4.34 -2 4 C-1.42655063 6.86724686 -1.1385485 7.8614515 1 10 C-0.32 10.99 -1.64 11.98 -3 13 C-3.12375 12.21625 -3.2475 11.4325 -3.375 10.625 C-3.79117993 7.85942178 -3.79117993 7.85942178 -6 6 C-4 4 -2 2 0 0 Z " fill="#484B53" transform="translate(235,190)"/>
<path d="M0 0 C0.91058531 3.07322544 1.08886184 5.80097361 1 9 C0.01 9 -0.98 9 -2 9 C-2.0825 9.61875 -2.165 10.2375 -2.25 10.875 C-3 13 -3 13 -5.0625 14.25 C-5.701875 14.4975 -6.34125 14.745 -7 15 C-6.690625 14.236875 -6.38125 13.47375 -6.0625 12.6875 C-5.32106407 10.81210323 -4.63771783 8.91315348 -4 7 C-3.34 7 -2.68 7 -2 7 C-1.855625 6.21625 -1.71125 5.4325 -1.5625 4.625 C-1 2 -1 2 0 0 Z " fill="#585962" transform="translate(256,158)"/>
<path d="M0 0 C1.134375 0.020625 2.26875 0.04125 3.4375 0.0625 C2.9425 0.454375 2.4475 0.84625 1.9375 1.25 C-0.01843143 3.61341715 0.19542027 5.07685003 0.4375 8.0625 C-2.0375 7.0725 -2.0375 7.0725 -4.5625 6.0625 C-4.605221 4.39638095 -4.60313832 2.72867115 -4.5625 1.0625 C-3.5625 0.0625 -3.5625 0.0625 0 0 Z " fill="#474B52" transform="translate(166.5625,185.9375)"/>
<path d="M0 0 C0.99 0.66 1.98 1.32 3 2 C2.67 3.65 2.34 5.3 2 7 C0.824375 6.9690625 0.824375 6.9690625 -0.375 6.9375 C-2.98114961 6.81315937 -2.98114961 6.81315937 -5 8 C-4.64950425 4.75791433 -4.43778819 3.38472296 -1.9375 1.1875 C-1.298125 0.795625 -0.65875 0.40375 0 0 Z " fill="#292D37" transform="translate(69,77)"/>
<path d="M0 0 C2.33333333 2.33333333 4.66666667 4.66666667 7 7 C7 7.99 7 8.98 7 10 C5.35 10.66 3.7 11.32 2 12 C2 10.68 2 9.36 2 8 C2.66 8 3.32 8 4 8 C2.15811388 5.94729537 2.15811388 5.94729537 0 5 C0 3.33333333 0 1.66666667 0 0 Z " fill="#454B52" transform="translate(255,55)"/>
<path d="M0 0 C-0.45375 0.7425 -0.9075 1.485 -1.375 2.25 C-2.98364832 4.87563711 -2.98364832 4.87563711 -4.0625 7.25 C-5 9 -5 9 -7 10 C-7.66 9.67 -8.32 9.34 -9 9 C-7.84826645 6.53199953 -6.95216435 4.95216435 -5 3 C-5.66 2.34 -6.32 1.68 -7 1 C-4.53721199 -0.231394 -2.7204945 -0.07159196 0 0 Z " fill="#515660" transform="translate(138,23)"/>
<path d="M0 0 C0.33 0.66 0.66 1.32 1 2 C0.67 2.66 0.34 3.32 0 4 C0.66 4 1.32 4 2 4 C3.125 8.75 3.125 8.75 2 11 C0.68 10.67 -0.64 10.34 -2 10 C-1.85950482 8.52031676 -1.71245174 7.04125484 -1.5625 5.5625 C-1.48128906 4.73878906 -1.40007812 3.91507812 -1.31640625 3.06640625 C-1 1 -1 1 0 0 Z " fill="#40464B" transform="translate(183,120)"/>
<path d="M0 0 C2.1610211 3.24153166 2.64247553 4.23692901 2 8 C-0.5 10.3125 -0.5 10.3125 -3 12 C-2.67 9.03 -2.34 6.06 -2 3 C-1.34 3 -0.68 3 0 3 C0 2.01 0 1.02 0 0 Z " fill="#343640" transform="translate(61,89)"/>
<path d="M0 0 C2.31 0 4.62 0 7 0 C5.25 3.875 5.25 3.875 3 5 C1.86649466 7.01669827 1.86649466 7.01669827 1 9 C1 8.34 1 7.68 1 7 C0.34 7 -0.32 7 -1 7 C-0.67 4.69 -0.34 2.38 0 0 Z M1 1 C2 3 2 3 2 3 Z " fill="#282C37" transform="translate(88,48)"/>
<path d="M0 0 C0.66 0 1.32 0 2 0 C3.55136786 2.46393719 4.03039129 3.68089146 3.75 6.625 C3 9 3 9 1 11 C-1.42857143 3.57142857 -1.42857143 3.57142857 0 0 Z " fill="#2C2D3C" transform="translate(257,158)"/>
<path d="M0 0 C0.28875 0.804375 0.5775 1.60875 0.875 2.4375 C1.73262568 5.1326468 1.73262568 5.1326468 4 6 C3.01 6.33 2.02 6.66 1 7 C0.67 5.68 0.34 4.36 0 3 C-1.98 3.33 -3.96 3.66 -6 4 C-6 4.66 -6 5.32 -6 6 C-7.32 5.67 -8.64 5.34 -10 5 C-8.71186658 4.16121545 -7.41936744 3.32913217 -6.125 2.5 C-5.40570313 2.0359375 -4.68640625 1.571875 -3.9453125 1.09375 C-2 0 -2 0 0 0 Z " fill="#4D5359" transform="translate(218,206)"/>
<path d="M0 0 C0 0.66 0 1.32 0 2 C0.66 2 1.32 2 2 2 C1.67 2.99 1.34 3.98 1 5 C-1.76276177 4.47731534 -4.3260876 3.89130413 -7 3 C-7 2.34 -7 1.68 -7 1 C-4 0 -4 0 0 0 Z " fill="#2B2C38" transform="translate(183,185)"/>
<path d="M0 0 C0.99 0.99 1.98 1.98 3 3 C2.67 3.66 2.34 4.32 2 5 C1.01 5.33 0.02 5.66 -1 6 C-1.33 7.65 -1.66 9.3 -2 11 C-3.89213369 8.61426621 -5.02391783 6.92824652 -6 4 C-4.68 4 -3.36 4 -2 4 C-1.34 2.68 -0.68 1.36 0 0 Z " fill="#4C545C" transform="translate(263,67)"/>
<path d="M0 0 C0.66 0.33 1.32 0.66 2 1 C1.67 1.66 1.34 2.32 1 3 C1.89163577 5.11683841 1.89163577 5.11683841 3 7 C-1.75 8.125 -1.75 8.125 -4 7 C-2.92598892 4.08482708 -2.22189824 2.22189824 0 0 Z " fill="#262C37" transform="translate(101,38)"/>
<path d="M0 0 C0.268125 0.598125 0.53625 1.19625 0.8125 1.8125 C1.98493467 3.97224808 3.19369282 5.35790256 5 7 C4.34 7.66 3.68 8.32 3 9 C2.01 9 1.02 9 0 9 C0 8.34 0 7.68 0 7 C-0.66 7 -1.32 7 -2 7 C-2 5.68 -2 4.36 -2 3 C-1.34 3 -0.68 3 0 3 C0 2.01 0 1.02 0 0 Z " fill="#262E35" transform="translate(192,106)"/>
<path d="M0 0 C1.32 0.66 2.64 1.32 4 2 C3.625 4.4375 3.625 4.4375 3 7 C2.01 7.495 2.01 7.495 1 8 C1 7.34 1 6.68 1 6 C0.34 6 -0.32 6 -1 6 C-1.042721 4.33388095 -1.04063832 2.66617115 -1 1 C-0.67 0.67 -0.34 0.34 0 0 Z " fill="#2B2D3D" transform="translate(250,172)"/>
<path d="M0 0 C0.15082031 0.60714844 0.30164063 1.21429688 0.45703125 1.83984375 C0.85359538 3.41754135 1.26595645 4.99129223 1.6875 6.5625 C2 9 2 9 0 12 C-0.66 11.67 -1.32 11.34 -2 11 C-2 11.99 -2 12.98 -2 14 C-2.66 14 -3.32 14 -4 14 C-3.566875 13.0409375 -3.566875 13.0409375 -3.125 12.0625 C-1.6752275 8.11589708 -0.84221938 4.1125393 0 0 Z " fill="#494B55" transform="translate(263,138)"/>
<path d="M0 0 C1.98 0 3.96 0 6 0 C6.45375 0.94875 6.9075 1.8975 7.375 2.875 C8.80238254 6.00313679 8.80238254 6.00313679 11 8 C6.59036422 7.05507805 3.82405324 6.23607985 1.25 2.375 C0.8375 1.59125 0.425 0.8075 0 0 Z " fill="#424951" transform="translate(187,104)"/>
<path d="M0 0 C0.33 0.66 0.66 1.32 1 2 C1.66 2 2.32 2 3 2 C3 2.66 3 3.32 3 4 C3.66 4 4.32 4 5 4 C5 4.66 5 5.32 5 6 C4.34 6 3.68 6 3 6 C3 6.66 3 7.32 3 8 C2.34 8 1.68 8 1 8 C-1 5 -1 5 -0.625 2.3125 C-0.41875 1.549375 -0.2125 0.78625 0 0 Z " fill="#494B52" transform="translate(182,94)"/>
<path d="M0 0 C0.0825 0.556875 0.165 1.11375 0.25 1.6875 C1.22610013 4.69714206 2.95188814 6.62154752 5 9 C4.01 9.495 4.01 9.495 3 10 C1.02 8.68 -0.96 7.36 -3 6 C-1.125 1.125 -1.125 1.125 0 0 Z " fill="#5A5F67" transform="translate(73,64)"/>
<path d="M0 0 C2.97 0.495 2.97 0.495 6 1 C5.67 2.32 5.34 3.64 5 5 C2 5 2 5 0.3125 3.5 C-0.120625 3.005 -0.55375 2.51 -1 2 C-0.67 1.34 -0.34 0.68 0 0 Z " fill="#272D36" transform="translate(237,42)"/>
<path d="M0 0 C2.31 0.33 4.62 0.66 7 1 C6.01 2.32 5.02 3.64 4 5 C2.68 4.67 1.36 4.34 0 4 C0 2.68 0 1.36 0 0 Z " fill="#313441" transform="translate(233,194)"/>
<path d="M0 0 C1.98 0 3.96 0 6 0 C6 0.66 6 1.32 6 2 C5.34 2.66 4.68 3.32 4 4 C4 4.66 4 5.32 4 6 C3.01 6 2.02 6 1 6 C-0.0625 4.125 -0.0625 4.125 -1 2 C-0.67 1.34 -0.34 0.68 0 0 Z " fill="#282C36" transform="translate(117,30)"/>
<path d="M0 0 C1.5 1.0625 1.5 1.0625 3 3 C3.1875 6.6875 3.1875 6.6875 3 10 C2.67 9.34 2.34 8.68 2 8 C1.01 7.67 0.02 7.34 -1 7 C-0.67 4.69 -0.34 2.38 0 0 Z " fill="#282A35" transform="translate(264,138)"/>
<path d="M0 0 C3 1 3 1 4.1875 3.0625 C4.455625 3.701875 4.72375 4.34125 5 5 C1.86650268 6.04449911 1.01031744 5.93423645 -2 5 C-1.34 3.35 -0.68 1.7 0 0 Z " fill="#2A303C" transform="translate(100,99)"/>
<path d="M0 0 C0.99 0.495 0.99 0.495 2 1 C2 1.66 2 2.32 2 3 C3.32 3.66 4.64 4.32 6 5 C5.34 5.66 4.68 6.32 4 7 C1.875 6.625 1.875 6.625 0 6 C0 4.02 0 2.04 0 0 Z " fill="#333640" transform="translate(264,86)"/>
<path d="M0 0 C0.99 0 1.98 0 3 0 C2.67 1.98 2.34 3.96 2 6 C1.01 6 0.02 6 -1 6 C-1.33 5.67 -1.66 5.34 -2 5 C-1.30769231 1.30769231 -1.30769231 1.30769231 0 0 Z " fill="#2E383E" transform="translate(260,65)"/>
<path d="M0 0 C-0.33 0.99 -0.66 1.98 -1 3 C-1.99 3 -2.98 3 -4 3 C-4.33 4.98 -4.66 6.96 -5 9 C-5.99 8.67 -6.98 8.34 -8 8 C-8 5 -8 5 -6.125 2.875 C-2.86666667 0 -2.86666667 0 0 0 Z " fill="#494F57" transform="translate(109,33)"/>
<path d="M0 0 C1.35439668 2.70879335 1.06501451 5.00933268 1 8 C0.01 8.33 -0.98 8.66 -2 9 C-2.66 9.99 -3.32 10.98 -4 12 C-3.33501617 7.61110675 -1.81242323 4.0188515 0 0 Z " fill="#5E6066" transform="translate(109,120)"/>
<path d="M0 0 C3.73884332 2.65654657 5.64978174 4.58110387 7 9 C5.68 9 4.36 9 3 9 C3 7.68 3 6.36 3 5 C2.34 5 1.68 5 1 5 C0.67 3.35 0.34 1.7 0 0 Z " fill="#5E606C" transform="translate(260,78)"/>
<path d="M0 0 C0.66 0.66 1.32 1.32 2 2 C1.625 4.625 1.625 4.625 1 7 C0.34 7 -0.32 7 -1 7 C-1 6.01 -1 5.02 -1 4 C-2.32 4.99 -3.64 5.98 -5 7 C-3.70700306 4.11562221 -2.34058637 2.12780579 0 0 Z " fill="#4E5357" transform="translate(82,53)"/>
<path d="M0 0 C2.4375 0.6875 2.4375 0.6875 5 2 C5.8125 4.625 5.8125 4.625 6 7 C5.01 7 4.02 7 3 7 C3 6.01 3 5.02 3 4 C2.34 4 1.68 4 1 4 C0.67 2.68 0.34 1.36 0 0 Z " fill="#474B56" transform="translate(65,169)"/>
<path d="M0 0 C0.33 0 0.66 0 1 0 C0.28571429 8.57142857 0.28571429 8.57142857 -3 12 C-3.93423645 8.98968256 -4.04449911 8.13349732 -3 5 C-2.34 4.67 -1.68 4.34 -1 4 C-0.34786708 1.97536745 -0.34786708 1.97536745 0 0 Z " fill="#575B62" transform="translate(270,136)"/>
<path d="M0 0 C3.63 0 7.26 0 11 0 C10.67 1.32 10.34 2.64 10 4 C9.01 3.67 8.02 3.34 7 3 C7 2.34 7 1.68 7 1 C4.69 1 2.38 1 0 1 C0 0.67 0 0.34 0 0 Z " fill="#343943" transform="translate(144,93)"/>
<path d="M0 0 C1.32 0 2.64 0 4 0 C4 1.65 4 3.3 4 5 C4.66 5 5.32 5 6 5 C5.67 5.66 5.34 6.32 5 7 C3.29115995 5.37660195 1.62553283 3.70680947 0 2 C0 1.34 0 0.68 0 0 Z " fill="#2B2F37" transform="translate(218,30)"/>
<path d="M0 0 C0.99 0.66 1.98 1.32 3 2 C2.67 2.99 2.34 3.98 2 5 C1.01 5.33 0.02 5.66 -1 6 C-1.625 4.125 -1.625 4.125 -2 2 C-1.34 1.34 -0.68 0.68 0 0 Z " fill="#2D333B" transform="translate(89,203)"/>
<path d="M0 0 C-0.99 0.495 -0.99 0.495 -2 1 C-3.13350534 3.01669827 -3.13350534 3.01669827 -4 5 C-4 3.68 -4 2.36 -4 1 C-4.66 1 -5.32 1 -6 1 C-6.33 1.66 -6.66 2.32 -7 3 C-7.66 2.34 -8.32 1.68 -9 1 C-3.375 -1.125 -3.375 -1.125 0 0 Z " fill="#444850" transform="translate(118,31)"/>
<path d="M0 0 C0.66 0.33 1.32 0.66 2 1 C2 2.65 2 4.3 2 6 C1.34 6 0.68 6 0 6 C-0.33 6.66 -0.66 7.32 -1 8 C-1.625 5.6875 -1.625 5.6875 -2 3 C-1.34 2.01 -0.68 1.02 0 0 Z " fill="#585C5F" transform="translate(155,93)"/>
<path d="M0 0 C0.33 0.99 0.66 1.98 1 3 C-0.65 4.32 -2.3 5.64 -4 7 C-3.67 5.02 -3.34 3.04 -3 1 C-2.01 0.67 -1.02 0.34 0 0 Z " fill="#343544" transform="translate(94,50)"/>
<path d="M0 0 C1.670625 0.061875 1.670625 0.061875 3.375 0.125 C2.055 1.445 0.735 2.765 -0.625 4.125 C-3.1 3.135 -3.1 3.135 -5.625 2.125 C-3.625 0.125 -3.625 0.125 0 0 Z " fill="#373B47" transform="translate(101.625,44.875)"/>
<path d="M0 0 C0.66 0.33 1.32 0.66 2 1 C1.2575 1.8971875 1.2575 1.8971875 0.5 2.8125 C-1.28276418 4.97029994 -1.28276418 4.97029994 -1 8 C-1.99 7.67 -2.98 7.34 -4 7 C-3.6875 4.625 -3.6875 4.625 -3 2 C-2.01 1.34 -1.02 0.68 0 0 Z " fill="#434951" transform="translate(99,38)"/>
<path d="M0 0 C1.9375 0.3125 1.9375 0.3125 4 1 C4.33 1.99 4.66 2.98 5 4 C3.68 4.33 2.36 4.66 1 5 C0.67 3.35 0.34 1.7 0 0 Z " fill="#292F38" transform="translate(124,27)"/>
<path d="M0 0 C3.96 0.33 7.92 0.66 12 1 C12 1.33 12 1.66 12 2 C8.37 2.33 4.74 2.66 1 3 C0.67 2.01 0.34 1.02 0 0 Z " fill="#454950" transform="translate(137,225)"/>
<path d="M0 0 C0.66 0.66 1.32 1.32 2 2 C1.01 3.485 1.01 3.485 0 5 C-1.32 4.34 -2.64 3.68 -4 3 C-4 2.34 -4 1.68 -4 1 C-2.125 0.375 -2.125 0.375 0 0 Z " fill="#565A60" transform="translate(212,119)"/>
<path d="M0 0 C2.475 0.495 2.475 0.495 5 1 C5 2.33333333 5 3.66666667 5 5 C3.35 5 1.7 5 0 5 C0 3.35 0 1.7 0 0 Z " fill="#262833" transform="translate(213,28)"/>
<path d="M0 0 C-1 2 -1 2 -2.9375 2.6875 C-5 3 -5 3 -7 2 C-7 1.34 -7 0.68 -7 0 C-3.86650268 -1.04449911 -3.01031744 -0.93423645 0 0 Z " fill="#5F6166" transform="translate(124,28)"/>
</svg>
