<?xml version="1.0" encoding="UTF-8"?>
<svg version="1.1" xmlns="http://www.w3.org/2000/svg" width="313" height="317">
<path d="M0 0 C1.11503906 0.5259375 2.23007813 1.051875 3.37890625 1.59375 C16.72792576 8.04113593 28.60362659 15.3500565 39 26 C39.59554687 26.56203125 40.19109375 27.1240625 40.8046875 27.703125 C46.31176594 32.97449191 50.67508928 38.73788968 55 45 C55.804375 46.11181641 55.804375 46.11181641 56.625 47.24609375 C66.39464814 61.11187041 72.2929046 78.01153294 72 95 C72.66 95 73.32 95 74 95 C74.0293908 98.64581598 74.04692874 102.29160087 74.0625 105.9375 C74.07087891 106.95908203 74.07925781 107.98066406 74.08789062 109.03320312 C74.10731234 115.1121997 73.79820318 120.9726232 73 127 C72.34 127 71.68 127 71 127 C70.96261719 127.58265625 70.92523438 128.1653125 70.88671875 128.765625 C69.96077346 140.3127074 66.69088936 150.46015797 62 161 C61.67 161.79277344 61.34 162.58554688 61 163.40234375 C57.68017512 171.27309524 53.40889726 178.38912558 48 185 C47.67 185.99 47.34 186.98 47 188 C45.38025441 189.71230248 43.7041054 191.37163262 42 193 C41.21109375 193.81984375 41.21109375 193.81984375 40.40625 194.65625 C38.97618946 196.14239134 37.49113026 197.57514219 36 199 C35.34 199 34.68 199 34 199 C33.67 199.99 33.34 200.98 33 202 C31.38238775 202.9832545 29.76054129 203.96459359 28.08203125 204.83984375 C25.87175145 206.01557103 25.87175145 206.01557103 23.51171875 207.8203125 C11.70891612 215.75195763 -4.33084094 219.9954093 -18.0625 223.125 C-18.93455078 223.32472412 -19.80660156 223.52444824 -20.70507812 223.73022461 C-26.23062038 224.8881665 -31.35731595 225.17047384 -37 225 C-37 225.66 -37 226.32 -37 227 C-51.72199691 227.65934529 -65.50741825 227.47141177 -79.9375 224.3125 C-81.05350586 224.06870605 -82.16951172 223.82491211 -83.31933594 223.57373047 C-94.03948368 221.04013927 -104.29539706 217.1522078 -114.125 212.1875 C-114.7945874 211.85057129 -115.4641748 211.51364258 -116.15405273 211.16650391 C-128.27267932 204.90170402 -140.50855451 196.19744917 -147 184 C-147.39316406 183.278125 -147.78632813 182.55625 -148.19140625 181.8125 C-155.63149056 167.63202584 -159.00425667 152.6134583 -162 137 C-162.27263672 135.63681641 -162.27263672 135.63681641 -162.55078125 134.24609375 C-163.12071829 130.12767914 -163.1816516 126.09051639 -163.203125 121.9375 C-163.20882507 121.06915527 -163.21452515 120.20081055 -163.22039795 119.30615234 C-163.22981613 117.47055262 -163.23636923 115.63493623 -163.24023438 113.79931641 C-163.24987277 111.03646963 -163.28089841 108.27438919 -163.3125 105.51171875 C-163.39331448 91.92616129 -161.76418048 79.8208836 -157 67 C-156.76410156 66.33742188 -156.52820313 65.67484375 -156.28515625 64.9921875 C-155.55558608 62.98093999 -154.78384742 60.99066202 -154 59 C-153.76023437 58.34902344 -153.52046875 57.69804688 -153.2734375 57.02734375 C-147.45684682 42.48586705 -136.86325049 30.95544982 -126 20 C-125.48429443 19.4421582 -124.96858887 18.88431641 -124.43725586 18.30957031 C-123 17 -123 17 -121 17 C-121 16.34 -121 15.68 -121 15 C-119.09445974 13.45799683 -117.20889466 12.06322232 -115.1875 10.6875 C-114.5994458 10.28378174 -114.0113916 9.88006348 -113.40551758 9.46411133 C-108.95821008 6.48385797 -104.42543629 4.12859749 -99.484375 2.05078125 C-97.22552782 1.09538834 -95.09916478 0.02932899 -92.9375 -1.125 C-88.47831419 -3.39114361 -83.80674015 -4.67617648 -79 -6 C-77.783125 -6.37125 -76.56625 -6.7425 -75.3125 -7.125 C-52.12906692 -13.24892572 -21.40797354 -10.57183879 0 0 Z M-74 3 C-75.68416016 3.39058594 -75.68416016 3.39058594 -77.40234375 3.7890625 C-91.41160673 7.1017501 -105.20442019 13.25653179 -116 23 C-116 23.66 -116 24.32 -116 25 C-116.87398437 25.38865234 -116.87398437 25.38865234 -117.765625 25.78515625 C-130.39517135 32.65192009 -140.7821334 50.64342243 -145 64 C-145 64.99 -145 65.98 -145 67 C-145.66 67 -146.32 67 -147 67 C-148.58712299 71.43983975 -149.62781149 75.80636862 -150.5 80.4375 C-151.20070633 84.15048193 -151.91847854 87.73536405 -153.03125 91.34765625 C-155.36603987 100.15019064 -155.15599244 109.20020669 -155.125 118.25 C-155.12886719 119.3946875 -155.13273437 120.539375 -155.13671875 121.71875 C-155.13542969 122.82734375 -155.13414062 123.9359375 -155.1328125 125.078125 C-155.13168457 126.07231445 -155.13055664 127.06650391 -155.12939453 128.09082031 C-154.9942688 131.12885462 -154.55844071 134.01314633 -154 137 C-153.34 137 -152.68 137 -152 137 C-151.96261719 137.64324219 -151.92523438 138.28648437 -151.88671875 138.94921875 C-150.42878391 158.98867602 -142.03307825 178.18581999 -127 192 C-125.9171875 193.1446875 -125.9171875 193.1446875 -124.8125 194.3125 C-123.16877727 196.22713951 -123.16877727 196.22713951 -121 196 C-120.78472656 196.59554687 -120.56945312 197.19109375 -120.34765625 197.8046875 C-118.53556276 200.75656153 -116.5158249 201.59185774 -113.4375 203.125 C-108.09722222 205.80555556 -108.09722222 205.80555556 -107 208 C-100.3837332 212.0518223 -93.12527671 214.49081496 -85.75 216.75 C-84.79609375 217.05292969 -83.8421875 217.35585937 -82.859375 217.66796875 C-73.66976835 220.53972083 -65.18089818 221.21400774 -55.58959961 221.24023438 C-53.46752552 221.24986375 -51.34645374 221.28090069 -49.22460938 221.3125 C-40.45471075 221.3805855 -32.47956082 220.35900333 -24 218 C-22.58946318 217.65377595 -21.17813687 217.31073229 -19.765625 216.97265625 C-12.8245718 215.1756947 -6.44059788 213.127584 0 210 C0.72316406 209.70480469 1.44632813 209.40960938 2.19140625 209.10546875 C9.51917406 206.11064191 15.65419422 201.67664462 21.8125 196.75 C24 195 24 195 26.328125 193.68359375 C33.67185842 189.05618278 40.51033963 181.44626598 45 174 C45 173.34 45 172.68 45 172 C45.66 172 46.32 172 47 172 C48.46256659 169.2730819 49.91928541 166.5430812 51.375 163.8125 C51.7875 163.04357422 52.2 162.27464844 52.625 161.48242188 C56.69540232 154.14638214 56.69540232 154.14638214 58 146 C58.66 146 59.32 146 60 146 C60.46496035 144.25174907 60.92147084 142.5012512 61.375 140.75 C61.63023437 139.77546875 61.88546875 138.8009375 62.1484375 137.796875 C64.37969315 127.84834063 65.31825278 118.3856031 65.25 108.1875 C65.25773438 107.01251953 65.26546875 105.83753906 65.2734375 104.62695312 C65.26003262 98.69194208 64.95709099 93.66007611 63 88 C62.73960937 86.80503906 62.47921875 85.61007813 62.2109375 84.37890625 C59.07180993 70.04746868 53.01079247 57.61005953 44 46 C43.33484375 45.10925781 42.6696875 44.21851563 41.984375 43.30078125 C36.37590456 36.06827531 30.13709038 30.64417674 23 25 C21.55173828 23.74316406 21.55173828 23.74316406 20.07421875 22.4609375 C8.89995159 13.51584435 -5.57957492 8.52336508 -19 4 C-19.84433594 3.690625 -20.68867188 3.38125 -21.55859375 3.0625 C-30.41233908 -0.12914476 -39.2931153 -0.16145267 -48.625 -0.125 C-49.62273437 -0.12886719 -50.62046875 -0.13273437 -51.6484375 -0.13671875 C-59.50698551 -0.12632385 -66.44230466 0.75380228 -74 3 Z " fill="#343942" transform="translate(202,34)"/>
<path d="M0 0 C1.11503906 0.5259375 2.23007813 1.051875 3.37890625 1.59375 C16.72792576 8.04113593 28.60362659 15.3500565 39 26 C39.59554687 26.56203125 40.19109375 27.1240625 40.8046875 27.703125 C46.31176594 32.97449191 50.67508928 38.73788968 55 45 C55.804375 46.11181641 55.804375 46.11181641 56.625 47.24609375 C70.95316619 67.58164212 75.07102736 93.09441901 72.61328125 117.4765625 C72.41089844 118.63929688 72.20851563 119.80203125 72 121 C71.34 121.33 70.68 121.66 70 122 C69.26924352 124.3140622 68.59861742 126.64828869 68 129 C66 128 66 128 65 125 C64.87194265 122.7990706 64.79798453 120.59483597 64.75390625 118.390625 C64.72103516 117.07835937 64.68816406 115.76609375 64.65429688 114.4140625 C64.60707522 112.33630975 64.56266296 110.25857903 64.52319336 108.18066406 C64.48310536 106.16714235 64.43110876 104.15386906 64.37890625 102.140625 C64.3538501 100.93954102 64.32879395 99.73845703 64.30297852 98.50097656 C63.98093284 94.77967526 63.11257678 91.55807403 62 88 C61.73960937 86.80503906 61.47921875 85.61007813 61.2109375 84.37890625 C58.0722295 70.0493842 52.01265071 57.60691051 43 46 C42.32324219 45.09765625 41.64648438 44.1953125 40.94921875 43.265625 C35.66400197 36.4690052 29.79393717 31.24648814 23 26 C21.91140244 25.06861784 20.82694098 24.13233622 19.75 23.1875 C8.70802402 14.40411002 -5.76831596 9.45974976 -19 5 C-19.84433594 4.690625 -20.68867188 4.38125 -21.55859375 4.0625 C-30.94462348 0.67897455 -40.82638442 0.72574452 -50.70385742 0.38745117 C-52.82587574 0.31202456 -54.94694242 0.22148064 -57.06835938 0.13085938 C-58.42705047 0.08240292 -59.78577395 0.03484445 -61.14453125 -0.01171875 C-62.36503174 -0.05772217 -63.58553223 -0.10372559 -64.84301758 -0.15112305 C-67.96103208 -0.00186537 -69.3593489 0.48172379 -72 2 C-74.32495277 2.38749213 -76.65851268 2.72982839 -79 3 C-81.14285714 -1.28571429 -81.14285714 -1.28571429 -80.5625 -4.1875 C-67.22457607 -19.65949176 -15.26472269 -7.53813466 0 0 Z M-83 0 C-82.01 0.495 -82.01 0.495 -81 1 C-81.99 1.495 -81.99 1.495 -83 2 C-83 1.34 -83 0.68 -83 0 Z " fill="#313741" transform="translate(202,34)"/>
<path d="M0 0 C0.66 0.33 1.32 0.66 2 1 C2.99 0.67 3.98 0.34 5 0 C4.979375 1.0725 4.95875 2.145 4.9375 3.25 C4.82983779 6.71535401 4.82983779 6.71535401 5.53100586 8.81616211 C6.18538583 11.86323595 5.83640871 14.58983414 5.56640625 17.69140625 C4.9057306 26.11500463 4.8862974 34.49293501 4.9375 42.9375 C4.942535 44.41080574 4.9470943 45.88411318 4.95117188 47.35742188 C4.96199623 50.9049844 4.97914545 54.45248052 5 58 C5.66 58 6.32 58 7 58 C7.18175781 59.134375 7.36351562 60.26875 7.55078125 61.4375 C7.80426521 62.95840377 8.05819541 64.47923322 8.3125 66 C8.43044922 66.74378906 8.54839844 67.48757812 8.66992188 68.25390625 C10.89604417 81.38231978 17.07931919 94.23120398 25.71484375 104.328125 C27 106 27 106 27 108 C27.556875 108.20625 28.11375 108.4125 28.6875 108.625 C31.28514387 110.169545 32.7863597 112.05698659 34.62890625 114.421875 C36.06228012 116.07168424 37.56222025 117.26111552 39.3125 118.5625 C42 121 42 121 42.375 123.8125 C42.189375 124.8953125 42.189375 124.8953125 42 126 C39.02526291 126.99157903 36.85317424 127.32210077 33.87890625 126.19921875 C28.26298153 123.21119641 23.58605294 119.37853923 19 115 C18.46890625 114.49855469 17.9378125 113.99710937 17.390625 113.48046875 C15.05643549 110.99547487 13.5903796 107.98832893 12 105 C11.60683594 104.278125 11.21367188 103.55625 10.80859375 102.8125 C3.36850944 88.63202584 -0.00425667 73.6134583 -3 58 C-3.27589966 56.65204346 -3.27589966 56.65204346 -3.55737305 55.27685547 C-4.1375417 50.98175144 -4.12345851 46.77390027 -4.09765625 42.4453125 C-4.0962413 41.54376434 -4.09482635 40.64221619 -4.09336853 39.71334839 C-4.0877974 36.850531 -4.07525026 33.98779352 -4.0625 31.125 C-4.05748127 29.17708447 -4.05291901 27.2291677 -4.04882812 25.28125 C-4.03783742 20.52080282 -4.02059277 15.76041493 -4 11 C-3.01 10.67 -2.02 10.34 -1 10 C-0.835 9.34 -0.67 8.68 -0.5 8 C-0.335 7.34 -0.17 6.68 0 6 C0.99 5.67 1.98 5.34 3 5 C2.01 5 1.02 5 0 5 C0 3.35 0 1.7 0 0 Z " fill="#2F343D" transform="translate(43,113)"/>
<path d="M0 0 C1.216875 0.391875 2.43375 0.78375 3.6875 1.1875 C4.8321875 1.5896875 4.8321875 1.5896875 6 2 C6 2.66 6 3.32 6 4 C6.99 4.2784375 6.99 4.2784375 8 4.5625 C12.3529629 6.64829472 15.53551325 9.67761134 19 13 C19.598125 13.56074219 20.19625 14.12148437 20.8125 14.69921875 C25.09227505 19.11273677 25.97240159 22.91455115 26 29 C23.10475028 29.11817346 21.61267963 29.12925249 19 28 C17.05602903 25.66901421 15.50631345 23.19011272 13.8671875 20.63671875 C10.89244276 16.43598088 7.30373311 13.75271241 3 11 C2.2471875 10.49210938 1.494375 9.98421875 0.71875 9.4609375 C-9.49708965 3.67411694 -23.18070819 4.3099542 -34.25390625 7.25 C-42.89715972 9.76407206 -42.89715972 9.76407206 -50 15 C-51.27106813 15.82433289 -52.56436955 16.61514033 -53.875 17.375 C-58.83059908 20.4190243 -62.29131806 23.87142674 -65.4375 28.75 C-67.39677292 31.62651216 -67.74602578 31.9281205 -71.3125 32.9375 C-72.199375 32.958125 -73.08625 32.97875 -74 33 C-74.22911607 26.92842409 -72.66598263 24.1022115 -68.625 19.5625 C-50.50889068 0.92804706 -25.56073829 -8.95718179 0 0 Z " fill="#393D46" transform="translate(187,171)"/>
<path d="M0 0 C2.20739281 -0.00217787 4.41427787 -0.02035031 6.62158203 -0.03930664 C14.58727027 -0.06990252 22.18723617 0.33830881 29.97705078 2.18530273 C29.97705078 2.84530273 29.97705078 3.50530273 29.97705078 4.18530273 C30.96705078 4.51530273 31.95705078 4.84530273 32.97705078 5.18530273 C32.31705078 5.18530273 31.65705078 5.18530273 30.97705078 5.18530273 C30.64705078 6.17530273 30.31705078 7.16530273 29.97705078 8.18530273 C29.31705078 8.51530273 28.65705078 8.84530273 27.97705078 9.18530273 C28.47205078 10.17530273 28.47205078 10.17530273 28.97705078 11.18530273 C28.08203857 11.12109131 27.18702637 11.05687988 26.26489258 10.99072266 C17.45395388 10.37833764 8.64733933 9.88627643 -0.17944336 9.57275391 C-1.55332026 9.52205308 -2.92702807 9.46658163 -4.30053711 9.40673828 C-6.32607483 9.31869206 -8.35225807 9.24591145 -10.37841797 9.17358398 C-11.56072998 9.12758057 -12.74304199 9.08157715 -13.96118164 9.03417969 C-17.02063858 9.18518869 -18.4216648 9.70050034 -21.02294922 11.18530273 C-23.34790199 11.57279486 -25.6814619 11.91513112 -28.02294922 12.18530273 C-30.16580636 7.89958845 -30.16580636 7.89958845 -29.58544922 4.99780273 C-23.59544534 -1.95060177 -8.43544903 -0.00093004 0 0 Z M-32.02294922 9.18530273 C-31.03294922 9.68030273 -31.03294922 9.68030273 -30.02294922 10.18530273 C-31.01294922 10.68030273 -31.01294922 10.68030273 -32.02294922 11.18530273 C-32.02294922 10.52530273 -32.02294922 9.86530273 -32.02294922 9.18530273 Z " fill="#2E333D" transform="translate(151.02294921875,24.814697265625)"/>
<path d="M0 0 C0 3 0 3 -1 6 C-0.01 6.33 0.98 6.66 2 7 C1.67 8.32 1.34 9.64 1 11 C1.66 11.33 2.32 11.66 3 12 C2.03200694 14.60613516 1.0331119 16.94673304 -0.4375 19.3125 C-2.05309838 22.09132921 -3.12853245 24.78166184 -4.1875 27.8125 C-4.53167969 28.78832031 -4.87585938 29.76414062 -5.23046875 30.76953125 C-5.61138672 31.87361328 -5.61138672 31.87361328 -6 33 C-6.66 33 -7.32 33 -8 33 C-8.09796875 33.76441406 -8.1959375 34.52882812 -8.296875 35.31640625 C-9.52463501 44.11182493 -11.57208075 52.47871058 -14 61 C-14.33 61 -14.66 61 -15 61 C-14.979375 59.7625 -14.95875 58.525 -14.9375 57.25 C-14.93231807 54.31184551 -15.16174327 51.82911648 -16 49 C-16 48.01 -16 47.02 -16 46 C-16.66 46 -17.32 46 -18 46 C-18.66 47.32 -19.32 48.64 -20 50 C-19.01 50 -18.02 50 -17 50 C-18 53 -18 53 -20 56 C-20.99 55.67 -21.98 55.34 -23 55 C-22.37799449 48.52962558 -20.93193037 42.54861335 -19.125 36.3125 C-18.86847656 35.38888672 -18.61195312 34.46527344 -18.34765625 33.51367188 C-17.02371768 28.89319281 -15.63757105 25.05302149 -13 21 C-12.55011719 19.89527344 -12.10023437 18.79054688 -11.63671875 17.65234375 C-9.92607231 13.53585665 -7.45711196 10.1276331 -4.8125 6.5625 C-4.11737305 5.60827148 -4.11737305 5.60827148 -3.40820312 4.63476562 C-2.27821072 3.08539459 -1.13996233 1.54205036 0 0 Z " fill="#3D434C" transform="translate(63,68)"/>
<path d="M0 0 C1.29088531 0.00022659 1.29088531 0.00022659 2.60784912 0.00045776 C3.52777649 0.01078033 4.44770386 0.02110291 5.39550781 0.03173828 C6.34427795 0.03456818 7.2930481 0.03739807 8.27056885 0.04031372 C11.29671921 0.0514963 14.32257211 0.07659749 17.34863281 0.10205078 C19.40201395 0.11208306 21.45539973 0.12120848 23.50878906 0.12939453 C28.53885135 0.15142938 33.56869167 0.18594616 38.59863281 0.22705078 C39.09363281 3.69205078 39.09363281 3.69205078 39.59863281 7.22705078 C35.44589853 9.2176217 32.07882041 9.47264767 27.49707031 9.45751953 C26.48140488 9.4568322 26.48140488 9.4568322 25.44522095 9.45613098 C24.0147323 9.45311984 22.58424661 9.4452677 21.15380859 9.43286133 C19.0011791 9.41478213 16.84898608 9.41235084 14.69628906 9.41259766 C6.95491076 9.39213202 -0.70366979 9.11919523 -8.40136719 8.22705078 C-8.40136719 6.24705078 -8.40136719 4.26705078 -8.40136719 2.22705078 C-5.4625741 0.54749533 -3.37525171 -0.01985442 0 0 Z " fill="#2C323C" transform="translate(192.4013671875,123.77294921875)"/>
<path d="M0 0 C3.61941735 1.50239966 6.7321794 2.82145293 10 5 C10 5.66 10 6.32 10 7 C11.0828125 7.1546875 11.0828125 7.1546875 12.1875 7.3125 C15 8 15 8 16.9921875 9.31640625 C21.41337755 11.79112432 26.11211547 13.12757627 30.9375 14.625 C32.40219727 15.09292969 32.40219727 15.09292969 33.89648438 15.5703125 C38.57667521 17.04258948 43.11381854 18.38819386 48 19 C47.0409375 19.4640625 47.0409375 19.4640625 46.0625 19.9375 C44.06389179 20.8345163 44.06389179 20.8345163 43 22 C47.48190893 22.84752114 51.80980348 23.18458109 56.3671875 23.31640625 C57.04677521 23.33718735 57.72636292 23.35796844 58.42654419 23.37937927 C60.57593666 23.4442363 62.7254407 23.50345941 64.875 23.5625 C66.3411569 23.60574612 67.80730294 23.64936225 69.2734375 23.69335938 C72.84884275 23.79985104 76.42437037 23.90129409 80 24 C80 24.66 80 25.32 80 26 C65.27800309 26.65934529 51.49258175 26.47141177 37.0625 23.3125 C35.38849121 22.94680908 35.38849121 22.94680908 33.68066406 22.57373047 C22.7729325 19.99580585 12.43113638 15.99000715 2.4375 10.9375 C1.76654297 10.61201172 1.09558594 10.28652344 0.40429688 9.95117188 C-3.34233273 8.07600047 -6.2347894 6.15923552 -9 3 C-6.03 3.33 -3.06 3.66 0 4 C0 2.68 0 1.36 0 0 Z " fill="#494E55" transform="translate(85,235)"/>
<path d="M0 0 C0.95446518 -0.00315216 1.90893036 -0.00630432 2.89231873 -0.009552 C3.93082474 -0.00752777 4.96933075 -0.00550354 6.03930664 -0.00341797 C7.62818443 -0.00485306 7.62818443 -0.00485306 9.24916077 -0.00631714 C11.4945583 -0.00699917 13.73995779 -0.00514331 15.98535156 -0.00097656 C19.43111589 0.00436608 22.87674955 -0.00091809 26.32250977 -0.00732422 C28.49894235 -0.00666334 30.67537485 -0.00538197 32.85180664 -0.00341797 C33.88828842 -0.0054422 34.9247702 -0.00746643 35.99266052 -0.009552 C36.95027786 -0.00639984 37.9078952 -0.00324768 38.89453125 0 C39.73978867 0.00079559 40.58504608 0.00159119 41.45591736 0.00241089 C43.51196289 0.12939453 43.51196289 0.12939453 45.51196289 1.12939453 C45.19946289 3.00439453 45.19946289 3.00439453 44.51196289 5.12939453 C41.42166943 7.18959017 40.57009885 7.40327491 37.03930664 7.54345703 C36.14800049 7.58237061 35.25669434 7.62128418 34.33837891 7.66137695 C33.38503662 7.69207275 32.43169434 7.72276855 31.44946289 7.75439453 C30.47098389 7.79089111 29.49250488 7.8273877 28.484375 7.86499023 C25.49379454 7.96851499 22.5033564 8.0531902 19.51196289 8.12939453 C18.62669922 8.15275879 17.74143555 8.17612305 16.8293457 8.20019531 C14.41094201 8.25577469 11.99335762 8.29174316 9.57446289 8.31689453 C8.5040979 8.33647217 8.5040979 8.33647217 7.41210938 8.35644531 C2.70913522 8.36427708 -1.07065674 7.58649653 -5.48803711 6.12939453 C-5.53075811 4.46327548 -5.52867543 2.79556568 -5.48803711 1.12939453 C-3.88987011 -0.46877247 -2.21277213 0.00208472 0 0 Z " fill="#31373F" transform="translate(104.488037109375,123.87060546875)"/>
<path d="M0 0 C-0.2784375 1.175625 -0.2784375 1.175625 -0.5625 2.375 C-1.25962266 4.97089775 -1.25962266 4.97089775 0 7 C5.01535052 6.67039784 5.01535052 6.67039784 9 4 C11.3828125 4.0234375 11.3828125 4.0234375 14.125 4.375 C15.49011719 4.54128906 15.49011719 4.54128906 16.8828125 4.7109375 C17.93082031 4.85402344 17.93082031 4.85402344 19 5 C19 5.33 19 5.66 19 6 C17.4840625 6.185625 17.4840625 6.185625 15.9375 6.375 C12.14817073 6.97648084 8.68284655 7.93884082 5 9 C3.87722656 9.26039062 2.75445312 9.52078125 1.59765625 9.7890625 C-8.41919584 12.1576883 -16.96143839 16.12965299 -26 21 C-26.66 21.33 -27.32 21.66 -28 22 C-28 21.34 -28 20.68 -28 20 C-28.99 19.67 -29.98 19.34 -31 19 C-30.01 18.67 -29.02 18.34 -28 18 C-27.67 16.35 -27.34 14.7 -27 13 C-30.16115776 14.36983503 -30.9927092 14.9890638 -33 18 C-36.625 19.1875 -36.625 19.1875 -40 20 C-31.16801309 9.99041484 -17.483226 4.84899468 -5 1 C-2 0 -2 0 0 0 Z M-4 5 C-3.67 5.66 -3.34 6.32 -3 7 C-2.67 6.34 -2.34 5.68 -2 5 C-2.66 5 -3.32 5 -4 5 Z " fill="#353A42" transform="translate(123,29)"/>
<path d="M0 0 C0.33 0 0.66 0 1 0 C1.0293908 3.64581598 1.04692874 7.29160087 1.0625 10.9375 C1.07087891 11.95908203 1.07925781 12.98066406 1.08789062 14.03320312 C1.10731234 20.1121997 0.79820318 25.9726232 0 32 C-0.66 32 -1.32 32 -2 32 C-2.03738281 32.58265625 -2.07476562 33.1653125 -2.11328125 33.765625 C-2.8375296 42.79742792 -4.92233032 51.47722241 -8 60 C-10.31 59.67 -12.62 59.34 -15 59 C-15.99 61.475 -15.99 61.475 -17 64 C-17.66 64 -18.32 64 -19 64 C-18.79503906 63.39671875 -18.59007812 62.7934375 -18.37890625 62.171875 C-18.10949219 61.37265625 -17.84007812 60.5734375 -17.5625 59.75 C-17.29566406 58.96109375 -17.02882813 58.1721875 -16.75390625 57.359375 C-16.08045292 55.25178012 -15.50849405 53.15246027 -15 51 C-14.34 51 -13.68 51 -13 51 C-12.8453125 49.2365625 -12.8453125 49.2365625 -12.6875 47.4375 C-11.93619525 40.54317405 -10.42053432 33.78104119 -9 27 C-7 30 -7 30 -6 33 C-5.01 30.36 -4.02 27.72 -3 25 C-2.67 25 -2.34 25 -2 25 C-1.12489617 19.52140877 -0.70975966 14.10142201 -0.4375 8.5625 C-0.39431641 7.73556641 -0.35113281 6.90863281 -0.30664062 6.05664062 C-0.20161967 4.03790451 -0.10041441 2.01897049 0 0 Z " fill="#41454E" transform="translate(275,129)"/>
<path d="M0 0 C0.99 0.66 1.98 1.32 3 2 C3 2.66 3 3.32 3 4 C3.556875 4.20625 4.11375 4.4125 4.6875 4.625 C7.28514387 6.169545 8.7863597 8.05698659 10.62890625 10.421875 C12.06228012 12.07168424 13.56222025 13.26111552 15.3125 14.5625 C18 17 18 17 18.375 19.8125 C18.25125 20.534375 18.1275 21.25625 18 22 C15.02526291 22.99157903 12.85317424 23.32210077 9.87890625 22.19921875 C3.00035127 18.53939834 -2.55658819 13.51020214 -8 8 C-7.67 7.34 -7.34 6.68 -7 6 C-6.01 6 -5.02 6 -4 6 C-4 5.34 -4 4.68 -4 4 C-3.01 4 -2.02 4 -1 4 C-0.67 2.68 -0.34 1.36 0 0 Z " fill="#323741" transform="translate(67,217)"/>
<path d="M0 0 C0.33 0.66 0.66 1.32 1 2 C0.06421005 4.35981813 -0.93347808 6.69631264 -2 9 C-2.66 9 -3.32 9 -4 9 C-4.09796875 9.76441406 -4.1959375 10.52882813 -4.296875 11.31640625 C-5.52463501 20.11182493 -7.57208075 28.47871058 -10 37 C-10.33 37 -10.66 37 -11 37 C-10.979375 35.7625 -10.95875 34.525 -10.9375 33.25 C-10.93231807 30.31184551 -11.16174327 27.82911648 -12 25 C-12 24.01 -12 23.02 -12 22 C-12.66 22 -13.32 22 -14 22 C-14.66 23.32 -15.32 24.64 -16 26 C-15.01 26 -14.02 26 -13 26 C-14 29 -14 29 -16 32 C-16.99 31.67 -17.98 31.34 -19 31 C-18.38955672 23.36945905 -16.20378179 16.29810526 -14 9 C-13.67 9.66 -13.34 10.32 -13 11 C-11.70450101 9.90033225 -10.41373929 8.79508199 -9.125 7.6875 C-8.40570313 7.07261719 -7.68640625 6.45773438 -6.9453125 5.82421875 C-4.80820669 3.9587676 -4.80820669 3.9587676 -3 1 C-2.01 0.67 -1.02 0.34 0 0 Z " fill="#363C46" transform="translate(59,92)"/>
<path d="M0 0 C-0.3125 1.9375 -0.3125 1.9375 -1 4 C-4.68356285 5.22785428 -8.08672845 5.14316329 -11.921875 5.1328125 C-12.70008606 5.13376923 -13.47829712 5.13472595 -14.28009033 5.13571167 C-15.92761313 5.13639204 -17.57513861 5.13454772 -19.22265625 5.13037109 C-21.72662501 5.12504968 -24.23041203 5.13030592 -26.734375 5.13671875 C-28.33854206 5.13605738 -29.94270901 5.134775 -31.546875 5.1328125 C-32.28879089 5.13483673 -33.03070679 5.13686096 -33.79510498 5.13894653 C-38.29500161 5.11898356 -42.55908629 4.7348012 -47 4 C-46.34 3.01 -45.68 2.02 -45 1 C-42.01293281 0.66186667 -39.2238311 0.51081203 -36.23046875 0.48828125 C-34.92073845 0.46135445 -34.92073845 0.46135445 -33.58454895 0.43388367 C-30.78558267 0.37961804 -27.98678575 0.34587342 -25.1875 0.3125 C-23.31182483 0.27933228 -21.43617253 0.24484313 -19.56054688 0.20898438 C-13.04085314 0.08991599 -6.52100098 -0.02395908 0 0 Z " fill="#2A3038" transform="translate(174,254)"/>
<path d="M0 0 C3.59199754 3.41616549 6.49643777 6.88016643 9.25 11 C9.93578125 12.010625 10.6215625 13.02125 11.328125 14.0625 C12.91722614 16.85456555 13.80028999 18.80463987 14 22 C13.34 22.66 12.68 23.32 12 24 C9.25122894 21.25122894 8.02984986 19.7611715 7.875 15.8125 C7.91625 14.884375 7.9575 13.95625 8 13 C7.01 13 6.02 13 5 13 C4.67 13.99 4.34 14.98 4 16 C3.34 16 2.68 16 2 16 C1.67 16.66 1.34 17.32 1 18 C-1.66666667 14 -4.33333333 10 -7 6 C-6.21625 5.566875 -5.4325 5.13375 -4.625 4.6875 C-1.78301625 3.10779753 -1.78301625 3.10779753 0 0 Z " fill="#383D47" transform="translate(250,71)"/>
<path d="M0 0 C8.415 1.98 8.415 1.98 17 4 C15.02 4.99 15.02 4.99 13 6 C12.67 6.33 12.34 6.66 12 7 C16.48190893 7.84752114 20.80980348 8.18458109 25.3671875 8.31640625 C26.04677521 8.33718735 26.72636292 8.35796844 27.42654419 8.37937927 C29.57593666 8.4442363 31.7254407 8.50345941 33.875 8.5625 C35.3411569 8.60574612 36.80730294 8.64936225 38.2734375 8.69335938 C41.84884275 8.79985104 45.42437037 8.90129409 49 9 C49 9.66 49 10.32 49 11 C29.15783198 11.88865934 12.22722675 9.98123835 -7 5 C-7 4.67 -7 4.34 -7 4 C-4.69 4 -2.38 4 0 4 C0 2.68 0 1.36 0 0 Z " fill="#5C6068" transform="translate(116,250)"/>
<path d="M0 0 C1.29088531 0.00022659 1.29088531 0.00022659 2.60784912 0.00045776 C3.52777649 0.01078033 4.44770386 0.02110291 5.39550781 0.03173828 C6.34427795 0.03456818 7.2930481 0.03739807 8.27056885 0.04031372 C11.29671921 0.0514963 14.32257211 0.07659749 17.34863281 0.10205078 C19.40201395 0.11208306 21.45539973 0.12120848 23.50878906 0.12939453 C28.53885135 0.15142938 33.56869167 0.18594616 38.59863281 0.22705078 C38.59863281 0.55705078 38.59863281 0.88705078 38.59863281 1.22705078 C23.25363281 1.72205078 23.25363281 1.72205078 7.59863281 2.22705078 C7.26863281 2.88705078 6.93863281 3.54705078 6.59863281 4.22705078 C5.93863281 4.22705078 5.27863281 4.22705078 4.59863281 4.22705078 C4.59863281 4.88705078 4.59863281 5.54705078 4.59863281 6.22705078 C1.28492281 8.43619078 0.25403072 8.45186631 -3.58886719 8.35205078 C-4.48992187 8.33400391 -5.39097656 8.31595703 -6.31933594 8.29736328 C-7.00640625 8.27416016 -7.69347656 8.25095703 -8.40136719 8.22705078 C-8.40136719 6.24705078 -8.40136719 4.26705078 -8.40136719 2.22705078 C-5.4625741 0.54749533 -3.37525171 -0.01985442 0 0 Z " fill="#5C6068" transform="translate(192.4013671875,123.77294921875)"/>
<path d="M0 0 C0 3 0 3 -1 6 C-1.99 6.495 -1.99 6.495 -3 7 C-2.67 7.33 -2.34 7.66 -2 8 C-1.01 8 -0.02 8 1 8 C-0.25384913 11.76154738 -2.14200302 13.27191198 -5 16 C-5.845625 16.928125 -6.69125 17.85625 -7.5625 18.8125 C-10 21 -10 21 -14 21 C-14.20668733 15.52278564 -13.17776219 12.77220412 -9.49951172 8.60083008 C-6.49460733 5.37442741 -3.67732729 2.45155153 0 0 Z " fill="#545964" transform="translate(127,183)"/>
<path d="M0 0 C0 1.32 0 2.64 0 4 C-0.598125 4.268125 -1.19625 4.53625 -1.8125 4.8125 C-3.99227985 5.84786731 -3.99227985 5.84786731 -5.29296875 7.375 C-7.48693022 9.46353083 -9.84218848 10.74070744 -12.5 12.1875 C-13.4590625 12.71730469 -14.418125 13.24710938 -15.40625 13.79296875 C-18 15 -18 15 -21 15 C-20 12 -20 12 -18 10 C-17.649375 9.05125 -17.29875 8.1025 -16.9375 7.125 C-13.30699851 1.26935243 -6.73025676 -0.69028274 0 0 Z " fill="#343942" transform="translate(144,177)"/>
<path d="M0 0 C0.99 0.66 1.98 1.32 3 2 C3 2.66 3 3.32 3 4 C3.61875 4.2475 4.2375 4.495 4.875 4.75 C7.35068687 6.20628639 7.95125002 7.37812506 9 10 C8.401875 10.4125 7.80375 10.825 7.1875 11.25 C5.01158763 12.9907299 3.57451158 14.71695821 2 17 C0.8944811 16.06409496 -0.20935453 15.12620142 -1.3125 14.1875 C-1.92738281 13.66542969 -2.54226562 13.14335937 -3.17578125 12.60546875 C-4.85424679 11.12827531 -6.43882034 9.59960869 -8 8 C-7.67 7.34 -7.34 6.68 -7 6 C-6.01 6 -5.02 6 -4 6 C-4 5.34 -4 4.68 -4 4 C-3.01 4 -2.02 4 -1 4 C-0.67 2.68 -0.34 1.36 0 0 Z " fill="#3B3D48" transform="translate(67,217)"/>
<path d="M0 0 C2.97 0 5.94 0 9 0 C8.75 2.375 8.75 2.375 8 5 C7.39800781 5.30035156 6.79601562 5.60070312 6.17578125 5.91015625 C3.54775622 7.22652785 2.2813889 8.78960787 0.4375 11.0625 C-2.67024793 14.89008264 -2.67024793 14.89008264 -6 16 C-5.38029501 6.19156581 -5.38029501 6.19156581 -2 2 C-1.34 2 -0.68 2 0 2 C0 1.34 0 0.68 0 0 Z " fill="#29303A" transform="translate(52,87)"/>
<path d="M0 0 C5.36742536 0.58445298 8.98838876 1.38234997 12.5625 5.625 C13.39730538 6.73354915 14.21824329 7.85342349 15 9 C14.67 9.66 14.34 10.32 14 11 C12.68 10.67 11.36 10.34 10 10 C9.67 10.99 9.34 11.98 9 13 C7.53426066 12.09522263 6.07764244 11.17565859 4.625 10.25 C3.81289062 9.73953125 3.00078125 9.2290625 2.1640625 8.703125 C-0.08555679 6.9326665 -0.95906848 5.63092581 -2 3 C-1.34 3 -0.68 3 0 3 C0 2.01 0 1.02 0 0 Z " fill="#353B44" transform="translate(191,176)"/>
<path d="M0 0 C5.20112114 2.1772135 7.68090651 4.60708214 11 9 C10.01 10.485 10.01 10.485 9 12 C8.34 12 7.68 12 7 12 C6.67 13.65 6.34 15.3 6 17 C4.51714758 16.04737966 3.03881799 15.08771595 1.5625 14.125 C0.73878906 13.59132813 -0.08492187 13.05765625 -0.93359375 12.5078125 C-3 11 -3 11 -4 9 C-3.01 8.401875 -2.02 7.80375 -1 7.1875 C-0.01 6.465625 0.98 5.74375 2 5 C2 4.01 2 3.02 2 2 C1.34 2 0.68 2 0 2 C0 1.34 0 0.68 0 0 Z " fill="#3D424A" transform="translate(226,48)"/>
<path d="M0 0 C2.4375 0.875 2.4375 0.875 3.75 2.9375 C4.0903125 3.8965625 4.0903125 3.8965625 4.4375 4.875 C5.0975 4.875 5.7575 4.875 6.4375 4.875 C6.7675 6.195 7.0975 7.515 7.4375 8.875 C5.25 10.5 5.25 10.5 2.4375 11.875 C-0.125 11.1875 -0.125 11.1875 -2.5625 9.875 C-3.325625 9.50375 -4.08875 9.1325 -4.875 8.75 C-5.431875 8.46125 -5.98875 8.1725 -6.5625 7.875 C-6.25 5 -6.25 5 -5.5625 1.875 C-2.5625 -0.125 -2.5625 -0.125 0 0 Z " fill="#303742" transform="translate(221.5625,45.125)"/>
<path d="M0 0 C-0.185625 0.78375 -0.37125 1.5675 -0.5625 2.375 C-1.25962266 4.97089775 -1.25962266 4.97089775 0 7 C5.01535052 6.67039784 5.01535052 6.67039784 9 4 C11.3828125 4.0234375 11.3828125 4.0234375 14.125 4.375 C15.03507812 4.48585938 15.94515625 4.59671875 16.8828125 4.7109375 C17.58148438 4.80632813 18.28015625 4.90171875 19 5 C19 5.33 19 5.66 19 6 C17.4840625 6.185625 17.4840625 6.185625 15.9375 6.375 C10.93510231 7.16903138 6.26046363 8.60195885 1.4375 10.125 C-1.87321271 10.96772687 -4.60357012 11.16567951 -8 11 C-8.75 9.3125 -8.75 9.3125 -9 7 C-4.33333333 0 -4.33333333 0 0 0 Z M-4 5 C-3.67 5.66 -3.34 6.32 -3 7 C-2.67 6.34 -2.34 5.68 -2 5 C-2.66 5 -3.32 5 -4 5 Z " fill="#444950" transform="translate(123,29)"/>
<path d="M0 0 C1.76025107 2.6403766 3.46070032 5.29852805 5.125 8 C5.66382813 8.86625 6.20265625 9.7325 6.7578125 10.625 C8 13 8 13 8 16 C7.34 15.67 6.68 15.34 6 15 C5.67 15.99 5.34 16.98 5 18 C4 16 4 16 3.5625 13.5 C3.19851448 10.84208667 3.19851448 10.84208667 1 9 C0.01 9.495 0.01 9.495 -1 10 C-1.65213292 12.02463255 -1.65213292 12.02463255 -2 14 C-2.66 14 -3.32 14 -4 14 C-5.98362069 11.08291076 -5.9876191 9.87619096 -5.625 6.25 C-5.41875 5.1775 -5.2125 4.105 -5 3 C-3.35 3.33 -1.7 3.66 0 4 C0 2.68 0 1.36 0 0 Z " fill="#333840" transform="translate(56,198)"/>
<path d="M0 0 C-1.375 1.5 -1.375 1.5 -3 3 C-3.66 3 -4.32 3 -5 3 C-5.433125 3.928125 -5.433125 3.928125 -5.875 4.875 C-7.22018987 7.41591419 -8.42250301 8.71125151 -11 10 C-11 8.68 -11 7.36 -11 6 C-11.61488281 6.144375 -12.22976562 6.28875 -12.86328125 6.4375 C-13.67152344 6.623125 -14.47976562 6.80875 -15.3125 7 C-16.51326172 7.2784375 -16.51326172 7.2784375 -17.73828125 7.5625 C-20 8 -20 8 -23 8 C-19.15400499 3.24906499 -5.69810055 -2.84905027 0 0 Z " fill="#464C52" transform="translate(155,171)"/>
<path d="M0 0 C7.57142857 3 7.57142857 3 10 6 C7.525 5.505 7.525 5.505 5 5 C5 6.65 5 8.3 5 10 C6.32 10.66 7.64 11.32 9 12 C8.01 12.495 8.01 12.495 7 13 C4.58843968 11.9951832 2.3189331 10.9374055 0 9.75 C-0.64195313 9.43675781 -1.28390625 9.12351563 -1.9453125 8.80078125 C-5.23739592 7.14096513 -6.91684366 6.1247345 -9 3 C-6.03 3.33 -3.06 3.66 0 4 C0 2.68 0 1.36 0 0 Z " fill="#4B4F59" transform="translate(85,235)"/>
<path d="M0 0 C0.95446518 -0.00315216 1.90893036 -0.00630432 2.89231873 -0.009552 C3.93082474 -0.00752777 4.96933075 -0.00550354 6.03930664 -0.00341797 C7.62818443 -0.00485306 7.62818443 -0.00485306 9.24916077 -0.00631714 C11.4945583 -0.00699917 13.73995779 -0.00514331 15.98535156 -0.00097656 C19.43111589 0.00436608 22.87674955 -0.00091809 26.32250977 -0.00732422 C28.49894235 -0.00666334 30.67537485 -0.00538197 32.85180664 -0.00341797 C33.88828842 -0.0054422 34.9247702 -0.00746643 35.99266052 -0.009552 C36.95027786 -0.00639984 37.9078952 -0.00324768 38.89453125 0 C39.73978867 0.00079559 40.58504608 0.00159119 41.45591736 0.00241089 C43.51196289 0.12939453 43.51196289 0.12939453 45.51196289 1.12939453 C45.19946289 3.06689453 45.19946289 3.06689453 44.51196289 5.12939453 C43.52196289 5.45939453 42.53196289 5.78939453 41.51196289 6.12939453 C41.51196289 4.80939453 41.51196289 3.48939453 41.51196289 2.12939453 C26.99196289 2.12939453 12.47196289 2.12939453 -2.48803711 2.12939453 C-2.48803711 3.44939453 -2.48803711 4.76939453 -2.48803711 6.12939453 C-3.47803711 6.12939453 -4.46803711 6.12939453 -5.48803711 6.12939453 C-5.53075811 4.46327548 -5.52867543 2.79556568 -5.48803711 1.12939453 C-3.88987011 -0.46877247 -2.21277213 0.00208472 0 0 Z " fill="#363C43" transform="translate(104.488037109375,123.87060546875)"/>
<path d="M0 0 C2.31 0.66 4.62 1.32 7 2 C7.33 3.32 7.66 4.64 8 6 C6.68 6 5.36 6 4 6 C2.98888907 9.04913228 2.98888907 9.04913228 4 12 C-1.39691512 10.50723624 -6.69905784 8.80304155 -12 7 C-8.58389775 6.05685873 -5.54865136 5.91934883 -2 6 C-1.67 6.99 -1.34 7.98 -1 9 C-0.34 8.67 0.32 8.34 1 8 C0.01 6.35 -0.98 4.7 -2 3 C-1.34 2.01 -0.68 1.02 0 0 Z " fill="#353B40" transform="translate(195,32)"/>
<path d="M0 0 C0.66 0 1.32 0 2 0 C1.44841898 3.70694893 0.11773346 5.10342371 -2.75 7.4375 C-6.01256273 10.16021422 -9.04312214 12.95071971 -12 16 C-12.28875 15.360625 -12.5775 14.72125 -12.875 14.0625 C-13.82823451 11.84793921 -13.82823451 11.84793921 -16 11 C-16 10.34 -16 9.68 -16 9 C-16.66 8.67 -17.32 8.34 -18 8 C-17.01 7.34 -16.02 6.68 -15 6 C-15 6.66 -15 7.32 -15 8 C-14.34 8 -13.68 8 -13 8 C-13 8.66 -13 9.32 -13 10 C-8.70545566 8.07485943 -6.60318655 5.90477983 -4 2 C-3.34 2 -2.68 2 -2 2 C-1.34 1.34 -0.68 0.68 0 0 Z " fill="#343A40" transform="translate(85,55)"/>
<path d="M0 0 C0.33 0 0.66 0 1 0 C1.04898437 0.68707031 1.09796875 1.37414062 1.1484375 2.08203125 C1.22320312 2.98308594 1.29796875 3.88414062 1.375 4.8125 C1.44460938 5.70582031 1.51421875 6.59914062 1.5859375 7.51953125 C1.86645036 10.24398499 1.86645036 10.24398499 4 13 C4.66 12.67 5.32 12.34 6 12 C6 13.98 6 15.96 6 18 C5.34 18.33 4.68 18.66 4 19 C3.26924352 21.3140622 2.59861742 23.64828869 2 26 C0 25 0 25 -1 22 C-1.01567171 20.2977706 -0.96734569 18.5945339 -0.87890625 16.89453125 C-0.83056641 15.91162109 -0.78222656 14.92871094 -0.73242188 13.91601562 C-0.67634766 12.89185547 -0.62027344 11.86769531 -0.5625 10.8125 C-0.51029297 9.77673828 -0.45808594 8.74097656 -0.40429688 7.67382812 C-0.27461607 5.11557951 -0.13965022 2.55772062 0 0 Z " fill="#262C38" transform="translate(268,137)"/>
<path d="M0 0 C0 1.65 0 3.3 0 5 C0.66 5.33 1.32 5.66 2 6 C1.04287109 6.25523437 1.04287109 6.25523437 0.06640625 6.515625 C-0.75988281 6.75796875 -1.58617187 7.0003125 -2.4375 7.25 C-3.26121094 7.48203125 -4.08492187 7.7140625 -4.93359375 7.953125 C-7.19995468 8.80770679 -7.19995468 8.80770679 -7.78515625 11.109375 C-7.85605469 11.73328125 -7.92695313 12.3571875 -8 13 C-9.98 12.01 -11.96 11.02 -14 10 C-13.0409375 9.5978125 -13.0409375 9.5978125 -12.0625 9.1875 C-9.66868314 8.11332248 -9.66868314 8.11332248 -9 5 C-5.9375 3.8125 -5.9375 3.8125 -3 3 C-3 2.34 -3 1.68 -3 1 C-1 0 -1 0 0 0 Z M-7 9 C-6.34 9 -5.68 9 -5 9 C-5.33 9.99 -5.66 10.98 -6 12 C-6.33 11.01 -6.66 10.02 -7 9 Z " fill="#282E37" transform="translate(229,229)"/>
<path d="M0 0 C0.33 0.66 0.66 1.32 1 2 C0.06421005 4.35981813 -0.93347808 6.69631264 -2 9 C-2.66 8.34 -3.32 7.68 -4 7 C-4.598125 7.825 -5.19625 8.65 -5.8125 9.5 C-6.534375 10.325 -7.25625 11.15 -8 12 C-8.99 12 -9.98 12 -11 12 C-11 12.66 -11 13.32 -11 14 C-11.66 14 -12.32 14 -13 14 C-13 14.99 -13 15.98 -13 17 C-13.66 17 -14.32 17 -15 17 C-14.67 14.36 -14.34 11.72 -14 9 C-13.67 9.66 -13.34 10.32 -13 11 C-11.70450101 9.90033225 -10.41373929 8.79508199 -9.125 7.6875 C-8.40570313 7.07261719 -7.68640625 6.45773438 -6.9453125 5.82421875 C-4.80820669 3.9587676 -4.80820669 3.9587676 -3 1 C-2.01 0.67 -1.02 0.34 0 0 Z " fill="#4A515B" transform="translate(59,92)"/>
<path d="M0 0 C0 3 0 3 -1 6 C-1.99 6.495 -1.99 6.495 -3 7 C-2.67 7.33 -2.34 7.66 -2 8 C-1.01 8 -0.02 8 1 8 C-0.13719419 11.41158256 -1.04342944 12.11854601 -4 14 C-4.66 14 -5.32 14 -6 14 C-6 13.34 -6 12.68 -6 12 C-6.99 12 -7.98 12 -9 12 C-7.72210402 6.03648545 -4.66283606 3.51582826 0 0 Z " fill="#4C4B57" transform="translate(127,183)"/>
<path d="M0 0 C0.99 0.33 1.98 0.66 3 1 C3 3.64 3 6.28 3 9 C1.68 8.67 0.36 8.34 -1 8 C-1.66 10.31 -2.32 12.62 -3 15 C-4.37562854 13.71034824 -5.70766393 12.37310707 -7 11 C-7 10.34 -7 9.68 -7 9 C-6.34 8.67 -5.68 8.34 -5 8 C-4.34786708 5.97536745 -4.34786708 5.97536745 -4 4 C-3.34 4 -2.68 4 -2 4 C-1.67 3.34 -1.34 2.68 -1 2 C-1 2.66 -1 3.32 -1 4 C-0.34 4 0.32 4 1 4 C0.67 2.68 0.34 1.36 0 0 Z " fill="#282C38" transform="translate(253,201)"/>
<path d="M0 0 C0.66 0.33 1.32 0.66 2 1 C1.01 2.32 0.02 3.64 -1 5 C-2.65 4.67 -4.3 4.34 -6 4 C-6 4.66 -6 5.32 -6 6 C-4.02 6.66 -2.04 7.32 0 8 C-3.68734758 10.45823172 -6.69699971 11.01242616 -11 12 C-11 11.34 -11 10.68 -11 10 C-10.34 9.67 -9.68 9.34 -9 9 C-9.33 8.01 -9.66 7.02 -10 6 C-10.66 5.67 -11.32 5.34 -12 5 C-10.04578965 4.13644222 -8.08648653 3.28440066 -6.125 2.4375 C-5.03445312 1.96183594 -3.94390625 1.48617187 -2.8203125 0.99609375 C-1.88960937 0.66738281 -0.95890625 0.33867187 0 0 Z " fill="#3F464E" transform="translate(202,243)"/>
<path d="M0 0 C0.66 0 1.32 0 2 0 C2.36463732 1.74784829 2.7163078 3.49840502 3.0625 5.25 C3.25972656 6.22453125 3.45695312 7.1990625 3.66015625 8.203125 C3.98397535 10.868119 3.85503199 12.48871723 3 15 C2.731875 14.195625 2.46375 13.39125 2.1875 12.5625 C1.795625 11.716875 1.40375 10.87125 1 10 C0.01 9.67 -0.98 9.34 -2 9 C-2.66 10.32 -3.32 11.64 -4 13 C-6 10 -6 10 -5.875 8 C-4.76035105 5.45223097 -3.22991831 4.60275379 -1 3 C-0.67 2.01 -0.34 1.02 0 0 Z " fill="#565C65" transform="translate(48,171)"/>
<path d="M0 0 C0.66 0 1.32 0 2 0 C2 1.65 2 3.3 2 5 C0.824375 5.37125 0.824375 5.37125 -0.375 5.75 C-3.32317108 7.15389099 -3.9024777 8.00675737 -5 11 C-5.99 11 -6.98 11 -8 11 C-8 10.34 -8 9.68 -8 9 C-8.66 9 -9.32 9 -10 9 C-9.8125 7.125 -9.8125 7.125 -9 5 C-6.55683729 3.74709605 -4.75474605 3 -2 3 C-1.34 2.01 -0.68 1.02 0 0 Z " fill="#292F39" transform="translate(80,54)"/>
<path d="M0 0 C2.73277221 2.17220355 4.72888915 3.85827965 5.5546875 7.3359375 C5.78650022 9.56274452 5.94637012 11.76217118 6 14 C3.69 13.67 1.38 13.34 -1 13 C-1.33 12.01 -1.66 11.02 -2 10 C-1.34 10 -0.68 10 0 10 C0.33 9.01 0.66 8.02 1 7 C1.33 6.01 1.66 5.02 2 4 C1.12516085 1.83284443 1.12516085 1.83284443 0 0 Z " fill="#4C5054" transform="translate(207,186)"/>
<path d="M0 0 C0.66 0 1.32 0 2 0 C2 0.66 2 1.32 2 2 C3.32 2 4.64 2 6 2 C6.66 3.32 7.32 4.64 8 6 C6.25 8.0625 6.25 8.0625 4 10 C1.75 9.75 1.75 9.75 0 9 C-1.125 3.375 -1.125 3.375 0 0 Z " fill="#283036" transform="translate(242,67)"/>
<path d="M0 0 C0 0.66 0 1.32 0 2 C0.99 2.33 1.98 2.66 3 3 C3.33 4.65 3.66 6.3 4 8 C3.01 8.66 2.02 9.32 1 10 C0 9 -1 8 -2 7 C-2.99 7.495 -2.99 7.495 -4 8 C-4.6875 5.6875 -4.6875 5.6875 -5 3 C-3.40083326 0.79162689 -2.76966516 0 0 0 Z " fill="#323540" transform="translate(69,64)"/>
<path d="M0 0 C0.66 0.33 1.32 0.66 2 1 C2 2.98 2 4.96 2 7 C1.38125 7.226875 0.7625 7.45375 0.125 7.6875 C-2.61410209 9.37929835 -3.05024472 10.99244161 -4 14 C-4.66 14 -5.32 14 -6 14 C-5.79503906 13.39671875 -5.59007812 12.7934375 -5.37890625 12.171875 C-4.97478516 10.97304687 -4.97478516 10.97304687 -4.5625 9.75 C-4.29566406 8.96109375 -4.02882813 8.1721875 -3.75390625 7.359375 C-2.96957954 5.04130241 -2.96957954 5.04130241 -2.52734375 2.765625 C-2.35332031 2.18296875 -2.17929687 1.6003125 -2 1 C-1.34 0.67 -0.68 0.34 0 0 Z " fill="#4C5159" transform="translate(262,179)"/>
<path d="M0 0 C0 1.32 0 2.64 0 4 C-7.42857143 4.28571429 -7.42857143 4.28571429 -11 2 C-8.74490247 -2.51019507 -4.15738698 -0.70597137 0 0 Z " fill="#2F313A" transform="translate(116,250)"/>
<path d="M0 0 C2.97 0 5.94 0 9 0 C8.8125 2.375 8.8125 2.375 8 5 C5.4375 6.3125 5.4375 6.3125 3 7 C3 5.35 3 3.7 3 2 C1.68 2.99 0.36 3.98 -1 5 C-0.67 3.35 -0.34 1.7 0 0 Z " fill="#2D323A" transform="translate(52,87)"/>
<path d="M0 0 C0.66 0.66 1.32 1.32 2 2 C1.67 2.66 1.34 3.32 1 4 C0.34 4 -0.32 4 -1 4 C-1 4.66 -1 5.32 -1 6 C-1.99 6 -2.98 6 -4 6 C-4 6.66 -4 7.32 -4 8 C-4.99 8 -5.98 8 -7 8 C-7.93423645 4.98968256 -8.04449911 4.13349732 -7 1 C-4.69 1.33 -2.38 1.66 0 2 C0 1.34 0 0.68 0 0 Z " fill="#292E39" transform="translate(110,36)"/>
<path d="M0 0 C1.65 0.33 3.3 0.66 5 1 C5.66 2.98 6.32 4.96 7 7 C3.23312136 7 2.08809695 6.76462683 -1 5 C-0.67 3.35 -0.34 1.7 0 0 Z " fill="#2B2F3A" transform="translate(90,240)"/>
<path d="M0 0 C0.5534764 2.07553648 1 3.84365964 1 6 C1.33 5.34 1.66 4.68 2 4 C2.66 4 3.32 4 4 4 C4 5.98 4 7.96 4 10 C1 11 1 11 -1 11 C-1.99 11.495 -1.99 11.495 -3 12 C-2.67 9.03 -2.34 6.06 -2 3 C-1.34 3 -0.68 3 0 3 C0 2.01 0 1.02 0 0 Z " fill="#282E37" transform="translate(52,192)"/>
<path d="M0 0 C1.22589844 0.15275391 1.22589844 0.15275391 2.4765625 0.30859375 C3.41628906 0.43427734 3.41628906 0.43427734 4.375 0.5625 C3.715 1.8825 3.055 3.2025 2.375 4.5625 C-0.595 4.5625 -3.565 4.5625 -6.625 4.5625 C-6.625 3.2425 -6.625 1.9225 -6.625 0.5625 C-4.10446405 -0.69776798 -2.7707902 -0.35624445 0 0 Z " fill="#2E333D" transform="translate(190.625,126.4375)"/>
<path d="M0 0 C4.4008703 3.82180842 5.80805531 6.47371099 7 12 C6.34 12.66 5.68 13.32 5 14 C2.33001245 11.33001245 1.01764707 9.84705958 0.9375 6 C0.958125 5.01 0.97875 4.02 1 3 C0.67 2.01 0.34 1.02 0 0 Z " fill="#42464F" transform="translate(257,81)"/>
<path d="M0 0 C0.99 0.66 1.98 1.32 3 2 C2.071875 2.61875 2.071875 2.61875 1.125 3.25 C-1.06768281 5.05573879 -1.92788417 6.4090534 -3 9 C-3.556875 8.71125 -4.11375 8.4225 -4.6875 8.125 C-7.08494645 6.9586747 -9.51596939 5.9660119 -12 5 C-8 4 -4 3 0 2 C0 1.34 0 0.68 0 0 Z " fill="#424751" transform="translate(218,43)"/>
<path d="M0 0 C5.94 0 11.88 0 18 0 C18 0.33 18 0.66 18 1 C14.7 1 11.4 1 8 1 C8 1.66 8 2.32 8 3 C5.03 3 2.06 3 -1 3 C-0.67 2.01 -0.34 1.02 0 0 Z " fill="#282B34" transform="translate(157,169)"/>
<path d="M0 0 C4.455 0.99 4.455 0.99 9 2 C9 2.66 9 3.32 9 4 C4.125 5 4.125 5 3 5 C2.01 5.495 2.01 5.495 1 6 C0.01 5.01 -0.98 4.02 -2 3 C-1.34 3 -0.68 3 0 3 C0 2.01 0 1.02 0 0 Z " fill="#292E38" transform="translate(191,176)"/>
<path d="M0 0 C1.48831242 0.00667405 2.97660807 0.01863442 4.46484375 0.03515625 C5.22345703 0.03966797 5.98207031 0.04417969 6.76367188 0.04882812 C8.64326246 0.06064945 10.52281274 0.07858547 12.40234375 0.09765625 C12.40234375 0.42765625 12.40234375 0.75765625 12.40234375 1.09765625 C8.77234375 1.09765625 5.14234375 1.09765625 1.40234375 1.09765625 C1.40234375 1.75765625 1.40234375 2.41765625 1.40234375 3.09765625 C0.74234375 3.09765625 0.08234375 3.09765625 -0.59765625 3.09765625 C-0.59765625 3.75765625 -0.59765625 4.41765625 -0.59765625 5.09765625 C-1.58765625 5.09765625 -2.57765625 5.09765625 -3.59765625 5.09765625 C-4.16015625 3.16015625 -4.16015625 3.16015625 -4.59765625 1.09765625 C-3.59765625 0.09765625 -3.59765625 0.09765625 0 0 Z " fill="#282C36" transform="translate(105.59765625,124.90234375)"/>
<path d="M0 0 C0.66 0.33 1.32 0.66 2 1 C1 4 1 4 -1 6 C-1 6.99 -1 7.98 -1 9 C-2.65 9.66 -4.3 10.32 -6 11 C-6 7 -6 7 -4 5 C-3.505 3.9790625 -3.505 3.9790625 -3 2.9375 C-2 1 -2 1 0 0 Z " fill="#2B2B38" transform="translate(130,182)"/>
<path d="M0 0 C-0.33 3.3 -0.66 6.6 -1 10 C-2.65 9.67 -4.3 9.34 -6 9 C-5.7452486 7.68428397 -5.47065859 6.37239624 -5.1875 5.0625 C-5.03667969 4.33160156 -4.88585937 3.60070312 -4.73046875 2.84765625 C-4.48941406 2.23792969 -4.24835938 1.62820312 -4 1 C-1 0 -1 0 0 0 Z " fill="#2C353B" transform="translate(268,179)"/>
<path d="M0 0 C0.66 0.33 1.32 0.66 2 1 C1.45564371 4.81049403 0.01129759 6.63979378 -3 9 C-6.25 9.75 -6.25 9.75 -9 10 C-8.07038578 8.84775972 -7.1309875 7.70340824 -6.1875 6.5625 C-5.40439453 5.60537109 -5.40439453 5.60537109 -4.60546875 4.62890625 C-3 3 -3 3 0 2 C0 1.34 0 0.68 0 0 Z " fill="#474953" transform="translate(81,49)"/>
<path d="M0 0 C0.66 1.32 1.32 2.64 2 4 C-0.25 5.625 -0.25 5.625 -3 7 C-5.3125 6.1875 -5.3125 6.1875 -7 5 C-7 4.34 -7 3.68 -7 3 C-4.69 2.01 -2.38 1.02 0 0 Z " fill="#272E37" transform="translate(227,50)"/>
<path d="M0 0 C2.475 0.99 2.475 0.99 5 2 C5 3.65 5 5.3 5 7 C3.02 7.33 1.04 7.66 -1 8 C-1.33 7.34 -1.66 6.68 -2 6 C-1.01 5.34 -0.02 4.68 1 4 C0.67 2.68 0.34 1.36 0 0 Z " fill="#2C313C" transform="translate(80,232)"/>
<path d="M0 0 C0.33 0.66 0.66 1.32 1 2 C0.06421005 4.35981813 -0.93347808 6.69631264 -2 9 C-2.66 8.34 -3.32 7.68 -4 7 C-4.66 7.66 -5.32 8.32 -6 9 C-6.33 8.01 -6.66 7.02 -7 6 C-4.84656811 2.76985216 -3.72940389 1.24313463 0 0 Z " fill="#555C60" transform="translate(59,92)"/>
<path d="M0 0 C2.31 0.66 4.62 1.32 7 2 C4 4 4 4 1 4 C1 4.66 1 5.32 1 6 C-1.64 5.67 -4.28 5.34 -7 5 C-7 4.67 -7 4.34 -7 4 C-4.69 4 -2.38 4 0 4 C0 2.68 0 1.36 0 0 Z " fill="#494C56" transform="translate(116,250)"/>
<path d="M0 0 C0.66 0.33 1.32 0.66 2 1 C0.6875 2.5 0.6875 2.5 -1 4 C-1.99 4 -2.98 4 -4 4 C-4 5.32 -4 6.64 -4 8 C-6.375 8.625 -6.375 8.625 -9 9 C-9.66 8.34 -10.32 7.68 -11 7 C-10.29875 6.5875 -9.5975 6.175 -8.875 5.75 C-5.85846677 3.91384934 -2.92750755 1.97436555 0 0 Z " fill="#4B4D54" transform="translate(218,234)"/>
<path d="M0 0 C1.79158489 -0.02696365 3.58328473 -0.04637917 5.375 -0.0625 C6.37273437 -0.07410156 7.37046875 -0.08570312 8.3984375 -0.09765625 C11 0 11 0 13 1 C12.6875 2.9375 12.6875 2.9375 12 5 C11.01 5.33 10.02 5.66 9 6 C9 4.68 9 3.36 9 2 C6.03 1.67 3.06 1.34 0 1 C0 0.67 0 0.34 0 0 Z " fill="#56585C" transform="translate(137,124)"/>
<path d="M0 0 C3.3 0 6.6 0 10 0 C10.33 1.32 10.66 2.64 11 4 C12.65 4.33 14.3 4.66 16 5 C14 6 14 6 10.7421875 5.00390625 C9.4502948 4.53110016 8.16131362 4.05028031 6.875 3.5625 C6.21628906 3.31951172 5.55757812 3.07652344 4.87890625 2.82617188 C3.25008662 2.22421679 1.62470425 1.61297588 0 1 C0 0.67 0 0.34 0 0 Z " fill="#62656D" transform="translate(183,38)"/>
<path d="M0 0 C1.32 0 2.64 0 4 0 C5.75 2 5.75 2 7 4 C4.69 4.33 2.38 4.66 0 5 C0 4.34 0 3.68 0 3 C-0.66 2.67 -1.32 2.34 -2 2 C-1.34 1.34 -0.68 0.68 0 0 Z " fill="#272E39" transform="translate(188,249)"/>
<path d="M0 0 C3.96 0 7.92 0 12 0 C11.67 0.66 11.34 1.32 11 2 C8.27734375 2.4140625 8.27734375 2.4140625 4.9375 2.625 C3.83277344 2.69976562 2.72804687 2.77453125 1.58984375 2.8515625 C0.73519531 2.90054688 -0.11945313 2.94953125 -1 3 C-0.67 2.01 -0.34 1.02 0 0 Z " fill="#272B34" transform="translate(156,173)"/>
<path d="M0 0 C0.33 0.66 0.66 1.32 1 2 C1.66 2 2.32 2 3 2 C3.99 3.98 4.98 5.96 6 8 C5.34 8.66 4.68 9.32 4 10 C3.71125 9.360625 3.4225 8.72125 3.125 8.0625 C2.17176549 5.84793921 2.17176549 5.84793921 0 5 C0 4.34 0 3.68 0 3 C-0.66 2.67 -1.32 2.34 -2 2 C-1.34 1.34 -0.68 0.68 0 0 Z " fill="#50535C" transform="translate(69,61)"/>
<path d="M0 0 C0.66 0.33 1.32 0.66 2 1 C1.34 2.65 0.68 4.3 0 6 C-2.31 5.67 -4.62 5.34 -7 5 C-6.67 4.01 -6.34 3.02 -6 2 C-4.35 2.33 -2.7 2.66 -1 3 C-0.67 2.01 -0.34 1.02 0 0 Z " fill="#262C34" transform="translate(202,245)"/>
<path d="M0 0 C0.33 0 0.66 0 1 0 C2.50717296 6.90787608 1.3284547 10.82878785 -2 17 C-3.59190467 13.81619067 -2.28749598 10.71923676 -1.5625 7.375 C-1.41490234 6.66859375 -1.26730469 5.9621875 -1.11523438 5.234375 C-0.74950507 3.48831251 -0.37552879 1.74398116 0 0 Z " fill="#565D64" transform="translate(266,156)"/>
<path d="M0 0 C2.4375 0.375 2.4375 0.375 5 1 C5.33 1.66 5.66 2.32 6 3 C3.47946405 4.26026798 2.1457902 3.91874445 -0.625 3.5625 C-1.85089844 3.40974609 -1.85089844 3.40974609 -3.1015625 3.25390625 C-3.72804688 3.17011719 -4.35453125 3.08632812 -5 3 C-4.360625 2.87625 -3.72125 2.7525 -3.0625 2.625 C-2.0415625 2.315625 -2.0415625 2.315625 -1 2 C-0.67 1.34 -0.34 0.68 0 0 Z " fill="#282D35" transform="translate(102,246)"/>
<path d="M0 0 C0.66 0 1.32 0 2 0 C2.33 0.66 2.66 1.32 3 2 C3.66 2 4.32 2 5 2 C4.67 2.99 4.34 3.98 4 5 C2.35 5.33 0.7 5.66 -1 6 C-0.67 4.02 -0.34 2.04 0 0 Z " fill="#2E323E" transform="translate(114,197)"/>
<path d="M0 0 C1.5625 1.8125 1.5625 1.8125 3 4 C2.67 4.99 2.34 5.98 2 7 C1.34 7 0.68 7 0 7 C0 6.34 0 5.68 0 5 C-0.99 5 -1.98 5 -3 5 C-2.625 3.0625 -2.625 3.0625 -2 1 C-1.34 0.67 -0.68 0.34 0 0 Z " fill="#2B2D35" transform="translate(121,190)"/>
<path d="M0 0 C4 4.625 4 4.625 4 8 C3.34 7.67 2.68 7.34 2 7 C1.67 7.99 1.34 8.98 1 10 C-0.31600401 7.36799198 -0.63637344 4.90901247 -1 2 C-0.67 1.34 -0.34 0.68 0 0 Z " fill="#41474F" transform="translate(60,206)"/>
<path d="M0 0 C0.66 0.33 1.32 0.66 2 1 C-1.0657052 5.65987191 -3.58657319 6.85485202 -9 8 C-6.14723863 5.06799526 -3.34920216 2.35684596 0 0 Z " fill="#5B5E66" transform="translate(92,41)"/>
<path d="M0 0 C0 0.66 0 1.32 0 2 C-4.625 4.125 -4.625 4.125 -8 3 C-7.67 2.01 -7.34 1.02 -7 0 C-3.86650268 -1.04449911 -3.01031744 -0.93423645 0 0 Z " fill="#262B36" transform="translate(218,43)"/>
<path d="M0 0 C0.99 0.495 0.99 0.495 2 1 C2.99 0.67 3.98 0.34 5 0 C4.67 2.31 4.34 4.62 4 7 C3.67 6.34 3.34 5.68 3 5 C2.01 5 1.02 5 0 5 C0 3.35 0 1.7 0 0 Z " fill="#252A38" transform="translate(43,113)"/>
<path d="M0 0 C0.66 1.32 1.32 2.64 2 4 C1.01 4 0.02 4 -1 4 C-1 4.99 -1 5.98 -1 7 C-1.99 7 -2.98 7 -4 7 C-4.33 5.68 -4.66 4.36 -5 3 C-3.35 2.01 -1.7 1.02 0 0 Z " fill="#252C36" transform="translate(236,58)"/>
<path d="M0 0 C-0.99 1.32 -1.98 2.64 -3 4 C-5.97 3.505 -5.97 3.505 -9 3 C-8 1 -8 1 -5.0625 -0.1875 C-2 -1 -2 -1 0 0 Z " fill="#5E6066" transform="translate(204,244)"/>
<path d="M0 0 C0.99 0.33 1.98 0.66 3 1 C2.25 8.625 2.25 8.625 0 12 C0 8.04 0 4.08 0 0 Z " fill="#60626B" transform="translate(48,117)"/>
<path d="M0 0 C0.96706319 3.00864103 1.27677226 5.05360248 0 8 C-2.0625 9.25 -2.0625 9.25 -4 10 C-2.8905928 6.51329166 -1.73662334 3.22515763 0 0 Z " fill="#666A71" transform="translate(50,89)"/>
<path d="M0 0 C3.37503669 1.1858237 5.64722731 2.27573689 8 5 C5.36 4.67 2.72 4.34 0 4 C0 2.68 0 1.36 0 0 Z " fill="#61676C" transform="translate(87,236)"/>
<path d="M0 0 C0.99 0.33 1.98 0.66 3 1 C4.33106622 1.34227417 5.66400079 1.67751743 7 2 C7 2.66 7 3.32 7 4 C4.69 4 2.38 4 0 4 C0 2.68 0 1.36 0 0 Z " fill="#272B34" transform="translate(184,127)"/>
<path d="M0 0 C0.66 0.33 1.32 0.66 2 1 C-0.35277269 3.72426311 -2.62496331 4.8141763 -6 6 C-6 5.01 -6 4.02 -6 3 C-5.01 3 -4.02 3 -3 3 C-3 2.34 -3 1.68 -3 1 C-2.01 0.67 -1.02 0.34 0 0 Z " fill="#484D51" transform="translate(112,39)"/>
<path d="M0 0 C2.31 0 4.62 0 7 0 C5.6875 1.5 5.6875 1.5 4 3 C3.01 3 2.02 3 1 3 C0.34 3.66 -0.32 4.32 -1 5 C-0.67 3.35 -0.34 1.7 0 0 Z " fill="#252B35" transform="translate(52,87)"/>
<path d="M0 0 C2.0625 0.4375 2.0625 0.4375 4 1 C3.01 1.495 3.01 1.495 2 2 C2 3.32 2 4.64 2 6 C1.01 6 0.02 6 -1 6 C-1.042721 4.33388095 -1.04063832 2.66617115 -1 1 C-0.67 0.67 -0.34 0.34 0 0 Z " fill="#64676E" transform="translate(100,124)"/>
<path d="M0 0 C-0.66 3.96 -1.32 7.92 -2 12 C-3.00000429 7.99998285 -2.80688405 5.94476647 -2 2 C-2.66 1.67 -3.32 1.34 -4 1 C-2 0 -2 0 0 0 Z " fill="#545860" transform="translate(54,105)"/>
<path d="M0 0 C0.33 0.66 0.66 1.32 1 2 C1.66 2.33 2.32 2.66 3 3 C1.625 4.5 1.625 4.5 0 6 C-0.66 6 -1.32 6 -2 6 C-1.125 1.125 -1.125 1.125 0 0 Z " fill="#333842" transform="translate(48,97)"/>
<path d="M0 0 C0.33 0.99 0.66 1.98 1 3 C0.0409375 3.433125 0.0409375 3.433125 -0.9375 3.875 C-3.15206079 4.82823451 -3.15206079 4.82823451 -4 7 C-4.66 6.01 -5.32 5.02 -6 4 C-5.195625 3.525625 -4.39125 3.05125 -3.5625 2.5625 C-1.15246512 1.23099846 -1.15246512 1.23099846 0 0 Z " fill="#4E545F" transform="translate(249,73)"/>
<path d="M0 0 C0.99 0.99 1.98 1.98 3 3 C2.67 3.99 2.34 4.98 2 6 C0.68 6 -0.64 6 -2 6 C-1.34 4.02 -0.68 2.04 0 0 Z " fill="#2C323C" transform="translate(250,73)"/>
</svg>
